<?xml version="1.0" encoding="utf-8" standalone="no"?>
<!DOCTYPE svg PUBLIC "-//W3C//DTD SVG 1.1//EN"
  "http://www.w3.org/Graphics/SVG/1.1/DTD/svg11.dtd">
<svg height="288pt" version="1.1" viewBox="0 0 432 288" width="432pt" xmlns="http://www.w3.org/2000/svg" xmlns:xlink="http://www.w3.org/1999/xlink">
 <metadata>
  <rdf:RDF xmlns:cc="http://creativecommons.org/ns#" xmlns:dc="http://purl.org/dc/elements/1.1/" xmlns:rdf="http://www.w3.org/1999/02/22-rdf-syntax-ns#">
   <cc:Work>
    <dc:type rdf:resource="http://purl.org/dc/dcmitype/StillImage"/>
    <dc:date>2021-08-11T18:09:37.130780</dc:date>
    <dc:format>image/svg+xml</dc:format>
    <dc:creator>
     <cc:Agent>
      <dc:title>Matplotlib v3.4.2, https://matplotlib.org/</dc:title>
     </cc:Agent>
    </dc:creator>
   </cc:Work>
  </rdf:RDF>
 </metadata>
 <defs>
  <style type="text/css">*{stroke-linecap:butt;stroke-linejoin:round;}</style>
 </defs>
 <g id="figure_1">
  <g id="patch_1">
   <path d="M 0 288 
L 432 288 
L 432 0 
L 0 0 
z
" style="fill:none;"/>
  </g>
  <g id="axes_1">
   <g id="patch_2">
    <path d="M 54 252 
L 388.8 252 
L 388.8 34.56 
L 54 34.56 
z
" style="fill:#ffffff;"/>
   </g>
   <g id="patch_3">
    <path clip-path="url(#p228933515b)" d="M 69.218182 134.854708 
L 78.655814 134.854708 
L 78.655814 230.839522 
L 69.218182 230.839522 
z
" style="fill:#1f77b4;opacity:0.5;"/>
   </g>
   <g id="patch_4">
    <path clip-path="url(#p228933515b)" d="M 81.015222 134.854708 
L 90.452854 134.854708 
L 90.452854 225.667684 
L 81.015222 225.667684 
z
" style="fill:#1f77b4;opacity:0.5;"/>
   </g>
   <g id="patch_5">
    <path clip-path="url(#p228933515b)" d="M 92.812262 134.854708 
L 102.249894 134.854708 
L 102.249894 225.454452 
L 92.812262 225.454452 
z
" style="fill:#1f77b4;opacity:0.5;"/>
   </g>
   <g id="patch_6">
    <path clip-path="url(#p228933515b)" d="M 104.609302 134.854708 
L 114.046934 134.854708 
L 114.046934 217.681101 
L 104.609302 217.681101 
z
" style="fill:#1f77b4;opacity:0.5;"/>
   </g>
   <g id="patch_7">
    <path clip-path="url(#p228933515b)" d="M 116.406342 134.854708 
L 125.843975 134.854708 
L 125.843975 214.26871 
L 116.406342 214.26871 
z
" style="fill:#1f77b4;opacity:0.5;"/>
   </g>
   <g id="patch_8">
    <path clip-path="url(#p228933515b)" d="M 128.203383 134.854708 
L 137.641015 134.854708 
L 137.641015 208.226914 
L 128.203383 208.226914 
z
" style="fill:#1f77b4;opacity:0.5;"/>
   </g>
   <g id="patch_9">
    <path clip-path="url(#p228933515b)" d="M 140.000423 134.854708 
L 149.438055 134.854708 
L 149.438055 207.504743 
L 140.000423 207.504743 
z
" style="fill:#1f77b4;opacity:0.5;"/>
   </g>
   <g id="patch_10">
    <path clip-path="url(#p228933515b)" d="M 151.797463 134.854708 
L 161.235095 134.854708 
L 161.235095 204.159955 
L 151.797463 204.159955 
z
" style="fill:#1f77b4;opacity:0.5;"/>
   </g>
   <g id="patch_11">
    <path clip-path="url(#p228933515b)" d="M 163.594503 134.854708 
L 173.032135 134.854708 
L 173.032135 190.795363 
L 163.594503 190.795363 
z
" style="fill:#1f77b4;opacity:0.5;"/>
   </g>
   <g id="patch_12">
    <path clip-path="url(#p228933515b)" d="M 175.391543 134.854708 
L 184.829175 134.854708 
L 184.829175 190.795363 
L 175.391543 190.795363 
z
" style="fill:#1f77b4;opacity:0.5;"/>
   </g>
   <g id="patch_13">
    <path clip-path="url(#p228933515b)" d="M 187.188584 134.854708 
L 196.626216 134.854708 
L 196.626216 184.264792 
L 187.188584 184.264792 
z
" style="fill:#1f77b4;opacity:0.5;"/>
   </g>
   <g id="patch_14">
    <path clip-path="url(#p228933515b)" d="M 198.985624 134.854708 
L 208.423256 134.854708 
L 208.423256 182.565434 
L 198.985624 182.565434 
z
" style="fill:#1f77b4;opacity:0.5;"/>
   </g>
   <g id="patch_15">
    <path clip-path="url(#p228933515b)" d="M 210.782664 134.854708 
L 220.220296 134.854708 
L 220.220296 177.944297 
L 210.782664 177.944297 
z
" style="fill:#1f77b4;opacity:0.5;"/>
   </g>
   <g id="patch_16">
    <path clip-path="url(#p228933515b)" d="M 222.579704 134.854708 
L 232.017336 134.854708 
L 232.017336 175.606474 
L 222.579704 175.606474 
z
" style="fill:#1f77b4;opacity:0.5;"/>
   </g>
   <g id="patch_17">
    <path clip-path="url(#p228933515b)" d="M 234.376744 134.854708 
L 243.814376 134.854708 
L 243.814376 175.510486 
L 234.376744 175.510486 
z
" style="fill:#1f77b4;opacity:0.5;"/>
   </g>
   <g id="patch_18">
    <path clip-path="url(#p228933515b)" d="M 246.173784 134.854708 
L 255.611416 134.854708 
L 255.611416 174.857402 
L 246.173784 174.857402 
z
" style="fill:#1f77b4;opacity:0.5;"/>
   </g>
   <g id="patch_19">
    <path clip-path="url(#p228933515b)" d="M 257.970825 134.854708 
L 267.408457 134.854708 
L 267.408457 161.86771 
L 257.970825 161.86771 
z
" style="fill:#1f77b4;opacity:0.5;"/>
   </g>
   <g id="patch_20">
    <path clip-path="url(#p228933515b)" d="M 269.767865 134.854708 
L 279.205497 134.854708 
L 279.205497 161.306756 
L 269.767865 161.306756 
z
" style="fill:#1f77b4;opacity:0.5;"/>
   </g>
   <g id="patch_21">
    <path clip-path="url(#p228933515b)" d="M 281.564905 134.854708 
L 291.002537 134.854708 
L 291.002537 160.752282 
L 281.564905 160.752282 
z
" style="fill:#1f77b4;opacity:0.5;"/>
   </g>
   <g id="patch_22">
    <path clip-path="url(#p228933515b)" d="M 293.361945 134.854708 
L 302.799577 134.854708 
L 302.799577 115.649308 
L 293.361945 115.649308 
z
" style="fill:#1f77b4;opacity:0.5;"/>
   </g>
   <g id="patch_23">
    <path clip-path="url(#p228933515b)" d="M 305.158985 134.854708 
L 314.596617 134.854708 
L 314.596617 115.330258 
L 305.158985 115.330258 
z
" style="fill:#1f77b4;opacity:0.5;"/>
   </g>
   <g id="patch_24">
    <path clip-path="url(#p228933515b)" d="M 316.956025 134.854708 
L 326.393658 134.854708 
L 326.393658 89.993102 
L 316.956025 89.993102 
z
" style="fill:#1f77b4;opacity:0.5;"/>
   </g>
   <g id="patch_25">
    <path clip-path="url(#p228933515b)" d="M 328.753066 134.854708 
L 338.190698 134.854708 
L 338.190698 76.841767 
L 328.753066 76.841767 
z
" style="fill:#1f77b4;opacity:0.5;"/>
   </g>
   <g id="patch_26">
    <path clip-path="url(#p228933515b)" d="M 340.550106 134.854708 
L 349.987738 134.854708 
L 349.987738 76.662315 
L 340.550106 76.662315 
z
" style="fill:#1f77b4;opacity:0.5;"/>
   </g>
   <g id="patch_27">
    <path clip-path="url(#p228933515b)" d="M 352.347146 134.854708 
L 361.784778 134.854708 
L 361.784778 60.967355 
L 352.347146 60.967355 
z
" style="fill:#1f77b4;opacity:0.5;"/>
   </g>
   <g id="patch_28">
    <path clip-path="url(#p228933515b)" d="M 364.144186 134.854708 
L 373.581818 134.854708 
L 373.581818 57.191798 
L 364.144186 57.191798 
z
" style="fill:#1f77b4;opacity:0.5;"/>
   </g>
   <g id="matplotlib.axis_1">
    <g id="xtick_1">
     <g id="line2d_1">
      <defs>
       <path d="M 0 0 
L 0 3.5 
" id="m1cce29b3f7" style="stroke:#000000;stroke-width:0.8;"/>
      </defs>
      <g>
       <use style="stroke:#000000;stroke-width:0.8;" x="73.936998" xlink:href="#m1cce29b3f7" y="252"/>
      </g>
     </g>
     <g id="text_1">
      <!-- F -->
      <g transform="translate(71.061217 266.598437)scale(0.1 -0.1)">
       <defs>
        <path d="M 628 4666 
L 3309 4666 
L 3309 4134 
L 1259 4134 
L 1259 2759 
L 3109 2759 
L 3109 2228 
L 1259 2228 
L 1259 0 
L 628 0 
L 628 4666 
z
" id="DejaVuSans-46" transform="scale(0.015625)"/>
       </defs>
       <use xlink:href="#DejaVuSans-46"/>
      </g>
     </g>
    </g>
    <g id="xtick_2">
     <g id="line2d_2">
      <g>
       <use style="stroke:#000000;stroke-width:0.8;" x="85.734038" xlink:href="#m1cce29b3f7" y="252"/>
      </g>
     </g>
     <g id="text_2">
      <!-- $\dfrac{\partial l}{\partial x}$ -->
      <g transform="translate(79.534038 271.2)scale(0.1 -0.1)">
       <defs>
        <path d="M 1366 -91 
Q 925 -91 638 175 
Q 297 491 297 1063 
Q 297 1656 597 2119 
Q 906 2594 1463 2594 
Q 1828 2594 2116 2366 
Q 2284 2231 2400 2006 
Q 2441 2259 2441 2547 
Q 2441 2969 2341 3213 
Q 2119 3753 1531 3753 
Q 1309 3753 966 3616 
L 966 4141 
Q 1328 4238 1653 4238 
Q 2491 4238 2847 3469 
Q 3013 3106 3013 2566 
Q 3013 2213 2934 1803 
Q 2738 778 2228 291 
Q 1828 -91 1366 -91 
z
M 831 969 
Q 831 656 969 488 
Q 1116 309 1341 309 
Q 1541 309 1700 450 
Q 1925 644 2091 959 
Q 2228 1219 2297 1497 
Q 2019 2169 1538 2169 
Q 1125 2169 944 1625 
Q 831 1288 831 969 
z
" id="DejaVuSans-2202" transform="scale(0.015625)"/>
        <path d="M 1172 4863 
L 1747 4863 
L 800 0 
L 225 0 
L 1172 4863 
z
" id="DejaVuSans-Oblique-6c" transform="scale(0.015625)"/>
        <path d="M 3841 3500 
L 2234 1784 
L 3219 0 
L 2559 0 
L 1819 1388 
L 531 0 
L -166 0 
L 1556 1844 
L 641 3500 
L 1300 3500 
L 1972 2234 
L 3144 3500 
L 3841 3500 
z
" id="DejaVuSans-Oblique-78" transform="scale(0.015625)"/>
       </defs>
       <use transform="translate(16 46.015625)" xlink:href="#DejaVuSans-2202"/>
       <use transform="translate(67.708984 46.015625)" xlink:href="#DejaVuSans-Oblique-6c"/>
       <use transform="translate(0 -52.875)" xlink:href="#DejaVuSans-2202"/>
       <use transform="translate(51.708984 -52.875)" xlink:href="#DejaVuSans-Oblique-78"/>
       <path d="M 0 19.59375 
L 0 25.84375 
L 110.888672 25.84375 
L 110.888672 19.59375 
L 0 19.59375 
z
"/>
      </g>
     </g>
    </g>
    <g id="xtick_3">
     <g id="line2d_3">
      <g>
       <use style="stroke:#000000;stroke-width:0.8;" x="97.531078" xlink:href="#m1cce29b3f7" y="252"/>
      </g>
     </g>
     <g id="text_3">
      <!-- |F| -->
      <g transform="translate(91.286547 266.642187)scale(0.1 -0.1)">
       <defs>
        <path d="M 1344 4891 
L 1344 -1509 
L 813 -1509 
L 813 4891 
L 1344 4891 
z
" id="DejaVuSans-7c" transform="scale(0.015625)"/>
       </defs>
       <use xlink:href="#DejaVuSans-7c"/>
       <use x="33.691406" xlink:href="#DejaVuSans-46"/>
       <use x="91.210938" xlink:href="#DejaVuSans-7c"/>
      </g>
     </g>
    </g>
    <g id="xtick_4">
     <g id="line2d_4">
      <g>
       <use style="stroke:#000000;stroke-width:0.8;" x="109.328118" xlink:href="#m1cce29b3f7" y="252"/>
      </g>
     </g>
     <g id="text_4">
      <!-- H -->
      <g transform="translate(105.567962 266.598437)scale(0.1 -0.1)">
       <defs>
        <path d="M 628 4666 
L 1259 4666 
L 1259 2753 
L 3553 2753 
L 3553 4666 
L 4184 4666 
L 4184 0 
L 3553 0 
L 3553 2222 
L 1259 2222 
L 1259 0 
L 628 0 
L 628 4666 
z
" id="DejaVuSans-48" transform="scale(0.015625)"/>
       </defs>
       <use xlink:href="#DejaVuSans-48"/>
      </g>
     </g>
    </g>
    <g id="xtick_5">
     <g id="line2d_5">
      <g>
       <use style="stroke:#000000;stroke-width:0.8;" x="121.125159" xlink:href="#m1cce29b3f7" y="252"/>
      </g>
     </g>
     <g id="text_5">
      <!-- |H| -->
      <g transform="translate(113.996252 266.642187)scale(0.1 -0.1)">
       <use xlink:href="#DejaVuSans-7c"/>
       <use x="33.691406" xlink:href="#DejaVuSans-48"/>
       <use x="108.886719" xlink:href="#DejaVuSans-7c"/>
      </g>
     </g>
    </g>
    <g id="xtick_6">
     <g id="line2d_6">
      <g>
       <use style="stroke:#000000;stroke-width:0.8;" x="132.922199" xlink:href="#m1cce29b3f7" y="252"/>
      </g>
     </g>
     <g id="text_6">
      <!-- F+ -->
      <g transform="translate(125.856574 266.598437)scale(0.1 -0.1)">
       <defs>
        <path d="M 2944 4013 
L 2944 2272 
L 4684 2272 
L 4684 1741 
L 2944 1741 
L 2944 0 
L 2419 0 
L 2419 1741 
L 678 1741 
L 678 2272 
L 2419 2272 
L 2419 4013 
L 2944 4013 
z
" id="DejaVuSans-2b" transform="scale(0.015625)"/>
       </defs>
       <use xlink:href="#DejaVuSans-46"/>
       <use x="57.519531" xlink:href="#DejaVuSans-2b"/>
      </g>
     </g>
    </g>
    <g id="xtick_7">
     <g id="line2d_7">
      <g>
       <use style="stroke:#000000;stroke-width:0.8;" x="144.719239" xlink:href="#m1cce29b3f7" y="252"/>
      </g>
     </g>
     <g id="text_7">
      <!-- F- -->
      <g transform="translate(140.039551 266.598437)scale(0.1 -0.1)">
       <defs>
        <path d="M 313 2009 
L 1997 2009 
L 1997 1497 
L 313 1497 
L 313 2009 
z
" id="DejaVuSans-2d" transform="scale(0.015625)"/>
       </defs>
       <use xlink:href="#DejaVuSans-46"/>
       <use x="57.519531" xlink:href="#DejaVuSans-2d"/>
      </g>
     </g>
    </g>
    <g id="xtick_8">
     <g id="line2d_8">
      <g>
       <use style="stroke:#000000;stroke-width:0.8;" x="156.516279" xlink:href="#m1cce29b3f7" y="252"/>
      </g>
     </g>
     <g id="text_8">
      <!-- H- -->
      <g transform="translate(150.952217 266.598437)scale(0.1 -0.1)">
       <use xlink:href="#DejaVuSans-48"/>
       <use x="75.195312" xlink:href="#DejaVuSans-2d"/>
      </g>
     </g>
    </g>
    <g id="xtick_9">
     <g id="line2d_9">
      <g>
       <use style="stroke:#000000;stroke-width:0.8;" x="168.313319" xlink:href="#m1cce29b3f7" y="252"/>
      </g>
     </g>
     <g id="text_9">
      <!-- $\bar{\eta}$ -->
      <g transform="translate(165.113319 266.6)scale(0.1 -0.1)">
       <defs>
        <path d="M -2522 4769 
L -653 4769 
L -653 4306 
L -2522 4306 
L -2522 4769 
z
" id="DejaVuSans-304" transform="scale(0.015625)"/>
        <path d="M 3703 2113 
L 3034 -1331 
L 2459 -1331 
L 3125 2094 
Q 3222 2591 3075 2838 
Q 2931 3084 2544 3084 
Q 2078 3084 1750 2788 
Q 1425 2491 1325 1978 
L 941 0 
L 363 0 
L 1044 3500 
L 1622 3500 
L 1516 2956 
Q 1781 3272 2094 3428 
Q 2403 3584 2769 3584 
Q 3372 3584 3609 3213 
Q 3844 2838 3703 2113 
z
" id="DejaVuSans-Oblique-3b7" transform="scale(0.015625)"/>
       </defs>
       <use transform="translate(64.250977 1.484375)" xlink:href="#DejaVuSans-304"/>
       <use transform="translate(0 0.265625)" xlink:href="#DejaVuSans-Oblique-3b7"/>
      </g>
     </g>
    </g>
    <g id="xtick_10">
     <g id="line2d_10">
      <g>
       <use style="stroke:#000000;stroke-width:0.8;" x="180.110359" xlink:href="#m1cce29b3f7" y="252"/>
      </g>
     </g>
     <g id="text_10">
      <!-- $\eta$ -->
      <g transform="translate(176.910359 266.578125)scale(0.1 -0.1)">
       <use xlink:href="#DejaVuSans-Oblique-3b7"/>
      </g>
     </g>
    </g>
    <g id="xtick_11">
     <g id="line2d_11">
      <g>
       <use style="stroke:#000000;stroke-width:0.8;" x="191.9074" xlink:href="#m1cce29b3f7" y="252"/>
      </g>
     </g>
     <g id="text_11">
      <!-- H+ -->
      <g transform="translate(183.9574 266.598437)scale(0.1 -0.1)">
       <use xlink:href="#DejaVuSans-48"/>
       <use x="75.195312" xlink:href="#DejaVuSans-2b"/>
      </g>
     </g>
    </g>
    <g id="xtick_12">
     <g id="line2d_12">
      <g>
       <use style="stroke:#000000;stroke-width:0.8;" x="203.70444" xlink:href="#m1cce29b3f7" y="252"/>
      </g>
     </g>
     <g id="text_12">
      <!-- $\dfrac{\partial e}{\partial g}$ -->
      <g transform="translate(197.30444 270.2)scale(0.1 -0.1)">
       <defs>
        <path d="M 3078 2063 
Q 3088 2113 3092 2166 
Q 3097 2219 3097 2272 
Q 3097 2653 2873 2875 
Q 2650 3097 2266 3097 
Q 1838 3097 1509 2826 
Q 1181 2556 1013 2059 
L 3078 2063 
z
M 3578 1613 
L 903 1613 
Q 884 1494 878 1425 
Q 872 1356 872 1306 
Q 872 872 1139 634 
Q 1406 397 1894 397 
Q 2269 397 2603 481 
Q 2938 566 3225 728 
L 3116 159 
Q 2806 34 2476 -28 
Q 2147 -91 1806 -91 
Q 1078 -91 686 257 
Q 294 606 294 1247 
Q 294 1794 489 2264 
Q 684 2734 1063 3103 
Q 1306 3334 1642 3459 
Q 1978 3584 2356 3584 
Q 2950 3584 3301 3228 
Q 3653 2872 3653 2272 
Q 3653 2128 3634 1964 
Q 3616 1800 3578 1613 
z
" id="DejaVuSans-Oblique-65" transform="scale(0.015625)"/>
        <path d="M 3816 3500 
L 3219 434 
Q 3047 -456 2561 -893 
Q 2075 -1331 1253 -1331 
Q 950 -1331 690 -1286 
Q 431 -1241 206 -1147 
L 313 -588 
Q 525 -725 762 -790 
Q 1000 -856 1269 -856 
Q 1816 -856 2167 -557 
Q 2519 -259 2631 300 
L 2681 563 
Q 2441 288 2122 144 
Q 1803 0 1434 0 
Q 903 0 598 351 
Q 294 703 294 1319 
Q 294 1803 478 2267 
Q 663 2731 997 3091 
Q 1219 3328 1514 3456 
Q 1809 3584 2131 3584 
Q 2484 3584 2746 3420 
Q 3009 3256 3138 2956 
L 3238 3500 
L 3816 3500 
z
M 2950 2216 
Q 2950 2641 2750 2872 
Q 2550 3103 2181 3103 
Q 1953 3103 1747 3012 
Q 1541 2922 1394 2759 
Q 1156 2491 1023 2127 
Q 891 1763 891 1375 
Q 891 944 1092 712 
Q 1294 481 1672 481 
Q 2219 481 2584 976 
Q 2950 1472 2950 2216 
z
" id="DejaVuSans-Oblique-67" transform="scale(0.015625)"/>
       </defs>
       <use transform="translate(1 45.78125)" xlink:href="#DejaVuSans-2202"/>
       <use transform="translate(52.708984 45.78125)" xlink:href="#DejaVuSans-Oblique-65"/>
       <use transform="translate(0 -53.109375)" xlink:href="#DejaVuSans-2202"/>
       <use transform="translate(51.708984 -53.109375)" xlink:href="#DejaVuSans-Oblique-67"/>
       <path d="M 0 19.359375 
L 0 25.609375 
L 115.185547 25.609375 
L 115.185547 19.359375 
L 0 19.359375 
z
"/>
      </g>
     </g>
    </g>
    <g id="xtick_13">
     <g id="line2d_13">
      <g>
       <use style="stroke:#000000;stroke-width:0.8;" x="215.50148" xlink:href="#m1cce29b3f7" y="252"/>
      </g>
     </g>
     <g id="text_13">
      <!-- $\tilde{\beta}$ -->
      <g transform="translate(212.30148 269.3)scale(0.1 -0.1)">
       <defs>
        <path d="M -1619 4281 
L -1797 4453 
Q -1866 4516 -1917 4545 
Q -1969 4575 -2009 4575 
Q -2128 4575 -2184 4461 
Q -2241 4347 -2247 4091 
L -2638 4091 
Q -2631 4513 -2472 4742 
Q -2313 4972 -2028 4972 
Q -1909 4972 -1809 4928 
Q -1709 4884 -1594 4781 
L -1416 4609 
Q -1347 4547 -1295 4517 
Q -1244 4488 -1203 4488 
Q -1084 4488 -1028 4602 
Q -972 4716 -966 4972 
L -575 4972 
Q -581 4550 -740 4320 
Q -900 4091 -1184 4091 
Q -1303 4091 -1403 4134 
Q -1503 4178 -1619 4281 
z
" id="DejaVuSans-303" transform="scale(0.015625)"/>
        <path d="M 872 216 
L 572 -1331 
L -6 -1331 
L 928 3478 
Q 1206 4903 2538 4903 
Q 3888 4903 3659 3700 
Q 3503 2844 2894 2531 
Q 3713 2250 3553 1416 
Q 3272 -69 1759 -66 
Q 1097 -63 872 216 
z
M 1019 966 
Q 1259 422 1875 425 
Q 2775 425 2966 1406 
Q 3138 2288 1675 2219 
L 1778 2750 
Q 2909 2731 3106 3750 
Q 3241 4438 2509 4434 
Q 1691 4434 1503 3459 
L 1019 966 
z
" id="DejaVuSans-Oblique-3b2" transform="scale(0.015625)"/>
       </defs>
       <use transform="translate(65.17334 25.3125)" xlink:href="#DejaVuSans-303"/>
       <use transform="translate(0 0.125)" xlink:href="#DejaVuSans-Oblique-3b2"/>
      </g>
     </g>
    </g>
    <g id="xtick_14">
     <g id="line2d_14">
      <g>
       <use style="stroke:#000000;stroke-width:0.8;" x="227.29852" xlink:href="#m1cce29b3f7" y="252"/>
      </g>
     </g>
     <g id="text_14">
      <!-- $\sigma$ -->
      <g transform="translate(224.09852 266.598437)scale(0.1 -0.1)">
       <defs>
        <path d="M 2219 3044 
Q 1744 3044 1422 2700 
Q 1081 2341 969 1747 
Q 844 1119 1044 756 
Q 1241 397 1706 397 
Q 2166 397 2503 759 
Q 2844 1122 2966 1747 
Q 3075 2319 2881 2700 
Q 2700 3044 2219 3044 
z
M 2309 3503 
L 4219 3500 
L 4106 2925 
L 3463 2925 
Q 3706 2438 3575 1747 
Q 3406 888 2884 400 
Q 2359 -91 1609 -91 
Q 856 -91 525 400 
Q 194 888 363 1747 
Q 528 2609 1050 3097 
Q 1484 3503 2309 3503 
z
" id="DejaVuSans-Oblique-3c3" transform="scale(0.015625)"/>
       </defs>
       <use transform="translate(0 0.265625)" xlink:href="#DejaVuSans-Oblique-3c3"/>
      </g>
     </g>
    </g>
    <g id="xtick_15">
     <g id="line2d_15">
      <g>
       <use style="stroke:#000000;stroke-width:0.8;" x="239.09556" xlink:href="#m1cce29b3f7" y="252"/>
      </g>
     </g>
     <g id="text_15">
      <!-- $\lambda$ -->
      <g transform="translate(236.09556 266.598437)scale(0.1 -0.1)">
       <defs>
        <path d="M 2350 4316 
L 3125 0 
L 2516 0 
L 2038 2588 
L 328 0 
L -281 0 
L 1903 3356 
L 1794 3975 
Q 1725 4369 1391 4369 
L 1091 4369 
L 1184 4863 
L 1550 4856 
Q 2253 4847 2350 4316 
z
" id="DejaVuSans-Oblique-3bb" transform="scale(0.015625)"/>
       </defs>
       <use transform="translate(0 0.015625)" xlink:href="#DejaVuSans-Oblique-3bb"/>
      </g>
     </g>
    </g>
    <g id="xtick_16">
     <g id="line2d_16">
      <g>
       <use style="stroke:#000000;stroke-width:0.8;" x="250.8926" xlink:href="#m1cce29b3f7" y="252"/>
      </g>
     </g>
     <g id="text_16">
      <!-- $\dfrac{\partial b}{\partial e}$ -->
      <g transform="translate(244.4926 271.2)scale(0.1 -0.1)">
       <defs>
        <path d="M 3169 2138 
Q 3169 2591 2961 2847 
Q 2753 3103 2388 3103 
Q 2122 3103 1889 2973 
Q 1656 2844 1484 2597 
Q 1303 2338 1198 1995 
Q 1094 1653 1094 1313 
Q 1094 881 1298 636 
Q 1503 391 1863 391 
Q 2134 391 2365 517 
Q 2597 644 2772 891 
Q 2950 1147 3059 1487 
Q 3169 1828 3169 2138 
z
M 1381 2969 
Q 1594 3256 1914 3420 
Q 2234 3584 2584 3584 
Q 3122 3584 3439 3221 
Q 3756 2859 3756 2241 
Q 3756 1734 3570 1259 
Q 3384 784 3041 416 
Q 2816 172 2522 40 
Q 2228 -91 1906 -91 
Q 1566 -91 1316 65 
Q 1066 222 909 531 
L 806 0 
L 231 0 
L 1178 4863 
L 1753 4863 
L 1381 2969 
z
" id="DejaVuSans-Oblique-62" transform="scale(0.015625)"/>
       </defs>
       <use transform="translate(0 46.015625)" xlink:href="#DejaVuSans-2202"/>
       <use transform="translate(51.708984 46.015625)" xlink:href="#DejaVuSans-Oblique-62"/>
       <use transform="translate(1 -52.875)" xlink:href="#DejaVuSans-2202"/>
       <use transform="translate(52.708984 -52.875)" xlink:href="#DejaVuSans-Oblique-65"/>
       <path d="M 0 19.59375 
L 0 25.84375 
L 115.185547 25.84375 
L 115.185547 19.59375 
L 0 19.59375 
z
"/>
      </g>
     </g>
    </g>
    <g id="xtick_17">
     <g id="line2d_17">
      <g>
       <use style="stroke:#000000;stroke-width:0.8;" x="262.689641" xlink:href="#m1cce29b3f7" y="252"/>
      </g>
     </g>
     <g id="text_17">
      <!-- |W| -->
      <g transform="translate(254.377141 266.642187)scale(0.1 -0.1)">
       <defs>
        <path d="M 213 4666 
L 850 4666 
L 1831 722 
L 2809 4666 
L 3519 4666 
L 4500 722 
L 5478 4666 
L 6119 4666 
L 4947 0 
L 4153 0 
L 3169 4050 
L 2175 0 
L 1381 0 
L 213 4666 
z
" id="DejaVuSans-57" transform="scale(0.015625)"/>
       </defs>
       <use xlink:href="#DejaVuSans-7c"/>
       <use x="33.691406" xlink:href="#DejaVuSans-57"/>
       <use x="132.568359" xlink:href="#DejaVuSans-7c"/>
      </g>
     </g>
    </g>
    <g id="xtick_18">
     <g id="line2d_18">
      <g>
       <use style="stroke:#000000;stroke-width:0.8;" x="274.486681" xlink:href="#m1cce29b3f7" y="252"/>
      </g>
     </g>
     <g id="text_18">
      <!-- W -->
      <g transform="translate(269.542931 266.598437)scale(0.1 -0.1)">
       <use xlink:href="#DejaVuSans-57"/>
      </g>
     </g>
    </g>
    <g id="xtick_19">
     <g id="line2d_19">
      <g>
       <use style="stroke:#000000;stroke-width:0.8;" x="286.283721" xlink:href="#m1cce29b3f7" y="252"/>
      </g>
     </g>
     <g id="text_19">
      <!-- W+ -->
      <g transform="translate(277.150127 266.598437)scale(0.1 -0.1)">
       <use xlink:href="#DejaVuSans-57"/>
       <use x="98.876953" xlink:href="#DejaVuSans-2b"/>
      </g>
     </g>
    </g>
    <g id="xtick_20">
     <g id="line2d_20">
      <g>
       <use style="stroke:#000000;stroke-width:0.8;" x="298.080761" xlink:href="#m1cce29b3f7" y="252"/>
      </g>
     </g>
     <g id="text_20">
      <!-- $\dfrac{\partial c}{\partial W_p}$ -->
      <g transform="translate(287.530761 270.2)scale(0.1 -0.1)">
       <defs>
        <path d="M 3431 3366 
L 3316 2797 
Q 3109 2947 2876 3022 
Q 2644 3097 2394 3097 
Q 2119 3097 1870 3000 
Q 1622 2903 1453 2725 
Q 1184 2453 1037 2087 
Q 891 1722 891 1331 
Q 891 859 1127 628 
Q 1363 397 1844 397 
Q 2081 397 2348 469 
Q 2616 541 2906 684 
L 2797 116 
Q 2547 13 2283 -39 
Q 2019 -91 1741 -91 
Q 1044 -91 669 257 
Q 294 606 294 1253 
Q 294 1797 489 2255 
Q 684 2713 1069 3078 
Q 1331 3328 1684 3456 
Q 2038 3584 2456 3584 
Q 2700 3584 2940 3529 
Q 3181 3475 3431 3366 
z
" id="DejaVuSans-Oblique-63" transform="scale(0.015625)"/>
        <path d="M 616 4666 
L 1228 4666 
L 1453 697 
L 3213 4666 
L 3916 4666 
L 4147 697 
L 5888 4666 
L 6528 4666 
L 4453 0 
L 3659 0 
L 3444 3891 
L 1697 0 
L 903 0 
L 616 4666 
z
" id="DejaVuSans-Oblique-57" transform="scale(0.015625)"/>
        <path d="M 3175 2156 
Q 3175 2616 2975 2859 
Q 2775 3103 2400 3103 
Q 2144 3103 1911 2972 
Q 1678 2841 1497 2591 
Q 1319 2344 1212 1994 
Q 1106 1644 1106 1300 
Q 1106 863 1306 627 
Q 1506 391 1875 391 
Q 2147 391 2380 519 
Q 2613 647 2778 891 
Q 2956 1147 3065 1494 
Q 3175 1841 3175 2156 
z
M 1394 2969 
Q 1625 3272 1939 3428 
Q 2253 3584 2638 3584 
Q 3175 3584 3472 3232 
Q 3769 2881 3769 2247 
Q 3769 1728 3584 1258 
Q 3400 788 3053 416 
Q 2822 169 2531 39 
Q 2241 -91 1919 -91 
Q 1547 -91 1294 64 
Q 1041 219 916 525 
L 556 -1331 
L -19 -1331 
L 922 3500 
L 1497 3500 
L 1394 2969 
z
" id="DejaVuSans-Oblique-70" transform="scale(0.015625)"/>
       </defs>
       <use transform="translate(46 45.78125)" xlink:href="#DejaVuSans-2202"/>
       <use transform="translate(97.708984 45.78125)" xlink:href="#DejaVuSans-Oblique-63"/>
       <use transform="translate(0 -59.796875)" xlink:href="#DejaVuSans-2202"/>
       <use transform="translate(51.708984 -59.796875)" xlink:href="#DejaVuSans-Oblique-57"/>
       <use transform="translate(150.585938 -76.203125)scale(0.7)" xlink:href="#DejaVuSans-Oblique-70"/>
       <path d="M 0 19.359375 
L 0 25.609375 
L 197.753906 25.609375 
L 197.753906 19.359375 
L 0 19.359375 
z
"/>
      </g>
     </g>
    </g>
    <g id="xtick_21">
     <g id="line2d_21">
      <g>
       <use style="stroke:#000000;stroke-width:0.8;" x="309.877801" xlink:href="#m1cce29b3f7" y="252"/>
      </g>
     </g>
     <g id="text_21">
      <!-- $\beta$ -->
      <g transform="translate(306.677801 266.7)scale(0.1 -0.1)">
       <use transform="translate(0 0.390625)" xlink:href="#DejaVuSans-Oblique-3b2"/>
      </g>
     </g>
    </g>
    <g id="xtick_22">
     <g id="line2d_22">
      <g>
       <use style="stroke:#000000;stroke-width:0.8;" x="321.674841" xlink:href="#m1cce29b3f7" y="252"/>
      </g>
     </g>
     <g id="text_22">
      <!-- $\overline{\beta}$ -->
      <g transform="translate(318.474841 269.2)scale(0.1 -0.1)">
       <use transform="translate(0 1.140625)" xlink:href="#DejaVuSans-Oblique-3b2"/>
       <path d="M 0 89.5 
L 0 95.75 
L 63.818359 95.75 
L 63.818359 89.5 
L 0 89.5 
z
"/>
      </g>
     </g>
    </g>
    <g id="xtick_23">
     <g id="line2d_23">
      <g>
       <use style="stroke:#000000;stroke-width:0.8;" x="333.471882" xlink:href="#m1cce29b3f7" y="252"/>
      </g>
     </g>
     <g id="text_23">
      <!-- K+ -->
      <g transform="translate(326.003132 266.598437)scale(0.1 -0.1)">
       <defs>
        <path d="M 628 4666 
L 1259 4666 
L 1259 2694 
L 3353 4666 
L 4166 4666 
L 1850 2491 
L 4331 0 
L 3500 0 
L 1259 2247 
L 1259 0 
L 628 0 
L 628 4666 
z
" id="DejaVuSans-4b" transform="scale(0.015625)"/>
       </defs>
       <use xlink:href="#DejaVuSans-4b"/>
       <use x="65.576172" xlink:href="#DejaVuSans-2b"/>
      </g>
     </g>
    </g>
    <g id="xtick_24">
     <g id="line2d_24">
      <g>
       <use style="stroke:#000000;stroke-width:0.8;" x="345.268922" xlink:href="#m1cce29b3f7" y="252"/>
      </g>
     </g>
     <g id="text_24">
      <!-- K- -->
      <g transform="translate(340.711109 266.598437)scale(0.1 -0.1)">
       <use xlink:href="#DejaVuSans-4b"/>
       <use x="55.076172" xlink:href="#DejaVuSans-2d"/>
      </g>
     </g>
    </g>
    <g id="xtick_25">
     <g id="line2d_25">
      <g>
       <use style="stroke:#000000;stroke-width:0.8;" x="357.065962" xlink:href="#m1cce29b3f7" y="252"/>
      </g>
     </g>
     <g id="text_25">
      <!-- K -->
      <g transform="translate(353.787056 266.598437)scale(0.1 -0.1)">
       <use xlink:href="#DejaVuSans-4b"/>
      </g>
     </g>
    </g>
    <g id="xtick_26">
     <g id="line2d_26">
      <g>
       <use style="stroke:#000000;stroke-width:0.8;" x="368.863002" xlink:href="#m1cce29b3f7" y="252"/>
      </g>
     </g>
     <g id="text_26">
      <!-- |K| -->
      <g transform="translate(362.215346 266.642187)scale(0.1 -0.1)">
       <use xlink:href="#DejaVuSans-7c"/>
       <use x="33.691406" xlink:href="#DejaVuSans-4b"/>
       <use x="99.267578" xlink:href="#DejaVuSans-7c"/>
      </g>
     </g>
    </g>
   </g>
   <g id="matplotlib.axis_2">
    <g id="ytick_1">
     <g id="line2d_27">
      <defs>
       <path d="M 0 0 
L -3.5 0 
" id="m97923e8988" style="stroke:#000000;stroke-width:0.8;"/>
      </defs>
      <g>
       <use style="stroke:#000000;stroke-width:0.8;" x="54" xlink:href="#m97923e8988" y="231.919512"/>
      </g>
     </g>
     <g id="text_27">
      <!-- −0.08 -->
      <g transform="translate(16.354687 235.718731)scale(0.1 -0.1)">
       <defs>
        <path d="M 678 2272 
L 4684 2272 
L 4684 1741 
L 678 1741 
L 678 2272 
z
" id="DejaVuSans-2212" transform="scale(0.015625)"/>
        <path d="M 2034 4250 
Q 1547 4250 1301 3770 
Q 1056 3291 1056 2328 
Q 1056 1369 1301 889 
Q 1547 409 2034 409 
Q 2525 409 2770 889 
Q 3016 1369 3016 2328 
Q 3016 3291 2770 3770 
Q 2525 4250 2034 4250 
z
M 2034 4750 
Q 2819 4750 3233 4129 
Q 3647 3509 3647 2328 
Q 3647 1150 3233 529 
Q 2819 -91 2034 -91 
Q 1250 -91 836 529 
Q 422 1150 422 2328 
Q 422 3509 836 4129 
Q 1250 4750 2034 4750 
z
" id="DejaVuSans-30" transform="scale(0.015625)"/>
        <path d="M 684 794 
L 1344 794 
L 1344 0 
L 684 0 
L 684 794 
z
" id="DejaVuSans-2e" transform="scale(0.015625)"/>
        <path d="M 2034 2216 
Q 1584 2216 1326 1975 
Q 1069 1734 1069 1313 
Q 1069 891 1326 650 
Q 1584 409 2034 409 
Q 2484 409 2743 651 
Q 3003 894 3003 1313 
Q 3003 1734 2745 1975 
Q 2488 2216 2034 2216 
z
M 1403 2484 
Q 997 2584 770 2862 
Q 544 3141 544 3541 
Q 544 4100 942 4425 
Q 1341 4750 2034 4750 
Q 2731 4750 3128 4425 
Q 3525 4100 3525 3541 
Q 3525 3141 3298 2862 
Q 3072 2584 2669 2484 
Q 3125 2378 3379 2068 
Q 3634 1759 3634 1313 
Q 3634 634 3220 271 
Q 2806 -91 2034 -91 
Q 1263 -91 848 271 
Q 434 634 434 1313 
Q 434 1759 690 2068 
Q 947 2378 1403 2484 
z
M 1172 3481 
Q 1172 3119 1398 2916 
Q 1625 2713 2034 2713 
Q 2441 2713 2670 2916 
Q 2900 3119 2900 3481 
Q 2900 3844 2670 4047 
Q 2441 4250 2034 4250 
Q 1625 4250 1398 4047 
Q 1172 3844 1172 3481 
z
" id="DejaVuSans-38" transform="scale(0.015625)"/>
       </defs>
       <use xlink:href="#DejaVuSans-2212"/>
       <use x="83.789062" xlink:href="#DejaVuSans-30"/>
       <use x="147.412109" xlink:href="#DejaVuSans-2e"/>
       <use x="179.199219" xlink:href="#DejaVuSans-30"/>
       <use x="242.822266" xlink:href="#DejaVuSans-38"/>
      </g>
     </g>
    </g>
    <g id="ytick_2">
     <g id="line2d_28">
      <g>
       <use style="stroke:#000000;stroke-width:0.8;" x="54" xlink:href="#m97923e8988" y="207.653311"/>
      </g>
     </g>
     <g id="text_28">
      <!-- −0.06 -->
      <g transform="translate(16.354687 211.45253)scale(0.1 -0.1)">
       <defs>
        <path d="M 2113 2584 
Q 1688 2584 1439 2293 
Q 1191 2003 1191 1497 
Q 1191 994 1439 701 
Q 1688 409 2113 409 
Q 2538 409 2786 701 
Q 3034 994 3034 1497 
Q 3034 2003 2786 2293 
Q 2538 2584 2113 2584 
z
M 3366 4563 
L 3366 3988 
Q 3128 4100 2886 4159 
Q 2644 4219 2406 4219 
Q 1781 4219 1451 3797 
Q 1122 3375 1075 2522 
Q 1259 2794 1537 2939 
Q 1816 3084 2150 3084 
Q 2853 3084 3261 2657 
Q 3669 2231 3669 1497 
Q 3669 778 3244 343 
Q 2819 -91 2113 -91 
Q 1303 -91 875 529 
Q 447 1150 447 2328 
Q 447 3434 972 4092 
Q 1497 4750 2381 4750 
Q 2619 4750 2861 4703 
Q 3103 4656 3366 4563 
z
" id="DejaVuSans-36" transform="scale(0.015625)"/>
       </defs>
       <use xlink:href="#DejaVuSans-2212"/>
       <use x="83.789062" xlink:href="#DejaVuSans-30"/>
       <use x="147.412109" xlink:href="#DejaVuSans-2e"/>
       <use x="179.199219" xlink:href="#DejaVuSans-30"/>
       <use x="242.822266" xlink:href="#DejaVuSans-36"/>
      </g>
     </g>
    </g>
    <g id="ytick_3">
     <g id="line2d_29">
      <g>
       <use style="stroke:#000000;stroke-width:0.8;" x="54" xlink:href="#m97923e8988" y="183.38711"/>
      </g>
     </g>
     <g id="text_29">
      <!-- −0.04 -->
      <g transform="translate(16.354687 187.186329)scale(0.1 -0.1)">
       <defs>
        <path d="M 2419 4116 
L 825 1625 
L 2419 1625 
L 2419 4116 
z
M 2253 4666 
L 3047 4666 
L 3047 1625 
L 3713 1625 
L 3713 1100 
L 3047 1100 
L 3047 0 
L 2419 0 
L 2419 1100 
L 313 1100 
L 313 1709 
L 2253 4666 
z
" id="DejaVuSans-34" transform="scale(0.015625)"/>
       </defs>
       <use xlink:href="#DejaVuSans-2212"/>
       <use x="83.789062" xlink:href="#DejaVuSans-30"/>
       <use x="147.412109" xlink:href="#DejaVuSans-2e"/>
       <use x="179.199219" xlink:href="#DejaVuSans-30"/>
       <use x="242.822266" xlink:href="#DejaVuSans-34"/>
      </g>
     </g>
    </g>
    <g id="ytick_4">
     <g id="line2d_30">
      <g>
       <use style="stroke:#000000;stroke-width:0.8;" x="54" xlink:href="#m97923e8988" y="159.120909"/>
      </g>
     </g>
     <g id="text_30">
      <!-- −0.02 -->
      <g transform="translate(16.354687 162.920128)scale(0.1 -0.1)">
       <defs>
        <path d="M 1228 531 
L 3431 531 
L 3431 0 
L 469 0 
L 469 531 
Q 828 903 1448 1529 
Q 2069 2156 2228 2338 
Q 2531 2678 2651 2914 
Q 2772 3150 2772 3378 
Q 2772 3750 2511 3984 
Q 2250 4219 1831 4219 
Q 1534 4219 1204 4116 
Q 875 4013 500 3803 
L 500 4441 
Q 881 4594 1212 4672 
Q 1544 4750 1819 4750 
Q 2544 4750 2975 4387 
Q 3406 4025 3406 3419 
Q 3406 3131 3298 2873 
Q 3191 2616 2906 2266 
Q 2828 2175 2409 1742 
Q 1991 1309 1228 531 
z
" id="DejaVuSans-32" transform="scale(0.015625)"/>
       </defs>
       <use xlink:href="#DejaVuSans-2212"/>
       <use x="83.789062" xlink:href="#DejaVuSans-30"/>
       <use x="147.412109" xlink:href="#DejaVuSans-2e"/>
       <use x="179.199219" xlink:href="#DejaVuSans-30"/>
       <use x="242.822266" xlink:href="#DejaVuSans-32"/>
      </g>
     </g>
    </g>
    <g id="ytick_5">
     <g id="line2d_31">
      <g>
       <use style="stroke:#000000;stroke-width:0.8;" x="54" xlink:href="#m97923e8988" y="134.854708"/>
      </g>
     </g>
     <g id="text_31">
      <!-- 0.00 -->
      <g transform="translate(24.734375 138.653927)scale(0.1 -0.1)">
       <use xlink:href="#DejaVuSans-30"/>
       <use x="63.623047" xlink:href="#DejaVuSans-2e"/>
       <use x="95.410156" xlink:href="#DejaVuSans-30"/>
       <use x="159.033203" xlink:href="#DejaVuSans-30"/>
      </g>
     </g>
    </g>
    <g id="ytick_6">
     <g id="line2d_32">
      <g>
       <use style="stroke:#000000;stroke-width:0.8;" x="54" xlink:href="#m97923e8988" y="110.588508"/>
      </g>
     </g>
     <g id="text_32">
      <!-- 0.02 -->
      <g transform="translate(24.734375 114.387726)scale(0.1 -0.1)">
       <use xlink:href="#DejaVuSans-30"/>
       <use x="63.623047" xlink:href="#DejaVuSans-2e"/>
       <use x="95.410156" xlink:href="#DejaVuSans-30"/>
       <use x="159.033203" xlink:href="#DejaVuSans-32"/>
      </g>
     </g>
    </g>
    <g id="ytick_7">
     <g id="line2d_33">
      <g>
       <use style="stroke:#000000;stroke-width:0.8;" x="54" xlink:href="#m97923e8988" y="86.322307"/>
      </g>
     </g>
     <g id="text_33">
      <!-- 0.04 -->
      <g transform="translate(24.734375 90.121525)scale(0.1 -0.1)">
       <use xlink:href="#DejaVuSans-30"/>
       <use x="63.623047" xlink:href="#DejaVuSans-2e"/>
       <use x="95.410156" xlink:href="#DejaVuSans-30"/>
       <use x="159.033203" xlink:href="#DejaVuSans-34"/>
      </g>
     </g>
    </g>
    <g id="ytick_8">
     <g id="line2d_34">
      <g>
       <use style="stroke:#000000;stroke-width:0.8;" x="54" xlink:href="#m97923e8988" y="62.056106"/>
      </g>
     </g>
     <g id="text_34">
      <!-- 0.06 -->
      <g transform="translate(24.734375 65.855324)scale(0.1 -0.1)">
       <use xlink:href="#DejaVuSans-30"/>
       <use x="63.623047" xlink:href="#DejaVuSans-2e"/>
       <use x="95.410156" xlink:href="#DejaVuSans-30"/>
       <use x="159.033203" xlink:href="#DejaVuSans-36"/>
      </g>
     </g>
    </g>
    <g id="ytick_9">
     <g id="line2d_35">
      <g>
       <use style="stroke:#000000;stroke-width:0.8;" x="54" xlink:href="#m97923e8988" y="37.789905"/>
      </g>
     </g>
     <g id="text_35">
      <!-- 0.08 -->
      <g transform="translate(24.734375 41.589123)scale(0.1 -0.1)">
       <use xlink:href="#DejaVuSans-30"/>
       <use x="63.623047" xlink:href="#DejaVuSans-2e"/>
       <use x="95.410156" xlink:href="#DejaVuSans-30"/>
       <use x="159.033203" xlink:href="#DejaVuSans-38"/>
      </g>
     </g>
    </g>
   </g>
   <g id="LineCollection_1">
    <path clip-path="url(#p228933515b)" d="M 73.936998 242.116364 
L 73.936998 217.385026 
" style="fill:none;stroke:#000000;stroke-width:1.5;"/>
    <path clip-path="url(#p228933515b)" d="M 85.734038 238.948793 
L 85.734038 208.175428 
" style="fill:none;stroke:#000000;stroke-width:1.5;"/>
    <path clip-path="url(#p228933515b)" d="M 97.531078 237.183395 
L 97.531078 208.9619 
" style="fill:none;stroke:#000000;stroke-width:1.5;"/>
    <path clip-path="url(#p228933515b)" d="M 109.328118 230.036109 
L 109.328118 202.502976 
" style="fill:none;stroke:#000000;stroke-width:1.5;"/>
    <path clip-path="url(#p228933515b)" d="M 121.125159 228.29543 
L 121.125159 201.849213 
" style="fill:none;stroke:#000000;stroke-width:1.5;"/>
    <path clip-path="url(#p228933515b)" d="M 132.922199 222.325599 
L 132.922199 197.166778 
" style="fill:none;stroke:#000000;stroke-width:1.5;"/>
    <path clip-path="url(#p228933515b)" d="M 144.719239 218.880516 
L 144.719239 194.690621 
" style="fill:none;stroke:#000000;stroke-width:1.5;"/>
    <path clip-path="url(#p228933515b)" d="M 156.516279 214.324116 
L 156.516279 187.101393 
" style="fill:none;stroke:#000000;stroke-width:1.5;"/>
    <path clip-path="url(#p228933515b)" d="M 168.313319 201.013041 
L 168.313319 179.069376 
" style="fill:none;stroke:#000000;stroke-width:1.5;"/>
    <path clip-path="url(#p228933515b)" d="M 180.110359 203.625587 
L 180.110359 174.832832 
" style="fill:none;stroke:#000000;stroke-width:1.5;"/>
    <path clip-path="url(#p228933515b)" d="M 191.9074 196.328271 
L 191.9074 170.046787 
" style="fill:none;stroke:#000000;stroke-width:1.5;"/>
    <path clip-path="url(#p228933515b)" d="M 203.70444 195.964937 
L 203.70444 166.917754 
" style="fill:none;stroke:#000000;stroke-width:1.5;"/>
    <path clip-path="url(#p228933515b)" d="M 215.50148 191.903624 
L 215.50148 163.480028 
" style="fill:none;stroke:#000000;stroke-width:1.5;"/>
    <path clip-path="url(#p228933515b)" d="M 227.29852 191.694805 
L 227.29852 163.178433 
" style="fill:none;stroke:#000000;stroke-width:1.5;"/>
    <path clip-path="url(#p228933515b)" d="M 239.09556 194.240535 
L 239.09556 161.954688 
" style="fill:none;stroke:#000000;stroke-width:1.5;"/>
    <path clip-path="url(#p228933515b)" d="M 250.8926 190.130506 
L 250.8926 162.882716 
" style="fill:none;stroke:#000000;stroke-width:1.5;"/>
    <path clip-path="url(#p228933515b)" d="M 262.689641 176.218899 
L 262.689641 150.489297 
" style="fill:none;stroke:#000000;stroke-width:1.5;"/>
    <path clip-path="url(#p228933515b)" d="M 274.486681 174.545333 
L 274.486681 145.392492 
" style="fill:none;stroke:#000000;stroke-width:1.5;"/>
    <path clip-path="url(#p228933515b)" d="M 286.283721 172.949486 
L 286.283721 147.568685 
" style="fill:none;stroke:#000000;stroke-width:1.5;"/>
    <path clip-path="url(#p228933515b)" d="M 298.080761 127.534774 
L 298.080761 100.099423 
" style="fill:none;stroke:#000000;stroke-width:1.5;"/>
    <path clip-path="url(#p228933515b)" d="M 309.877801 127.81402 
L 309.877801 103.288888 
" style="fill:none;stroke:#000000;stroke-width:1.5;"/>
    <path clip-path="url(#p228933515b)" d="M 321.674841 102.950182 
L 321.674841 73.402835 
" style="fill:none;stroke:#000000;stroke-width:1.5;"/>
    <path clip-path="url(#p228933515b)" d="M 333.471882 91.260574 
L 333.471882 64.381832 
" style="fill:none;stroke:#000000;stroke-width:1.5;"/>
    <path clip-path="url(#p228933515b)" d="M 345.268922 92.599867 
L 345.268922 59.375456 
" style="fill:none;stroke:#000000;stroke-width:1.5;"/>
    <path clip-path="url(#p228933515b)" d="M 357.065962 75.445431 
L 357.065962 46.413732 
" style="fill:none;stroke:#000000;stroke-width:1.5;"/>
    <path clip-path="url(#p228933515b)" d="M 368.863002 71.003342 
L 368.863002 44.443636 
" style="fill:none;stroke:#000000;stroke-width:1.5;"/>
   </g>
   <g id="patch_29">
    <path d="M 54 252 
L 54 34.56 
" style="fill:none;stroke:#000000;stroke-linecap:square;stroke-linejoin:miter;stroke-width:0.8;"/>
   </g>
   <g id="patch_30">
    <path d="M 388.8 252 
L 388.8 34.56 
" style="fill:none;stroke:#000000;stroke-linecap:square;stroke-linejoin:miter;stroke-width:0.8;"/>
   </g>
   <g id="patch_31">
    <path d="M 54 252 
L 388.8 252 
" style="fill:none;stroke:#000000;stroke-linecap:square;stroke-linejoin:miter;stroke-width:0.8;"/>
   </g>
   <g id="patch_32">
    <path d="M 54 34.56 
L 388.8 34.56 
" style="fill:none;stroke:#000000;stroke-linecap:square;stroke-linejoin:miter;stroke-width:0.8;"/>
   </g>
   <g id="text_36">
    <!-- Correlation of standard deviation in parameters with stability -->
    <g transform="translate(37.815938 28.56)scale(0.12 -0.12)">
     <defs>
      <path d="M 4122 4306 
L 4122 3641 
Q 3803 3938 3442 4084 
Q 3081 4231 2675 4231 
Q 1875 4231 1450 3742 
Q 1025 3253 1025 2328 
Q 1025 1406 1450 917 
Q 1875 428 2675 428 
Q 3081 428 3442 575 
Q 3803 722 4122 1019 
L 4122 359 
Q 3791 134 3420 21 
Q 3050 -91 2638 -91 
Q 1578 -91 968 557 
Q 359 1206 359 2328 
Q 359 3453 968 4101 
Q 1578 4750 2638 4750 
Q 3056 4750 3426 4639 
Q 3797 4528 4122 4306 
z
" id="DejaVuSans-43" transform="scale(0.015625)"/>
      <path d="M 1959 3097 
Q 1497 3097 1228 2736 
Q 959 2375 959 1747 
Q 959 1119 1226 758 
Q 1494 397 1959 397 
Q 2419 397 2687 759 
Q 2956 1122 2956 1747 
Q 2956 2369 2687 2733 
Q 2419 3097 1959 3097 
z
M 1959 3584 
Q 2709 3584 3137 3096 
Q 3566 2609 3566 1747 
Q 3566 888 3137 398 
Q 2709 -91 1959 -91 
Q 1206 -91 779 398 
Q 353 888 353 1747 
Q 353 2609 779 3096 
Q 1206 3584 1959 3584 
z
" id="DejaVuSans-6f" transform="scale(0.015625)"/>
      <path d="M 2631 2963 
Q 2534 3019 2420 3045 
Q 2306 3072 2169 3072 
Q 1681 3072 1420 2755 
Q 1159 2438 1159 1844 
L 1159 0 
L 581 0 
L 581 3500 
L 1159 3500 
L 1159 2956 
Q 1341 3275 1631 3429 
Q 1922 3584 2338 3584 
Q 2397 3584 2469 3576 
Q 2541 3569 2628 3553 
L 2631 2963 
z
" id="DejaVuSans-72" transform="scale(0.015625)"/>
      <path d="M 3597 1894 
L 3597 1613 
L 953 1613 
Q 991 1019 1311 708 
Q 1631 397 2203 397 
Q 2534 397 2845 478 
Q 3156 559 3463 722 
L 3463 178 
Q 3153 47 2828 -22 
Q 2503 -91 2169 -91 
Q 1331 -91 842 396 
Q 353 884 353 1716 
Q 353 2575 817 3079 
Q 1281 3584 2069 3584 
Q 2775 3584 3186 3129 
Q 3597 2675 3597 1894 
z
M 3022 2063 
Q 3016 2534 2758 2815 
Q 2500 3097 2075 3097 
Q 1594 3097 1305 2825 
Q 1016 2553 972 2059 
L 3022 2063 
z
" id="DejaVuSans-65" transform="scale(0.015625)"/>
      <path d="M 603 4863 
L 1178 4863 
L 1178 0 
L 603 0 
L 603 4863 
z
" id="DejaVuSans-6c" transform="scale(0.015625)"/>
      <path d="M 2194 1759 
Q 1497 1759 1228 1600 
Q 959 1441 959 1056 
Q 959 750 1161 570 
Q 1363 391 1709 391 
Q 2188 391 2477 730 
Q 2766 1069 2766 1631 
L 2766 1759 
L 2194 1759 
z
M 3341 1997 
L 3341 0 
L 2766 0 
L 2766 531 
Q 2569 213 2275 61 
Q 1981 -91 1556 -91 
Q 1019 -91 701 211 
Q 384 513 384 1019 
Q 384 1609 779 1909 
Q 1175 2209 1959 2209 
L 2766 2209 
L 2766 2266 
Q 2766 2663 2505 2880 
Q 2244 3097 1772 3097 
Q 1472 3097 1187 3025 
Q 903 2953 641 2809 
L 641 3341 
Q 956 3463 1253 3523 
Q 1550 3584 1831 3584 
Q 2591 3584 2966 3190 
Q 3341 2797 3341 1997 
z
" id="DejaVuSans-61" transform="scale(0.015625)"/>
      <path d="M 1172 4494 
L 1172 3500 
L 2356 3500 
L 2356 3053 
L 1172 3053 
L 1172 1153 
Q 1172 725 1289 603 
Q 1406 481 1766 481 
L 2356 481 
L 2356 0 
L 1766 0 
Q 1100 0 847 248 
Q 594 497 594 1153 
L 594 3053 
L 172 3053 
L 172 3500 
L 594 3500 
L 594 4494 
L 1172 4494 
z
" id="DejaVuSans-74" transform="scale(0.015625)"/>
      <path d="M 603 3500 
L 1178 3500 
L 1178 0 
L 603 0 
L 603 3500 
z
M 603 4863 
L 1178 4863 
L 1178 4134 
L 603 4134 
L 603 4863 
z
" id="DejaVuSans-69" transform="scale(0.015625)"/>
      <path d="M 3513 2113 
L 3513 0 
L 2938 0 
L 2938 2094 
Q 2938 2591 2744 2837 
Q 2550 3084 2163 3084 
Q 1697 3084 1428 2787 
Q 1159 2491 1159 1978 
L 1159 0 
L 581 0 
L 581 3500 
L 1159 3500 
L 1159 2956 
Q 1366 3272 1645 3428 
Q 1925 3584 2291 3584 
Q 2894 3584 3203 3211 
Q 3513 2838 3513 2113 
z
" id="DejaVuSans-6e" transform="scale(0.015625)"/>
      <path id="DejaVuSans-20" transform="scale(0.015625)"/>
      <path d="M 2375 4863 
L 2375 4384 
L 1825 4384 
Q 1516 4384 1395 4259 
Q 1275 4134 1275 3809 
L 1275 3500 
L 2222 3500 
L 2222 3053 
L 1275 3053 
L 1275 0 
L 697 0 
L 697 3053 
L 147 3053 
L 147 3500 
L 697 3500 
L 697 3744 
Q 697 4328 969 4595 
Q 1241 4863 1831 4863 
L 2375 4863 
z
" id="DejaVuSans-66" transform="scale(0.015625)"/>
      <path d="M 2834 3397 
L 2834 2853 
Q 2591 2978 2328 3040 
Q 2066 3103 1784 3103 
Q 1356 3103 1142 2972 
Q 928 2841 928 2578 
Q 928 2378 1081 2264 
Q 1234 2150 1697 2047 
L 1894 2003 
Q 2506 1872 2764 1633 
Q 3022 1394 3022 966 
Q 3022 478 2636 193 
Q 2250 -91 1575 -91 
Q 1294 -91 989 -36 
Q 684 19 347 128 
L 347 722 
Q 666 556 975 473 
Q 1284 391 1588 391 
Q 1994 391 2212 530 
Q 2431 669 2431 922 
Q 2431 1156 2273 1281 
Q 2116 1406 1581 1522 
L 1381 1569 
Q 847 1681 609 1914 
Q 372 2147 372 2553 
Q 372 3047 722 3315 
Q 1072 3584 1716 3584 
Q 2034 3584 2315 3537 
Q 2597 3491 2834 3397 
z
" id="DejaVuSans-73" transform="scale(0.015625)"/>
      <path d="M 2906 2969 
L 2906 4863 
L 3481 4863 
L 3481 0 
L 2906 0 
L 2906 525 
Q 2725 213 2448 61 
Q 2172 -91 1784 -91 
Q 1150 -91 751 415 
Q 353 922 353 1747 
Q 353 2572 751 3078 
Q 1150 3584 1784 3584 
Q 2172 3584 2448 3432 
Q 2725 3281 2906 2969 
z
M 947 1747 
Q 947 1113 1208 752 
Q 1469 391 1925 391 
Q 2381 391 2643 752 
Q 2906 1113 2906 1747 
Q 2906 2381 2643 2742 
Q 2381 3103 1925 3103 
Q 1469 3103 1208 2742 
Q 947 2381 947 1747 
z
" id="DejaVuSans-64" transform="scale(0.015625)"/>
      <path d="M 191 3500 
L 800 3500 
L 1894 563 
L 2988 3500 
L 3597 3500 
L 2284 0 
L 1503 0 
L 191 3500 
z
" id="DejaVuSans-76" transform="scale(0.015625)"/>
      <path d="M 1159 525 
L 1159 -1331 
L 581 -1331 
L 581 3500 
L 1159 3500 
L 1159 2969 
Q 1341 3281 1617 3432 
Q 1894 3584 2278 3584 
Q 2916 3584 3314 3078 
Q 3713 2572 3713 1747 
Q 3713 922 3314 415 
Q 2916 -91 2278 -91 
Q 1894 -91 1617 61 
Q 1341 213 1159 525 
z
M 3116 1747 
Q 3116 2381 2855 2742 
Q 2594 3103 2138 3103 
Q 1681 3103 1420 2742 
Q 1159 2381 1159 1747 
Q 1159 1113 1420 752 
Q 1681 391 2138 391 
Q 2594 391 2855 752 
Q 3116 1113 3116 1747 
z
" id="DejaVuSans-70" transform="scale(0.015625)"/>
      <path d="M 3328 2828 
Q 3544 3216 3844 3400 
Q 4144 3584 4550 3584 
Q 5097 3584 5394 3201 
Q 5691 2819 5691 2113 
L 5691 0 
L 5113 0 
L 5113 2094 
Q 5113 2597 4934 2840 
Q 4756 3084 4391 3084 
Q 3944 3084 3684 2787 
Q 3425 2491 3425 1978 
L 3425 0 
L 2847 0 
L 2847 2094 
Q 2847 2600 2669 2842 
Q 2491 3084 2119 3084 
Q 1678 3084 1418 2786 
Q 1159 2488 1159 1978 
L 1159 0 
L 581 0 
L 581 3500 
L 1159 3500 
L 1159 2956 
Q 1356 3278 1631 3431 
Q 1906 3584 2284 3584 
Q 2666 3584 2933 3390 
Q 3200 3197 3328 2828 
z
" id="DejaVuSans-6d" transform="scale(0.015625)"/>
      <path d="M 269 3500 
L 844 3500 
L 1563 769 
L 2278 3500 
L 2956 3500 
L 3675 769 
L 4391 3500 
L 4966 3500 
L 4050 0 
L 3372 0 
L 2619 2869 
L 1863 0 
L 1184 0 
L 269 3500 
z
" id="DejaVuSans-77" transform="scale(0.015625)"/>
      <path d="M 3513 2113 
L 3513 0 
L 2938 0 
L 2938 2094 
Q 2938 2591 2744 2837 
Q 2550 3084 2163 3084 
Q 1697 3084 1428 2787 
Q 1159 2491 1159 1978 
L 1159 0 
L 581 0 
L 581 4863 
L 1159 4863 
L 1159 2956 
Q 1366 3272 1645 3428 
Q 1925 3584 2291 3584 
Q 2894 3584 3203 3211 
Q 3513 2838 3513 2113 
z
" id="DejaVuSans-68" transform="scale(0.015625)"/>
      <path d="M 3116 1747 
Q 3116 2381 2855 2742 
Q 2594 3103 2138 3103 
Q 1681 3103 1420 2742 
Q 1159 2381 1159 1747 
Q 1159 1113 1420 752 
Q 1681 391 2138 391 
Q 2594 391 2855 752 
Q 3116 1113 3116 1747 
z
M 1159 2969 
Q 1341 3281 1617 3432 
Q 1894 3584 2278 3584 
Q 2916 3584 3314 3078 
Q 3713 2572 3713 1747 
Q 3713 922 3314 415 
Q 2916 -91 2278 -91 
Q 1894 -91 1617 61 
Q 1341 213 1159 525 
L 1159 0 
L 581 0 
L 581 4863 
L 1159 4863 
L 1159 2969 
z
" id="DejaVuSans-62" transform="scale(0.015625)"/>
      <path d="M 2059 -325 
Q 1816 -950 1584 -1140 
Q 1353 -1331 966 -1331 
L 506 -1331 
L 506 -850 
L 844 -850 
Q 1081 -850 1212 -737 
Q 1344 -625 1503 -206 
L 1606 56 
L 191 3500 
L 800 3500 
L 1894 763 
L 2988 3500 
L 3597 3500 
L 2059 -325 
z
" id="DejaVuSans-79" transform="scale(0.015625)"/>
     </defs>
     <use xlink:href="#DejaVuSans-43"/>
     <use x="69.824219" xlink:href="#DejaVuSans-6f"/>
     <use x="131.005859" xlink:href="#DejaVuSans-72"/>
     <use x="170.369141" xlink:href="#DejaVuSans-72"/>
     <use x="209.232422" xlink:href="#DejaVuSans-65"/>
     <use x="270.755859" xlink:href="#DejaVuSans-6c"/>
     <use x="298.539062" xlink:href="#DejaVuSans-61"/>
     <use x="359.818359" xlink:href="#DejaVuSans-74"/>
     <use x="399.027344" xlink:href="#DejaVuSans-69"/>
     <use x="426.810547" xlink:href="#DejaVuSans-6f"/>
     <use x="487.992188" xlink:href="#DejaVuSans-6e"/>
     <use x="551.371094" xlink:href="#DejaVuSans-20"/>
     <use x="583.158203" xlink:href="#DejaVuSans-6f"/>
     <use x="644.339844" xlink:href="#DejaVuSans-66"/>
     <use x="679.544922" xlink:href="#DejaVuSans-20"/>
     <use x="711.332031" xlink:href="#DejaVuSans-73"/>
     <use x="763.431641" xlink:href="#DejaVuSans-74"/>
     <use x="802.640625" xlink:href="#DejaVuSans-61"/>
     <use x="863.919922" xlink:href="#DejaVuSans-6e"/>
     <use x="927.298828" xlink:href="#DejaVuSans-64"/>
     <use x="990.775391" xlink:href="#DejaVuSans-61"/>
     <use x="1052.054688" xlink:href="#DejaVuSans-72"/>
     <use x="1091.417969" xlink:href="#DejaVuSans-64"/>
     <use x="1154.894531" xlink:href="#DejaVuSans-20"/>
     <use x="1186.681641" xlink:href="#DejaVuSans-64"/>
     <use x="1250.158203" xlink:href="#DejaVuSans-65"/>
     <use x="1311.681641" xlink:href="#DejaVuSans-76"/>
     <use x="1370.861328" xlink:href="#DejaVuSans-69"/>
     <use x="1398.644531" xlink:href="#DejaVuSans-61"/>
     <use x="1459.923828" xlink:href="#DejaVuSans-74"/>
     <use x="1499.132812" xlink:href="#DejaVuSans-69"/>
     <use x="1526.916016" xlink:href="#DejaVuSans-6f"/>
     <use x="1588.097656" xlink:href="#DejaVuSans-6e"/>
     <use x="1651.476562" xlink:href="#DejaVuSans-20"/>
     <use x="1683.263672" xlink:href="#DejaVuSans-69"/>
     <use x="1711.046875" xlink:href="#DejaVuSans-6e"/>
     <use x="1774.425781" xlink:href="#DejaVuSans-20"/>
     <use x="1806.212891" xlink:href="#DejaVuSans-70"/>
     <use x="1869.689453" xlink:href="#DejaVuSans-61"/>
     <use x="1930.96875" xlink:href="#DejaVuSans-72"/>
     <use x="1972.082031" xlink:href="#DejaVuSans-61"/>
     <use x="2033.361328" xlink:href="#DejaVuSans-6d"/>
     <use x="2130.773438" xlink:href="#DejaVuSans-65"/>
     <use x="2192.296875" xlink:href="#DejaVuSans-74"/>
     <use x="2231.505859" xlink:href="#DejaVuSans-65"/>
     <use x="2293.029297" xlink:href="#DejaVuSans-72"/>
     <use x="2334.142578" xlink:href="#DejaVuSans-73"/>
     <use x="2386.242188" xlink:href="#DejaVuSans-20"/>
     <use x="2418.029297" xlink:href="#DejaVuSans-77"/>
     <use x="2499.816406" xlink:href="#DejaVuSans-69"/>
     <use x="2527.599609" xlink:href="#DejaVuSans-74"/>
     <use x="2566.808594" xlink:href="#DejaVuSans-68"/>
     <use x="2630.1875" xlink:href="#DejaVuSans-20"/>
     <use x="2661.974609" xlink:href="#DejaVuSans-73"/>
     <use x="2714.074219" xlink:href="#DejaVuSans-74"/>
     <use x="2753.283203" xlink:href="#DejaVuSans-61"/>
     <use x="2814.5625" xlink:href="#DejaVuSans-62"/>
     <use x="2878.039062" xlink:href="#DejaVuSans-69"/>
     <use x="2905.822266" xlink:href="#DejaVuSans-6c"/>
     <use x="2933.605469" xlink:href="#DejaVuSans-69"/>
     <use x="2961.388672" xlink:href="#DejaVuSans-74"/>
     <use x="3000.597656" xlink:href="#DejaVuSans-79"/>
    </g>
   </g>
  </g>
 </g>
 <defs>
  <clipPath id="p228933515b">
   <rect height="217.44" width="334.8" x="54" y="34.56"/>
  </clipPath>
 </defs>
</svg>
