<?xml version="1.0" encoding="utf-8" standalone="no"?>
<!DOCTYPE svg PUBLIC "-//W3C//DTD SVG 1.1//EN"
  "http://www.w3.org/Graphics/SVG/1.1/DTD/svg11.dtd">
<!-- Created with matplotlib (https://matplotlib.org/) -->
<svg height="341.28pt" version="1.1" viewBox="0 0 460.8 341.28" width="460.8pt" xmlns="http://www.w3.org/2000/svg" xmlns:xlink="http://www.w3.org/1999/xlink">
 <defs>
  <style type="text/css">
*{stroke-linecap:butt;stroke-linejoin:round;}
  </style>
 </defs>
 <g id="figure_1">
  <g id="patch_1">
   <path d="M 0 341.28 
L 460.8 341.28 
L 460.8 0 
L 0 0 
z
" style="fill:#ffffff;"/>
  </g>
  <g id="axes_1">
   <g id="patch_2">
    <path d="M 57.6 303.7392 
L 343.296 303.7392 
L 343.296 40.9536 
L 57.6 40.9536 
z
" style="fill:#ffffff;"/>
   </g>
   <g id="PathCollection_1">
    <path clip-path="url(#p96141c8c83)" d="M 338.98616 50.62267 
L 338.401136 50.614234 
L 335.668213 50.659943 
L 280.733875 50.018751 
L 282.075429 60.697852 
L 288.656962 50.785642 
L 291.731783 50.427008 
L 336.924107 51.043981 
L 329.227838 63.906944 
L 327.651233 91.961098 
L 329.238597 99.10615 
L 322.889143 112.386657 
L 314.464114 101.331118 
L 302.482286 105.830031 
L 291.951635 102.611911 
L 296.494328 114.469876 
L 295.618291 126.360841 
L 292.255105 132.359166 
L 302.482286 146.180251 
L 303.618455 147.260004 
L 304.188151 148.414824 
L 302.482286 154.353173 
L 301.319354 160.052629 
L 300.757561 160.793972 
L 301.545895 161.391066 
L 302.482286 161.310533 
L 313.644487 173.70567 
L 318.740306 183.333955 
L 310.633079 185.953736 
L 322.889143 192.875409 
L 327.339171 195.263052 
L 327.191146 197.926557 
L 322.889143 200.174724 
L 311.877475 197.913382 
L 302.482286 192.342943 
L 293.717049 198.034701 
L 302.482286 207.894472 
L 303.409635 210.228927 
L 303.233812 210.691229 
L 311.321725 222.790136 
L 322.889143 233.768509 
L 335.327025 228.250356 
L 326.289804 236.447695 
L 322.889143 250.272724 
L 320.14605 249.810162 
L 302.482286 241.618862 
L 297.573499 251.983084 
L 287.623877 265.315979 
L 302.482286 270.449299 
L 302.616215 270.862792 
L 302.598513 271.015861 
L 302.482286 271.682585 
L 299.338479 275.064003 
L 282.075429 291.167086 
L 280.046326 298.015695 
L 281.25858 298.102498 
L 281.500657 298.134629 
L 329.505564 297.805833 
L 343.296 297.441096 
L 343.296 270.301743 
L 343.296 251.770193 
L 343.296 236.841434 
L 343.296 223.04875 
L 343.296 210.393983 
L 343.296 198.255026 
L 343.296 186.026931 
L 343.296 173.433904 
L 343.296 160.773913 
L 343.296 147.069918 
L 343.296 131.788321 
L 343.296 114.399097 
L 343.296 91.180753 
L 343.296 50.783295 
M 329.541085 132.102233 
L 332.976662 139.577827 
L 322.889143 138.494996 
L 312.751785 132.228965 
L 322.889143 115.260071 
" style="fill:#460a5d;"/>
   </g>
   <g id="PathCollection_2">
    <path clip-path="url(#p96141c8c83)" d="M 329.505564 297.805833 
L 281.500657 298.134629 
L 281.25858 298.102498 
L 280.046326 298.015695 
L 282.075429 291.167086 
L 299.338479 275.064003 
L 302.482286 271.682585 
L 302.598513 271.015861 
L 302.616215 270.862792 
L 302.482286 270.449299 
L 287.623877 265.315979 
L 297.573499 251.983084 
L 302.482286 241.618862 
L 320.14605 249.810162 
L 322.889143 250.272724 
L 326.289804 236.447695 
L 335.327025 228.250356 
L 322.889143 233.768509 
L 311.321725 222.790136 
L 303.233812 210.691229 
L 303.409635 210.228927 
L 302.482286 207.894472 
L 293.717049 198.034701 
L 302.482286 192.342943 
L 311.877475 197.913382 
L 322.889143 200.174724 
L 327.191146 197.926557 
L 327.339171 195.263052 
L 322.889143 192.875409 
L 310.633079 185.953736 
L 318.740306 183.333955 
L 313.644487 173.70567 
L 302.482286 161.310533 
L 301.545895 161.391066 
L 300.757561 160.793972 
L 301.319354 160.052629 
L 302.482286 154.353173 
L 304.188151 148.414824 
L 303.618455 147.260004 
L 302.482286 146.180251 
L 292.255105 132.359166 
L 295.618291 126.360841 
L 296.494328 114.469876 
L 291.951635 102.611911 
L 302.482286 105.830031 
L 314.464114 101.331118 
L 322.889143 112.386657 
L 329.238597 99.10615 
L 327.651233 91.961098 
L 329.227838 63.906944 
L 336.924107 51.043981 
L 291.731783 50.427008 
L 288.656962 50.785642 
L 282.075429 60.697852 
L 280.733875 50.018751 
L 335.668213 50.659943 
L 338.401136 50.614234 
L 338.98616 50.62267 
L 313.182202 49.660974 
L 309.094506 49.602033 
L 289.998975 49.921412 
L 268.96763 49.675935 
L 271.490643 69.759745 
L 264.218984 92.340882 
L 269.642238 101.190988 
L 280.045482 114.79557 
L 261.668571 128.808026 
L 252.228565 132.131577 
L 252.853558 138.778266 
L 261.668571 137.028331 
L 273.199535 139.155984 
L 273.975024 147.67899 
L 272.427102 154.582609 
L 263.155179 160.760194 
L 261.668571 163.330088 
L 258.645801 173.296755 
L 261.668571 181.530079 
L 266.333549 183.031499 
L 282.075429 177.880374 
L 296.942165 176.96778 
L 290.749121 185.818849 
L 282.075429 191.026279 
L 266.898289 194.558617 
L 261.668571 189.638505 
L 257.550972 195.278882 
L 255.692433 197.795607 
L 251.658862 204.179655 
L 254.148189 210.01756 
L 261.668571 220.678023 
L 264.417975 220.882873 
L 263.460898 222.574887 
L 261.668571 229.442284 
L 260.234112 235.652882 
L 258.881965 236.606507 
L 261.668571 246.341959 
L 263.214941 250.542805 
L 265.710877 251.712772 
L 262.768882 252.685979 
L 263.258944 270.781978 
L 261.668571 273.358072 
L 248.430308 280.083691 
L 249.865933 297.297171 
L 255.006383 297.665251 
L 263.028417 298.730026 
L 305.582391 298.438564 
M 322.889143 115.260071 
L 312.751785 132.228965 
L 322.889143 138.494996 
L 332.976662 139.577827 
L 329.541085 132.102233 
M 241.301936 160.591796 
L 241.261714 160.571916 
L 241.233101 160.59845 
L 241.242259 160.617186 
L 241.261714 160.633116 
L 241.818063 160.621164 
" style="fill:#481d6f;"/>
   </g>
   <g id="PathCollection_3">
    <path clip-path="url(#p96141c8c83)" d="M 305.582391 298.438564 
L 263.028417 298.730026 
L 255.006383 297.665251 
L 249.865933 297.297171 
L 248.430308 280.083691 
L 261.668571 273.358072 
L 263.258944 270.781978 
L 262.768882 252.685979 
L 265.710877 251.712772 
L 263.214941 250.542805 
L 261.668571 246.341959 
L 258.881965 236.606507 
L 260.234112 235.652882 
L 261.668571 229.442284 
L 263.460898 222.574887 
L 264.417975 220.882873 
L 261.668571 220.678023 
L 254.148189 210.01756 
L 251.658862 204.179655 
L 255.692433 197.795607 
L 257.550972 195.278882 
L 261.668571 189.638505 
L 266.898289 194.558617 
L 282.075429 191.026279 
L 290.749121 185.818849 
L 296.942165 176.96778 
L 282.075429 177.880374 
L 266.333549 183.031499 
L 261.668571 181.530079 
L 258.645801 173.296755 
L 261.668571 163.330088 
L 263.155179 160.760194 
L 272.427102 154.582609 
L 273.975024 147.67899 
L 273.199535 139.155984 
L 261.668571 137.028331 
L 252.853558 138.778266 
L 252.228565 132.131577 
L 261.668571 128.808026 
L 280.045482 114.79557 
L 269.642238 101.190988 
L 264.218984 92.340882 
L 271.490643 69.759745 
L 268.96763 49.675935 
L 289.998975 49.921412 
L 309.094506 49.602033 
L 313.182202 49.660974 
L 287.378244 48.699278 
L 279.787876 48.589831 
L 252.687235 49.043098 
L 254.384448 49.384784 
L 255.20086 49.556746 
L 241.261714 78.436464 
L 233.520916 91.327437 
L 236.23948 108.780866 
L 222.727091 114.280252 
L 221.481434 114.809967 
L 226.677825 132.278693 
L 227.034325 136.922892 
L 222.275584 147.323643 
L 221.688931 147.86766 
L 227.953116 160.684209 
L 241.261714 171.580402 
L 244.302309 171.515082 
L 243.735873 173.382732 
L 244.455551 175.342966 
L 241.261714 180.632495 
L 239.461117 184.868651 
L 237.857484 185.981703 
L 224.781217 195.505223 
L 222.059781 197.802468 
L 236.404066 201.006232 
L 239.782106 210.12759 
L 220.854857 220.304271 
L 216.831969 220.164238 
L 217.086067 222.635863 
L 217.252551 225.026344 
L 217.814351 236.439591 
L 220.854857 243.978928 
L 229.246495 245.521222 
L 229.412305 251.986566 
L 232.775888 260.127084 
L 230.519857 270.994379 
L 231.788038 285.214604 
L 220.854857 289.265245 
L 217.316637 297.188288 
L 213.294509 297.391263 
L 217.359126 297.448896 
L 233.252079 297.825015 
L 244.556177 299.325423 
L 281.659219 299.071296 
M 241.818063 160.621164 
L 241.261714 160.633116 
L 241.242259 160.617186 
L 241.233101 160.59845 
L 241.261714 160.571916 
L 241.301936 160.591796 
M 266.411064 114.544256 
L 261.668571 118.160423 
L 254.337475 120.741487 
L 248.581585 114.427732 
L 261.668571 108.342381 
M 244.997157 225.508305 
L 241.261714 228.142792 
L 231.607243 229.383316 
L 232.627976 222.84963 
L 241.261714 214.278154 
L 245.594245 222.923171 
" style="fill:#472e7c;"/>
   </g>
   <g id="PathCollection_4">
    <path clip-path="url(#p96141c8c83)" d="M 281.659219 299.071296 
L 244.556177 299.325423 
L 233.252079 297.825015 
L 217.359126 297.448896 
L 213.294509 297.391263 
L 217.316637 297.188288 
L 220.854857 289.265245 
L 231.788038 285.214604 
L 230.519857 270.994379 
L 232.775888 260.127084 
L 229.412305 251.986566 
L 229.246495 245.521222 
L 220.854857 243.978928 
L 217.814351 236.439591 
L 217.252551 225.026344 
L 217.086067 222.635863 
L 216.831969 220.164238 
L 220.854857 220.304271 
L 239.782106 210.12759 
L 236.404066 201.006232 
L 222.059781 197.802468 
L 224.781217 195.505223 
L 237.857484 185.981703 
L 239.461117 184.868651 
L 241.261714 180.632495 
L 244.455551 175.342966 
L 243.735873 173.382732 
L 244.302309 171.515082 
L 241.261714 171.580402 
L 227.953116 160.684209 
L 221.688931 147.86766 
L 222.275584 147.323643 
L 227.034325 136.922892 
L 226.677825 132.278693 
L 221.481434 114.809967 
L 222.727091 114.280252 
L 236.23948 108.780866 
L 233.520916 91.327437 
L 241.261714 78.436464 
L 255.20086 49.556746 
L 254.384448 49.384784 
L 252.687235 49.043098 
L 279.787876 48.589831 
L 287.378244 48.699278 
L 261.574286 47.737583 
L 250.481246 47.57763 
L 229.031046 47.936391 
L 235.198593 49.178054 
L 237.270754 49.614514 
L 220.854857 76.619292 
L 215.58793 80.499691 
L 216.327368 91.609037 
L 212.510113 105.111243 
L 200.448 108.446855 
L 192.466896 105.228158 
L 193.551965 114.294163 
L 200.448 122.694227 
L 207.706695 125.867625 
L 208.986454 132.329563 
L 207.866251 141.95549 
L 206.769648 147.381728 
L 209.347421 154.772066 
L 212.973413 160.647338 
L 213.516546 165.226905 
L 220.854857 168.914123 
L 225.754373 173.512676 
L 224.735378 175.910003 
L 220.854857 178.603401 
L 211.487225 185.904235 
L 208.640578 193.27279 
L 204.773103 198.035088 
L 220.854857 205.942922 
L 225.940463 207.07878 
L 227.045303 210.062059 
L 220.854857 213.390498 
L 204.798209 212.831583 
L 205.812396 222.696638 
L 206.476887 232.237821 
L 206.678441 236.332496 
L 209.390012 243.056193 
L 204.150551 251.969335 
L 200.448 255.728068 
L 190.331738 261.163262 
L 180.041143 263.082814 
L 176.874312 267.491261 
L 174.900507 270.595099 
L 180.041143 294.448694 
L 194.9881 289.832363 
L 200.448 291.626803 
L 205.579876 290.450804 
L 202.664051 296.980135 
L 181.985364 298.023674 
L 202.882496 298.31998 
L 216.440562 298.640842 
L 226.083937 299.920821 
L 257.736047 299.704028 
M 261.668571 108.342381 
L 248.581585 114.427732 
L 254.337475 120.741487 
L 261.668571 118.160423 
L 266.411064 114.544256 
M 245.594245 222.923171 
L 241.261714 214.278154 
L 232.627976 222.84963 
L 231.607243 229.383316 
L 241.261714 228.142792 
L 244.997157 225.508305 
" style="fill:#423f85;"/>
   </g>
   <g id="PathCollection_5">
    <path clip-path="url(#p96141c8c83)" d="M 257.736047 299.704028 
L 226.083937 299.920821 
L 216.440562 298.640842 
L 202.882496 298.31998 
L 181.985364 298.023674 
L 202.664051 296.980135 
L 205.579876 290.450804 
L 200.448 291.626803 
L 194.9881 289.832363 
L 180.041143 294.448694 
L 174.900507 270.595099 
L 176.874312 267.491261 
L 180.041143 263.082814 
L 190.331738 261.163262 
L 200.448 255.728068 
L 204.150551 251.969335 
L 209.390012 243.056193 
L 206.678441 236.332496 
L 206.476887 232.237821 
L 205.812396 222.696638 
L 204.798209 212.831583 
L 220.854857 213.390498 
L 227.045303 210.062059 
L 225.940463 207.07878 
L 220.854857 205.942922 
L 204.773103 198.035088 
L 208.640578 193.27279 
L 211.487225 185.904235 
L 220.854857 178.603401 
L 224.735378 175.910003 
L 225.754373 173.512676 
L 220.854857 168.914123 
L 213.516546 165.226905 
L 212.973413 160.647338 
L 209.347421 154.772066 
L 206.769648 147.381728 
L 207.866251 141.95549 
L 208.986454 132.329563 
L 207.706695 125.867625 
L 200.448 122.694227 
L 193.551965 114.294163 
L 192.466896 105.228158 
L 200.448 108.446855 
L 212.510113 105.111243 
L 216.327368 91.609037 
L 215.58793 80.499691 
L 220.854857 76.619292 
L 237.270754 49.614514 
L 235.198593 49.178054 
L 229.031046 47.936391 
L 250.481246 47.57763 
L 261.574286 47.737583 
L 235.770327 46.775887 
L 221.174617 46.565428 
L 205.374857 46.829684 
L 214.097251 48.585694 
L 212.77127 48.759121 
L 208.407908 48.878057 
L 202.551982 53.1924 
L 205.121574 91.798016 
L 203.998089 95.77195 
L 200.448 96.753678 
L 187.597771 91.571314 
L 192.3487 65.69523 
L 180.041143 82.93278 
L 174.817132 91.300738 
L 174.89264 97.071522 
L 178.722205 114.596598 
L 179.588876 115.02894 
L 180.041143 118.760413 
L 185.449386 132.305501 
L 194.258084 136.817867 
L 193.281503 147.355277 
L 196.413725 157.907878 
L 180.041143 159.386828 
L 178.799916 160.895416 
L 159.634286 172.987353 
L 159.401265 173.011862 
L 159.427217 173.159182 
L 158.844011 185.419988 
L 158.463263 185.878005 
L 158.917496 186.309265 
L 159.634286 186.661828 
L 178.36584 186.913581 
L 180.041143 189.045478 
L 187.493557 198.13813 
L 183.052077 208.244602 
L 183.446483 210.029959 
L 189.131587 217.02001 
L 190.133778 222.618585 
L 191.019354 229.915616 
L 190.402143 236.398985 
L 187.19872 241.961598 
L 180.041143 245.064853 
L 175.333081 252.082368 
L 169.225549 260.584475 
L 162.484462 271.184931 
L 163.646861 276.578698 
L 172.10171 298.09562 
L 170.821673 298.550084 
L 170.045918 298.930734 
L 188.405866 299.191064 
L 199.629045 299.456669 
L 207.611698 300.516218 
L 233.812875 300.33676 
" style="fill:#3d4e8a;"/>
   </g>
   <g id="PathCollection_6">
    <path clip-path="url(#p96141c8c83)" d="M 233.812875 300.33676 
L 207.611698 300.516218 
L 199.629045 299.456669 
L 188.405866 299.191064 
L 170.045918 298.930734 
L 170.821673 298.550084 
L 172.10171 298.09562 
L 163.646861 276.578698 
L 162.484462 271.184931 
L 169.225549 260.584475 
L 175.333081 252.082368 
L 180.041143 245.064853 
L 187.19872 241.961598 
L 190.402143 236.398985 
L 191.019354 229.915616 
L 190.133778 222.618585 
L 189.131587 217.02001 
L 183.446483 210.029959 
L 183.052077 208.244602 
L 187.493557 198.13813 
L 180.041143 189.045478 
L 178.36584 186.913581 
L 159.634286 186.661828 
L 158.917496 186.309265 
L 158.463263 185.878005 
L 158.844011 185.419988 
L 159.427217 173.159182 
L 159.401265 173.011862 
L 159.634286 172.987353 
L 178.799916 160.895416 
L 180.041143 159.386828 
L 196.413725 157.907878 
L 193.281503 147.355277 
L 194.258084 136.817867 
L 185.449386 132.305501 
L 180.041143 118.760413 
L 179.588876 115.02894 
L 178.722205 114.596598 
L 174.89264 97.071522 
L 174.817132 91.300738 
L 180.041143 82.93278 
L 192.3487 65.69523 
L 187.597771 91.571314 
L 200.448 96.753678 
L 203.998089 95.77195 
L 205.121574 91.798016 
L 202.551982 53.1924 
L 208.407908 48.878057 
L 212.77127 48.759121 
L 214.097251 48.585694 
L 205.374857 46.829684 
L 221.174617 46.565428 
L 235.770327 46.775887 
L 209.966369 45.814191 
L 191.867987 45.553227 
L 181.718668 45.722978 
L 187.321687 46.850988 
L 180.74179 47.711581 
L 180.559927 47.716538 
L 180.041143 48.443129 
L 178.59679 50.756732 
L 159.634286 80.538816 
L 154.546668 91.182638 
L 154.735834 108.556099 
L 156.5632 114.063237 
L 159.634286 117.222878 
L 170.583985 122.685184 
L 171.735549 132.186281 
L 159.634286 141.992371 
L 153.863954 143.07284 
L 154.082442 147.318025 
L 153.239455 151.461837 
L 159.634286 152.41156 
L 178.473246 147.261956 
L 180.041143 146.355223 
L 180.765966 146.726523 
L 180.716177 147.263752 
L 180.875868 147.801757 
L 180.041143 147.877158 
L 169.419566 160.786628 
L 159.634286 166.960336 
L 151.045534 167.863687 
L 152.002112 173.293647 
L 151.633282 181.047585 
L 147.778468 185.684696 
L 152.377272 190.050917 
L 159.634286 193.620388 
L 166.866779 193.717593 
L 170.295649 198.080981 
L 159.634286 208.280042 
L 158.744955 209.246013 
L 158.173216 209.809522 
L 159.634286 210.650593 
L 174.594727 222.749396 
L 174.129491 232.724831 
L 170.473498 236.623084 
L 166.115467 247.034432 
L 162.813731 251.955774 
L 161.576785 253.677689 
L 159.634286 256.732297 
L 141.804414 270.740259 
L 159.634286 287.944844 
L 163.636616 298.130458 
L 160.991792 299.069476 
L 159.38892 299.855977 
L 173.929237 300.062148 
L 182.817529 300.272497 
L 189.139458 301.111615 
L 209.889703 300.969492 
" style="fill:#365d8d;"/>
   </g>
   <g id="PathCollection_7">
    <path clip-path="url(#p96141c8c83)" d="M 209.889703 300.969492 
L 189.139458 301.111615 
L 182.817529 300.272497 
L 173.929237 300.062148 
L 159.38892 299.855977 
L 160.991792 299.069476 
L 163.636616 298.130458 
L 159.634286 287.944844 
L 141.804414 270.740259 
L 159.634286 256.732297 
L 161.576785 253.677689 
L 162.813731 251.955774 
L 166.115467 247.034432 
L 170.473498 236.623084 
L 174.129491 232.724831 
L 174.594727 222.749396 
L 159.634286 210.650593 
L 158.173216 209.809522 
L 158.744955 209.246013 
L 159.634286 208.280042 
L 170.295649 198.080981 
L 166.866779 193.717593 
L 159.634286 193.620388 
L 152.377272 190.050917 
L 147.778468 185.684696 
L 151.633282 181.047585 
L 152.002112 173.293647 
L 151.045534 167.863687 
L 159.634286 166.960336 
L 169.419566 160.786628 
L 180.041143 147.877158 
L 180.875868 147.801757 
L 180.716177 147.263752 
L 180.765966 146.726523 
L 180.041143 146.355223 
L 178.473246 147.261956 
L 159.634286 152.41156 
L 153.239455 151.461837 
L 154.082442 147.318025 
L 153.863954 143.07284 
L 159.634286 141.992371 
L 171.735549 132.186281 
L 170.583985 122.685184 
L 159.634286 117.222878 
L 156.5632 114.063237 
L 154.735834 108.556099 
L 154.546668 91.182638 
L 159.634286 80.538816 
L 178.59679 50.756732 
L 180.041143 48.443129 
L 180.559927 47.716538 
L 180.74179 47.711581 
L 187.321687 46.850988 
L 181.718668 45.722978 
L 191.867987 45.553227 
L 209.966369 45.814191 
L 184.162411 44.852495 
L 162.561357 44.541025 
L 158.062478 44.616271 
L 160.546123 45.116283 
L 157.541927 45.509205 
L 157.939892 46.381545 
L 139.227429 84.669539 
L 137.926904 91.581515 
L 137.788038 93.232705 
L 139.227429 96.283821 
L 145.319593 114.64379 
L 159.634286 129.371251 
L 161.579093 130.341427 
L 161.783626 132.028944 
L 159.634286 133.770632 
L 144.924535 136.524969 
L 145.481507 147.34681 
L 143.33256 157.910229 
L 159.634286 160.331266 
L 160.524606 160.087898 
L 160.039217 160.67784 
L 159.634286 160.933318 
L 142.689803 162.715513 
L 144.577006 173.428112 
L 144.422554 176.675182 
L 139.227429 182.924607 
L 137.918563 184.760203 
L 136.219222 185.667672 
L 139.227429 187.517228 
L 145.837048 193.792569 
L 154.154098 197.883435 
L 149.037691 203.440766 
L 142.225275 210.15511 
L 159.634286 220.176678 
L 163.413303 223.232844 
L 163.295784 225.752645 
L 159.634286 229.656769 
L 154.327013 236.632234 
L 139.227429 250.460557 
L 137.493952 250.769676 
L 137.845438 252.102487 
L 132.232169 264.461321 
L 133.864632 270.554699 
L 139.227429 283.150109 
L 153.455899 298.77441 
L 151.16191 299.588868 
L 148.731921 300.781221 
L 159.452607 300.933233 
L 166.006012 301.088324 
L 170.667218 301.707012 
L 185.96653 301.602224 
" style="fill:#306a8e;"/>
   </g>
   <g id="PathCollection_8">
    <path clip-path="url(#p96141c8c83)" d="M 185.96653 301.602224 
L 170.667218 301.707012 
L 166.006012 301.088324 
L 159.452607 300.933233 
L 148.731921 300.781221 
L 151.16191 299.588868 
L 153.455899 298.77441 
L 139.227429 283.150109 
L 133.864632 270.554699 
L 132.232169 264.461321 
L 137.845438 252.102487 
L 137.493952 250.769676 
L 139.227429 250.460557 
L 154.327013 236.632234 
L 159.634286 229.656769 
L 163.295784 225.752645 
L 163.413303 223.232844 
L 159.634286 220.176678 
L 142.225275 210.15511 
L 149.037691 203.440766 
L 154.154098 197.883435 
L 145.837048 193.792569 
L 139.227429 187.517228 
L 136.219222 185.667672 
L 137.918563 184.760203 
L 139.227429 182.924607 
L 144.422554 176.675182 
L 144.577006 173.428112 
L 142.689803 162.715513 
L 159.634286 160.933318 
L 160.039217 160.67784 
L 160.524606 160.087898 
L 159.634286 160.331266 
L 143.33256 157.910229 
L 145.481507 147.34681 
L 144.924535 136.524969 
L 159.634286 133.770632 
L 161.783626 132.028944 
L 161.579093 130.341427 
L 159.634286 129.371251 
L 145.319593 114.64379 
L 139.227429 96.283821 
L 137.788038 93.232705 
L 137.926904 91.581515 
L 139.227429 84.669539 
L 157.939892 46.381545 
L 157.541927 45.509205 
L 160.546123 45.116283 
L 158.062478 44.616271 
L 162.561357 44.541025 
L 184.162411 44.852495 
L 158.358453 43.890799 
L 136.831792 43.580402 
L 135.734518 51.821254 
L 128.310634 91.277415 
L 127.144974 105.137749 
L 131.689202 114.770274 
L 132.507932 120.458115 
L 133.51622 132.158589 
L 118.820571 146.619106 
L 118.809058 146.623357 
L 118.815818 146.631217 
L 118.814804 146.634875 
L 118.820571 146.655299 
L 131.397773 152.473979 
L 127.555995 160.636107 
L 131.280947 168.521721 
L 136.626771 173.525379 
L 131.364412 180.905488 
L 121.155609 186.35711 
L 139.227429 197.468335 
L 139.296824 197.534221 
L 139.384146 197.577171 
L 139.330428 197.635518 
L 139.227429 197.737035 
L 129.567753 204.557856 
L 134.019895 210.218568 
L 133.483008 213.517703 
L 134.94498 222.971622 
L 126.515179 231.682854 
L 139.227429 234.580097 
L 141.580048 234.862074 
L 140.426587 236.378093 
L 139.227429 237.476292 
L 123.48748 240.283097 
L 126.678964 252.385003 
L 124.360353 257.48993 
L 127.829839 270.440232 
L 139.227429 297.209347 
L 141.736565 299.964633 
L 141.332029 300.108259 
L 138.074923 301.706465 
L 144.975977 301.804317 
L 149.194495 301.904151 
L 152.194978 302.30241 
L 162.043358 302.234956 
" style="fill:#2a778e;"/>
   </g>
   <g id="PathCollection_9">
    <path clip-path="url(#p96141c8c83)" d="M 162.043358 302.234956 
L 152.194978 302.30241 
L 149.194495 301.904151 
L 144.975977 301.804317 
L 138.074923 301.706465 
L 141.332029 300.108259 
L 141.736565 299.964633 
L 139.227429 297.209347 
L 127.829839 270.440232 
L 124.360353 257.48993 
L 126.678964 252.385003 
L 123.48748 240.283097 
L 139.227429 237.476292 
L 140.426587 236.378093 
L 141.580048 234.862074 
L 139.227429 234.580097 
L 126.515179 231.682854 
L 134.94498 222.971622 
L 133.483008 213.517703 
L 134.019895 210.218568 
L 129.567753 204.557856 
L 139.227429 197.737035 
L 139.330428 197.635518 
L 139.384146 197.577171 
L 139.296824 197.534221 
L 139.227429 197.468335 
L 121.155609 186.35711 
L 131.364412 180.905488 
L 136.626771 173.525379 
L 131.280947 168.521721 
L 127.555995 160.636107 
L 131.397773 152.473979 
L 118.820571 146.655299 
L 118.814804 146.634875 
L 118.815818 146.631217 
L 118.809058 146.623357 
L 118.820571 146.619106 
L 133.51622 132.158589 
L 132.507932 120.458115 
L 131.689202 114.770274 
L 127.144974 105.137749 
L 128.310634 91.277415 
L 135.734518 51.821254 
L 136.831792 43.580402 
L 158.358453 43.890799 
L 132.554494 42.929103 
L 125.076969 42.821284 
L 118.820571 89.808693 
L 118.273772 89.69195 
L 118.72658 90.97866 
L 117.364965 112.795916 
L 112.976971 114.550202 
L 116.586904 129.815592 
L 115.432999 131.84222 
L 103.534683 136.23569 
L 112.509528 146.671326 
L 111.162871 151.528558 
L 113.675503 160.425719 
L 112.859384 164.277364 
L 118.820571 165.568511 
L 127.323039 173.526767 
L 124.81026 177.050772 
L 118.820571 180.249337 
L 112.659378 186.245274 
L 114.961795 188.548775 
L 118.290915 198.23822 
L 117.823904 198.8477 
L 118.820571 199.045322 
L 127.606857 210.216715 
L 126.408798 217.578709 
L 127.165411 222.47138 
L 118.820571 231.094814 
L 112.393955 232.298236 
L 108.911184 237.176112 
L 112.790854 248.152398 
L 116.461542 252.578294 
L 118.820571 259.223158 
L 121.795046 270.325765 
L 126.686073 281.813146 
L 129.157485 301.778136 
L 127.417925 302.631709 
L 130.499348 302.675401 
L 132.382978 302.719979 
L 133.722738 302.897807 
L 138.120186 302.867688 
" style="fill:#25838e;"/>
   </g>
   <g id="PathCollection_10">
    <path clip-path="url(#p96141c8c83)" d="M 138.120186 302.867688 
L 133.722738 302.897807 
L 132.382978 302.719979 
L 130.499348 302.675401 
L 127.417925 302.631709 
L 129.157485 301.778136 
L 126.686073 281.813146 
L 121.795046 270.325765 
L 118.820571 259.223158 
L 116.461542 252.578294 
L 112.790854 248.152398 
L 108.911184 237.176112 
L 112.393955 232.298236 
L 118.820571 231.094814 
L 127.165411 222.47138 
L 126.408798 217.578709 
L 127.606857 210.216715 
L 118.820571 199.045322 
L 117.823904 198.8477 
L 118.290915 198.23822 
L 114.961795 188.548775 
L 112.659378 186.245274 
L 118.820571 180.249337 
L 124.81026 177.050772 
L 127.323039 173.526767 
L 118.820571 165.568511 
L 112.859384 164.277364 
L 113.675503 160.425719 
L 111.162871 151.528558 
L 112.509528 146.671326 
L 103.534683 136.23569 
L 115.432999 131.84222 
L 116.586904 129.815592 
L 112.976971 114.550202 
L 117.364965 112.795916 
L 118.72658 90.97866 
L 118.273772 89.69195 
L 118.820571 89.808693 
L 125.076969 42.821284 
L 132.554494 42.929103 
L 118.820571 42.417249 
L 110.316622 42.213939 
L 92.174015 42.693148 
L 93.671714 43.134811 
L 98.413714 53.710687 
L 111.565035 91.081733 
L 110.683473 105.207054 
L 98.413714 110.112409 
L 95.298859 111.353136 
L 95.053932 114.693882 
L 93.937143 118.69579 
L 92.493271 132.694874 
L 98.413714 137.654049 
L 106.203238 146.711435 
L 103.510939 156.42224 
L 104.515511 159.979403 
L 102.246418 170.688303 
L 114.891066 173.427034 
L 117.130458 174.539407 
L 105.367923 185.986446 
L 110.395131 191.016022 
L 112.805536 198.031535 
L 107.501939 204.95309 
L 118.820571 207.197377 
L 121.193819 210.214862 
L 119.334589 221.639715 
L 119.385841 221.971139 
L 118.820571 222.55528 
L 102.756007 225.563465 
L 98.413714 231.645165 
L 96.819669 237.465182 
L 96.513084 238.88572 
L 98.413714 240.399869 
L 108.498607 252.559629 
L 112.985762 265.198954 
L 98.413714 266.563793 
L 95.949239 270.746145 
L 97.105706 272.630101 
L 98.413714 275.030809 
L 117.345769 303.404228 
L 118.820571 303.378133 
" style="fill:#21918c;"/>
   </g>
   <g id="PathCollection_11">
    <path clip-path="url(#p96141c8c83)" d="M 92.13643 41.77929 
L 80.250599 42.093236 
L 84.610243 43.37887 
L 98.413714 74.164146 
L 104.40349 91.184807 
L 104.001982 97.618191 
L 98.413714 99.852337 
L 88.483937 103.807625 
L 87.703138 114.457513 
L 84.142951 127.215108 
L 83.586794 132.607333 
L 98.413714 145.026892 
L 99.896948 146.751544 
L 98.413714 152.101392 
L 93.462275 156.788685 
L 94.500127 159.986535 
L 92.04131 169.339374 
L 95.338833 173.168765 
L 98.154931 185.591989 
L 92.724312 185.483231 
L 97.735728 186.086784 
L 98.413714 186.065023 
L 105.828468 193.483268 
L 107.320158 197.82485 
L 98.413714 209.448365 
L 96.097161 210.303358 
L 90.852123 217.925586 
L 93.272688 222.818214 
L 94.69448 224.991034 
L 91.390811 237.053053 
L 90.040087 243.311532 
L 98.413714 249.982435 
L 100.535672 252.540964 
L 101.479812 255.200399 
L 98.413714 255.487574 
L 89.357237 270.856921 
L 93.607032 277.780101 
L 98.413714 286.602247 
L 109.714861 303.539244 
L 117.345769 303.404228 
L 98.413714 275.030809 
L 97.105706 272.630101 
L 95.949239 270.746145 
L 98.413714 266.563793 
L 112.985762 265.198954 
L 108.498607 252.559629 
L 98.413714 240.399869 
L 96.513084 238.88572 
L 96.819669 237.465182 
L 98.413714 231.645165 
L 102.756007 225.563465 
L 118.820571 222.55528 
L 119.385841 221.971139 
L 119.334589 221.639715 
L 121.193819 210.214862 
L 118.820571 207.197377 
L 107.501939 204.95309 
L 112.805536 198.031535 
L 110.395131 191.016022 
L 105.367923 185.986446 
L 117.130458 174.539407 
L 114.891066 173.427034 
L 102.246418 170.688303 
L 104.515511 159.979403 
L 103.510939 156.42224 
L 106.203238 146.711435 
L 98.413714 137.654049 
L 92.493271 132.694874 
L 93.937143 118.69579 
L 95.053932 114.693882 
L 95.298859 111.353136 
L 98.413714 110.112409 
L 110.683473 105.207054 
L 111.565035 91.081733 
L 98.413714 53.710687 
L 93.671714 43.134811 
L 92.174015 42.693148 
L 110.316622 42.213939 
" style="fill:#1e9d89;"/>
   </g>
   <g id="PathCollection_12">
    <path clip-path="url(#p96141c8c83)" d="M 73.956239 41.344642 
L 68.327183 41.493325 
L 73.279275 42.953668 
L 69.836641 62.266804 
L 78.006857 59.877126 
L 93.650522 91.489569 
L 81.669014 96.262114 
L 80.352345 114.221145 
L 78.006857 122.625976 
L 76.215199 132.495527 
L 76.162735 133.864974 
L 78.006857 146.216161 
L 79.072162 147.705188 
L 78.631587 148.12226 
L 82.778041 160.898402 
L 82.066753 163.603997 
L 90.525802 173.427433 
L 92.559879 182.40077 
L 78.006857 182.109319 
L 65.271996 184.951074 
L 78.006857 192.982677 
L 83.077258 193.593334 
L 98.413714 193.101084 
L 101.261805 195.950515 
L 101.834779 197.618165 
L 98.413714 202.082888 
L 79.975955 208.887895 
L 78.006857 207.858378 
L 77.745704 210.088601 
L 77.721527 210.271634 
L 78.006857 211.399934 
L 83.916161 223.344261 
L 87.925574 229.471553 
L 85.961954 236.640924 
L 83.56709 247.737344 
L 89.014178 252.076801 
L 88.128402 261.866105 
L 82.765235 270.967697 
L 90.108357 282.930101 
L 98.413714 298.173685 
L 102.083953 303.674261 
L 109.714861 303.539244 
L 98.413714 286.602247 
L 93.607032 277.780101 
L 89.357237 270.856921 
L 98.413714 255.487574 
L 101.479812 255.200399 
L 100.535672 252.540964 
L 98.413714 249.982435 
L 90.040087 243.311532 
L 91.390811 237.053053 
L 94.69448 224.991034 
L 93.272688 222.818214 
L 90.852123 217.925586 
L 96.097161 210.303358 
L 98.413714 209.448365 
L 107.320158 197.82485 
L 105.828468 193.483268 
L 98.413714 186.065023 
L 97.735728 186.086784 
L 92.724312 185.483231 
L 98.154931 185.591989 
L 95.338833 173.168765 
L 92.04131 169.339374 
L 94.500127 159.986535 
L 93.462275 156.788685 
L 98.413714 152.101392 
L 99.896948 146.751544 
L 98.413714 145.026892 
L 83.586794 132.607333 
L 84.142951 127.215108 
L 87.703138 114.457513 
L 88.483937 103.807625 
L 98.413714 99.852337 
L 104.001982 97.618191 
L 104.40349 91.184807 
L 98.413714 74.164146 
L 84.610243 43.37887 
L 80.250599 42.093236 
L 92.13643 41.77929 
" style="fill:#23a983;"/>
   </g>
   <g id="PathCollection_13">
    <path clip-path="url(#p96141c8c83)" d="M 57.6 97.745222 
L 72.520848 97.944048 
L 70.8412 113.935384 
L 74.105313 117.540834 
L 71.418215 132.343017 
L 71.225284 137.379023 
L 72.748625 147.581752 
L 57.6 159.955651 
L 57.6 160.433041 
L 57.6 161.136649 
L 72.966655 164.308205 
L 78.006857 164.737276 
L 85.712771 173.686101 
L 86.964828 179.209551 
L 78.006857 179.030151 
L 62.228337 182.551092 
L 57.6 182.667374 
L 57.6 185.029992 
L 57.6 186.709722 
L 73.919058 196.161693 
L 75.221466 197.911804 
L 73.824838 209.838865 
L 73.43768 212.769893 
L 76.157516 223.525121 
L 72.38025 227.240846 
L 78.006857 229.138448 
L 81.156668 233.952073 
L 80.533096 236.228795 
L 78.006857 247.93393 
L 75.411673 249.639724 
L 75.78295 251.634559 
L 74.040391 267.426104 
L 74.467834 271.411437 
L 77.102715 272.133563 
L 78.006857 274.06556 
L 86.609683 288.080101 
L 94.856937 303.217042 
L 98.413714 303.7392 
L 102.083953 303.674261 
L 98.413714 298.173685 
L 90.108357 282.930101 
L 82.765235 270.967697 
L 88.128402 261.866105 
L 89.014178 252.076801 
L 83.56709 247.737344 
L 85.961954 236.640924 
L 87.925574 229.471553 
L 83.916161 223.344261 
L 78.006857 211.399934 
L 77.721527 210.271634 
L 77.745704 210.088601 
L 78.006857 207.858378 
L 79.975955 208.887895 
L 98.413714 202.082888 
L 101.834779 197.618165 
L 101.261805 195.950515 
L 98.413714 193.101084 
L 83.077258 193.593334 
L 78.006857 192.982677 
L 65.271996 184.951074 
L 78.006857 182.109319 
L 92.559879 182.40077 
L 90.525802 173.427433 
L 82.066753 163.603997 
L 82.778041 160.898402 
L 78.631587 148.12226 
L 79.072162 147.705188 
L 78.006857 146.216161 
L 76.162735 133.864974 
L 76.215199 132.495527 
L 78.006857 122.625976 
L 80.352345 114.221145 
L 81.669014 96.262114 
L 93.650522 91.489569 
L 78.006857 59.877126 
L 69.836641 62.266804 
L 73.279275 42.953668 
L 68.327183 41.493325 
L 73.956239 41.344642 
L 57.6 40.9536 
L 57.6 90.289137 
" style="fill:#32b67a;"/>
   </g>
   <g id="PathCollection_14">
    <path clip-path="url(#p96141c8c83)" d="M 57.6 110.303498 
L 60.662456 110.344307 
L 60.317714 113.626477 
L 68.375504 122.526893 
L 66.62123 132.190508 
L 66.287832 140.893073 
L 67.259154 147.398596 
L 57.6 155.288513 
L 57.6 159.955651 
L 72.748625 147.581752 
L 71.225284 137.379023 
L 71.418215 132.343017 
L 74.105313 117.540834 
L 70.8412 113.935384 
L 72.520848 97.944048 
L 57.6 97.745222 
M 57.6 168.015369 
L 64.466797 169.432622 
L 78.006857 170.585284 
L 80.899741 173.944769 
L 81.369776 176.018332 
L 78.006857 175.950983 
L 72.08343 177.272782 
L 57.6 177.636664 
L 57.6 182.667374 
L 62.228337 182.551092 
L 78.006857 179.030151 
L 86.964828 179.209551 
L 85.712771 173.686101 
L 78.006857 164.737276 
L 72.966655 164.308205 
L 57.6 161.136649 
M 57.6 190.286361 
L 67.669532 196.118617 
L 70.963094 200.54434 
L 69.903973 209.589129 
L 69.153833 215.268151 
L 71.137996 223.114257 
L 57.6 236.431685 
L 57.6 236.603858 
L 57.6 239.353354 
L 60.011809 252.311751 
L 59.780674 254.406361 
L 61.744804 272.719238 
L 73.852263 276.03746 
L 78.006857 284.915119 
L 83.111009 293.230101 
L 88.004196 302.211016 
L 94.856937 303.217042 
L 86.609683 288.080101 
L 78.006857 274.06556 
L 77.102715 272.133563 
L 74.467834 271.411437 
L 74.040391 267.426104 
L 75.78295 251.634559 
L 75.411673 249.639724 
L 78.006857 247.93393 
L 80.533096 236.228795 
L 81.156668 233.952073 
L 78.006857 229.138448 
L 72.38025 227.240846 
L 76.157516 223.525121 
L 73.43768 212.769893 
L 73.824838 209.838865 
L 75.221466 197.911804 
L 73.919058 196.161693 
L 57.6 186.709722 
" style="fill:#48c16e;"/>
   </g>
   <g id="PathCollection_15">
    <path clip-path="url(#p96141c8c83)" d="M 57.6 121.939614 
L 62.645695 127.512952 
L 61.824246 132.037998 
L 61.350381 144.407122 
L 61.769683 147.215439 
L 57.6 150.621374 
L 57.6 155.288513 
L 67.259154 147.398596 
L 66.287832 140.893073 
L 66.62123 132.190508 
L 68.375504 122.526893 
L 60.317714 113.626477 
L 60.662456 110.344307 
L 57.6 110.303498 
L 57.6 113.546701 
M 57.6 177.636664 
L 72.08343 177.272782 
L 78.006857 175.950983 
L 81.369776 176.018332 
L 80.899741 173.944769 
L 78.006857 170.585284 
L 64.466797 169.432622 
L 57.6 168.015369 
L 57.6 173.572494 
M 57.6 193.862999 
L 61.420006 196.07554 
L 66.704722 203.176876 
L 65.983107 209.339392 
L 64.869986 217.76641 
L 66.118476 222.703393 
L 57.6 231.083082 
L 57.6 236.431685 
L 71.137996 223.114257 
L 69.153833 215.268151 
L 69.903973 209.589129 
L 70.963094 200.54434 
L 67.669532 196.118617 
L 57.6 190.286361 
M 57.6 276.378025 
L 70.60181 279.941357 
L 78.006857 295.764677 
L 79.612335 298.380101 
L 81.151455 301.20499 
L 88.004196 302.211016 
L 83.111009 293.230101 
L 78.006857 284.915119 
L 73.852263 276.03746 
L 61.744804 272.719238 
L 59.780674 254.406361 
L 60.011809 252.311751 
L 57.6 239.353354 
L 57.6 252.415311 
L 57.6 273.145283 
" style="fill:#65cb5e;"/>
   </g>
   <g id="PathCollection_16">
    <path clip-path="url(#p96141c8c83)" d="M 57.6 150.621374 
L 61.769683 147.215439 
L 61.350381 144.407122 
L 61.824246 132.037998 
L 62.645695 127.512952 
L 57.6 121.939614 
L 57.6 131.903697 
L 57.6 147.076317 
M 57.6 199.297131 
L 62.44635 205.809412 
L 62.062242 209.089656 
L 60.58614 220.264668 
L 61.098955 222.292529 
L 57.6 225.734478 
L 57.6 231.083082 
L 66.118476 222.703393 
L 64.869986 217.76641 
L 65.983107 209.339392 
L 66.704722 203.176876 
L 61.420006 196.07554 
L 57.6 193.862999 
L 57.6 196.04921 
M 57.6 281.172755 
L 67.351358 283.845254 
L 74.888486 299.950809 
L 78.006857 300.743342 
L 81.151455 301.20499 
L 79.612335 298.380101 
L 78.006857 295.764677 
L 70.60181 279.941357 
L 57.6 276.378025 
" style="fill:#84d44b;"/>
   </g>
   <g id="PathCollection_17">
    <path clip-path="url(#p96141c8c83)" d="M 57.6 207.651854 
L 58.187978 208.441948 
L 58.141376 208.83992 
L 57.6 212.938474 
L 57.6 222.006128 
L 57.6 225.734478 
L 61.098955 222.292529 
L 60.58614 220.264668 
L 62.062242 209.089656 
L 62.44635 205.809412 
L 57.6 199.297131 
M 57.6 285.967485 
L 64.100905 287.74915 
L 69.125657 298.486187 
L 74.888486 299.950809 
L 67.351358 283.845254 
L 57.6 281.172755 
" style="fill:#a8db34;"/>
   </g>
   <g id="PathCollection_18">
    <path clip-path="url(#p96141c8c83)" d="M 57.6 212.938474 
L 58.141376 208.83992 
L 58.187978 208.441948 
L 57.6 207.651854 
L 57.6 208.805438 
M 57.6 290.762214 
L 60.850453 291.653047 
L 63.362829 297.021566 
L 69.125657 298.486187 
L 64.100905 287.74915 
L 57.6 285.967485 
" style="fill:#cae11f;"/>
   </g>
   <g id="PathCollection_19">
    <path clip-path="url(#p96141c8c83)" d="M 57.6 295.556944 
L 63.362829 297.021566 
L 60.850453 291.653047 
L 57.6 290.762214 
" style="fill:#efe51c;"/>
   </g>
   <g id="matplotlib.axis_1">
    <g id="xtick_1">
     <g id="line2d_1">
      <defs>
       <path d="M 0 0 
L 0 3.5 
" id="m56441556ff" style="stroke:#000000;stroke-width:0.8;"/>
      </defs>
      <g>
       <use style="stroke:#000000;stroke-width:0.8;" x="78.006857" xlink:href="#m56441556ff" y="303.7392"/>
      </g>
     </g>
     <g id="text_1">
      <!-- 6 -->
      <defs>
       <path d="M 33.015625 40.375 
Q 26.375 40.375 22.484375 35.828125 
Q 18.609375 31.296875 18.609375 23.390625 
Q 18.609375 15.53125 22.484375 10.953125 
Q 26.375 6.390625 33.015625 6.390625 
Q 39.65625 6.390625 43.53125 10.953125 
Q 47.40625 15.53125 47.40625 23.390625 
Q 47.40625 31.296875 43.53125 35.828125 
Q 39.65625 40.375 33.015625 40.375 
z
M 52.59375 71.296875 
L 52.59375 62.3125 
Q 48.875 64.0625 45.09375 64.984375 
Q 41.3125 65.921875 37.59375 65.921875 
Q 27.828125 65.921875 22.671875 59.328125 
Q 17.53125 52.734375 16.796875 39.40625 
Q 19.671875 43.65625 24.015625 45.921875 
Q 28.375 48.1875 33.59375 48.1875 
Q 44.578125 48.1875 50.953125 41.515625 
Q 57.328125 34.859375 57.328125 23.390625 
Q 57.328125 12.15625 50.6875 5.359375 
Q 44.046875 -1.421875 33.015625 -1.421875 
Q 20.359375 -1.421875 13.671875 8.265625 
Q 6.984375 17.96875 6.984375 36.375 
Q 6.984375 53.65625 15.1875 63.9375 
Q 23.390625 74.21875 37.203125 74.21875 
Q 40.921875 74.21875 44.703125 73.484375 
Q 48.484375 72.75 52.59375 71.296875 
z
" id="DejaVuSans-54"/>
      </defs>
      <g transform="translate(74.825607 318.337638)scale(0.1 -0.1)">
       <use xlink:href="#DejaVuSans-54"/>
      </g>
     </g>
    </g>
    <g id="xtick_2">
     <g id="line2d_2">
      <g>
       <use style="stroke:#000000;stroke-width:0.8;" x="118.820571" xlink:href="#m56441556ff" y="303.7392"/>
      </g>
     </g>
     <g id="text_2">
      <!-- 8 -->
      <defs>
       <path d="M 31.78125 34.625 
Q 24.75 34.625 20.71875 30.859375 
Q 16.703125 27.09375 16.703125 20.515625 
Q 16.703125 13.921875 20.71875 10.15625 
Q 24.75 6.390625 31.78125 6.390625 
Q 38.8125 6.390625 42.859375 10.171875 
Q 46.921875 13.96875 46.921875 20.515625 
Q 46.921875 27.09375 42.890625 30.859375 
Q 38.875 34.625 31.78125 34.625 
z
M 21.921875 38.8125 
Q 15.578125 40.375 12.03125 44.71875 
Q 8.5 49.078125 8.5 55.328125 
Q 8.5 64.0625 14.71875 69.140625 
Q 20.953125 74.21875 31.78125 74.21875 
Q 42.671875 74.21875 48.875 69.140625 
Q 55.078125 64.0625 55.078125 55.328125 
Q 55.078125 49.078125 51.53125 44.71875 
Q 48 40.375 41.703125 38.8125 
Q 48.828125 37.15625 52.796875 32.3125 
Q 56.78125 27.484375 56.78125 20.515625 
Q 56.78125 9.90625 50.3125 4.234375 
Q 43.84375 -1.421875 31.78125 -1.421875 
Q 19.734375 -1.421875 13.25 4.234375 
Q 6.78125 9.90625 6.78125 20.515625 
Q 6.78125 27.484375 10.78125 32.3125 
Q 14.796875 37.15625 21.921875 38.8125 
z
M 18.3125 54.390625 
Q 18.3125 48.734375 21.84375 45.5625 
Q 25.390625 42.390625 31.78125 42.390625 
Q 38.140625 42.390625 41.71875 45.5625 
Q 45.3125 48.734375 45.3125 54.390625 
Q 45.3125 60.0625 41.71875 63.234375 
Q 38.140625 66.40625 31.78125 66.40625 
Q 25.390625 66.40625 21.84375 63.234375 
Q 18.3125 60.0625 18.3125 54.390625 
z
" id="DejaVuSans-56"/>
      </defs>
      <g transform="translate(115.639321 318.337638)scale(0.1 -0.1)">
       <use xlink:href="#DejaVuSans-56"/>
      </g>
     </g>
    </g>
    <g id="xtick_3">
     <g id="line2d_3">
      <g>
       <use style="stroke:#000000;stroke-width:0.8;" x="159.634286" xlink:href="#m56441556ff" y="303.7392"/>
      </g>
     </g>
     <g id="text_3">
      <!-- 10 -->
      <defs>
       <path d="M 12.40625 8.296875 
L 28.515625 8.296875 
L 28.515625 63.921875 
L 10.984375 60.40625 
L 10.984375 69.390625 
L 28.421875 72.90625 
L 38.28125 72.90625 
L 38.28125 8.296875 
L 54.390625 8.296875 
L 54.390625 0 
L 12.40625 0 
z
" id="DejaVuSans-49"/>
       <path d="M 31.78125 66.40625 
Q 24.171875 66.40625 20.328125 58.90625 
Q 16.5 51.421875 16.5 36.375 
Q 16.5 21.390625 20.328125 13.890625 
Q 24.171875 6.390625 31.78125 6.390625 
Q 39.453125 6.390625 43.28125 13.890625 
Q 47.125 21.390625 47.125 36.375 
Q 47.125 51.421875 43.28125 58.90625 
Q 39.453125 66.40625 31.78125 66.40625 
z
M 31.78125 74.21875 
Q 44.046875 74.21875 50.515625 64.515625 
Q 56.984375 54.828125 56.984375 36.375 
Q 56.984375 17.96875 50.515625 8.265625 
Q 44.046875 -1.421875 31.78125 -1.421875 
Q 19.53125 -1.421875 13.0625 8.265625 
Q 6.59375 17.96875 6.59375 36.375 
Q 6.59375 54.828125 13.0625 64.515625 
Q 19.53125 74.21875 31.78125 74.21875 
z
" id="DejaVuSans-48"/>
      </defs>
      <g transform="translate(153.271786 318.337638)scale(0.1 -0.1)">
       <use xlink:href="#DejaVuSans-49"/>
       <use x="63.623047" xlink:href="#DejaVuSans-48"/>
      </g>
     </g>
    </g>
    <g id="xtick_4">
     <g id="line2d_4">
      <g>
       <use style="stroke:#000000;stroke-width:0.8;" x="200.448" xlink:href="#m56441556ff" y="303.7392"/>
      </g>
     </g>
     <g id="text_4">
      <!-- 12 -->
      <defs>
       <path d="M 19.1875 8.296875 
L 53.609375 8.296875 
L 53.609375 0 
L 7.328125 0 
L 7.328125 8.296875 
Q 12.9375 14.109375 22.625 23.890625 
Q 32.328125 33.6875 34.8125 36.53125 
Q 39.546875 41.84375 41.421875 45.53125 
Q 43.3125 49.21875 43.3125 52.78125 
Q 43.3125 58.59375 39.234375 62.25 
Q 35.15625 65.921875 28.609375 65.921875 
Q 23.96875 65.921875 18.8125 64.3125 
Q 13.671875 62.703125 7.8125 59.421875 
L 7.8125 69.390625 
Q 13.765625 71.78125 18.9375 73 
Q 24.125 74.21875 28.421875 74.21875 
Q 39.75 74.21875 46.484375 68.546875 
Q 53.21875 62.890625 53.21875 53.421875 
Q 53.21875 48.921875 51.53125 44.890625 
Q 49.859375 40.875 45.40625 35.40625 
Q 44.1875 33.984375 37.640625 27.21875 
Q 31.109375 20.453125 19.1875 8.296875 
z
" id="DejaVuSans-50"/>
      </defs>
      <g transform="translate(194.0855 318.337638)scale(0.1 -0.1)">
       <use xlink:href="#DejaVuSans-49"/>
       <use x="63.623047" xlink:href="#DejaVuSans-50"/>
      </g>
     </g>
    </g>
    <g id="xtick_5">
     <g id="line2d_5">
      <g>
       <use style="stroke:#000000;stroke-width:0.8;" x="241.261714" xlink:href="#m56441556ff" y="303.7392"/>
      </g>
     </g>
     <g id="text_5">
      <!-- 14 -->
      <defs>
       <path d="M 37.796875 64.3125 
L 12.890625 25.390625 
L 37.796875 25.390625 
z
M 35.203125 72.90625 
L 47.609375 72.90625 
L 47.609375 25.390625 
L 58.015625 25.390625 
L 58.015625 17.1875 
L 47.609375 17.1875 
L 47.609375 0 
L 37.796875 0 
L 37.796875 17.1875 
L 4.890625 17.1875 
L 4.890625 26.703125 
z
" id="DejaVuSans-52"/>
      </defs>
      <g transform="translate(234.899214 318.337638)scale(0.1 -0.1)">
       <use xlink:href="#DejaVuSans-49"/>
       <use x="63.623047" xlink:href="#DejaVuSans-52"/>
      </g>
     </g>
    </g>
    <g id="xtick_6">
     <g id="line2d_6">
      <g>
       <use style="stroke:#000000;stroke-width:0.8;" x="282.075429" xlink:href="#m56441556ff" y="303.7392"/>
      </g>
     </g>
     <g id="text_6">
      <!-- 16 -->
      <g transform="translate(275.712929 318.337638)scale(0.1 -0.1)">
       <use xlink:href="#DejaVuSans-49"/>
       <use x="63.623047" xlink:href="#DejaVuSans-54"/>
      </g>
     </g>
    </g>
    <g id="xtick_7">
     <g id="line2d_7">
      <g>
       <use style="stroke:#000000;stroke-width:0.8;" x="322.889143" xlink:href="#m56441556ff" y="303.7392"/>
      </g>
     </g>
     <g id="text_7">
      <!-- 18 -->
      <g transform="translate(316.526643 318.337638)scale(0.1 -0.1)">
       <use xlink:href="#DejaVuSans-49"/>
       <use x="63.623047" xlink:href="#DejaVuSans-56"/>
      </g>
     </g>
    </g>
    <g id="text_8">
     <!-- size -->
     <defs>
      <path d="M 44.28125 53.078125 
L 44.28125 44.578125 
Q 40.484375 46.53125 36.375 47.5 
Q 32.28125 48.484375 27.875 48.484375 
Q 21.1875 48.484375 17.84375 46.4375 
Q 14.5 44.390625 14.5 40.28125 
Q 14.5 37.15625 16.890625 35.375 
Q 19.28125 33.59375 26.515625 31.984375 
L 29.59375 31.296875 
Q 39.15625 29.25 43.1875 25.515625 
Q 47.21875 21.78125 47.21875 15.09375 
Q 47.21875 7.46875 41.1875 3.015625 
Q 35.15625 -1.421875 24.609375 -1.421875 
Q 20.21875 -1.421875 15.453125 -0.5625 
Q 10.6875 0.296875 5.421875 2 
L 5.421875 11.28125 
Q 10.40625 8.6875 15.234375 7.390625 
Q 20.0625 6.109375 24.8125 6.109375 
Q 31.15625 6.109375 34.5625 8.28125 
Q 37.984375 10.453125 37.984375 14.40625 
Q 37.984375 18.0625 35.515625 20.015625 
Q 33.0625 21.96875 24.703125 23.78125 
L 21.578125 24.515625 
Q 13.234375 26.265625 9.515625 29.90625 
Q 5.8125 33.546875 5.8125 39.890625 
Q 5.8125 47.609375 11.28125 51.796875 
Q 16.75 56 26.8125 56 
Q 31.78125 56 36.171875 55.265625 
Q 40.578125 54.546875 44.28125 53.078125 
z
" id="DejaVuSans-115"/>
      <path d="M 9.421875 54.6875 
L 18.40625 54.6875 
L 18.40625 0 
L 9.421875 0 
z
M 9.421875 75.984375 
L 18.40625 75.984375 
L 18.40625 64.59375 
L 9.421875 64.59375 
z
" id="DejaVuSans-105"/>
      <path d="M 5.515625 54.6875 
L 48.1875 54.6875 
L 48.1875 46.484375 
L 14.40625 7.171875 
L 48.1875 7.171875 
L 48.1875 0 
L 4.296875 0 
L 4.296875 8.203125 
L 38.09375 47.515625 
L 5.515625 47.515625 
z
" id="DejaVuSans-122"/>
      <path d="M 56.203125 29.59375 
L 56.203125 25.203125 
L 14.890625 25.203125 
Q 15.484375 15.921875 20.484375 11.0625 
Q 25.484375 6.203125 34.421875 6.203125 
Q 39.59375 6.203125 44.453125 7.46875 
Q 49.3125 8.734375 54.109375 11.28125 
L 54.109375 2.78125 
Q 49.265625 0.734375 44.1875 -0.34375 
Q 39.109375 -1.421875 33.890625 -1.421875 
Q 20.796875 -1.421875 13.15625 6.1875 
Q 5.515625 13.8125 5.515625 26.8125 
Q 5.515625 40.234375 12.765625 48.109375 
Q 20.015625 56 32.328125 56 
Q 43.359375 56 49.78125 48.890625 
Q 56.203125 41.796875 56.203125 29.59375 
z
M 47.21875 32.234375 
Q 47.125 39.59375 43.09375 43.984375 
Q 39.0625 48.390625 32.421875 48.390625 
Q 24.90625 48.390625 20.390625 44.140625 
Q 15.875 39.890625 15.1875 32.171875 
z
" id="DejaVuSans-101"/>
     </defs>
     <g transform="translate(188.814563 333.53545)scale(0.12 -0.12)">
      <use xlink:href="#DejaVuSans-115"/>
      <use x="52.099609" xlink:href="#DejaVuSans-105"/>
      <use x="79.882812" xlink:href="#DejaVuSans-122"/>
      <use x="132.373047" xlink:href="#DejaVuSans-101"/>
     </g>
    </g>
   </g>
   <g id="matplotlib.axis_2">
    <g id="ytick_1">
     <g id="line2d_8">
      <defs>
       <path d="M 0 0 
L -3.5 0 
" id="m702ea5af86" style="stroke:#000000;stroke-width:0.8;"/>
      </defs>
      <g>
       <use style="stroke:#000000;stroke-width:0.8;" x="57.6" xlink:href="#m702ea5af86" y="299.252168"/>
      </g>
     </g>
     <g id="text_9">
      <!-- 0.1 -->
      <defs>
       <path d="M 10.6875 12.40625 
L 21 12.40625 
L 21 0 
L 10.6875 0 
z
" id="DejaVuSans-46"/>
      </defs>
      <g transform="translate(34.696875 303.051387)scale(0.1 -0.1)">
       <use xlink:href="#DejaVuSans-48"/>
       <use x="63.623047" xlink:href="#DejaVuSans-46"/>
       <use x="95.410156" xlink:href="#DejaVuSans-49"/>
      </g>
     </g>
    </g>
    <g id="ytick_2">
     <g id="line2d_9">
      <g>
       <use style="stroke:#000000;stroke-width:0.8;" x="57.6" xlink:href="#m702ea5af86" y="259.041207"/>
      </g>
     </g>
     <g id="text_10">
      <!-- 0.2 -->
      <g transform="translate(34.696875 262.840426)scale(0.1 -0.1)">
       <use xlink:href="#DejaVuSans-48"/>
       <use x="63.623047" xlink:href="#DejaVuSans-46"/>
       <use x="95.410156" xlink:href="#DejaVuSans-50"/>
      </g>
     </g>
    </g>
    <g id="ytick_3">
     <g id="line2d_10">
      <g>
       <use style="stroke:#000000;stroke-width:0.8;" x="57.6" xlink:href="#m702ea5af86" y="218.830246"/>
      </g>
     </g>
     <g id="text_11">
      <!-- 0.3 -->
      <defs>
       <path d="M 40.578125 39.3125 
Q 47.65625 37.796875 51.625 33 
Q 55.609375 28.21875 55.609375 21.1875 
Q 55.609375 10.40625 48.1875 4.484375 
Q 40.765625 -1.421875 27.09375 -1.421875 
Q 22.515625 -1.421875 17.65625 -0.515625 
Q 12.796875 0.390625 7.625 2.203125 
L 7.625 11.71875 
Q 11.71875 9.328125 16.59375 8.109375 
Q 21.484375 6.890625 26.8125 6.890625 
Q 36.078125 6.890625 40.9375 10.546875 
Q 45.796875 14.203125 45.796875 21.1875 
Q 45.796875 27.640625 41.28125 31.265625 
Q 36.765625 34.90625 28.71875 34.90625 
L 20.21875 34.90625 
L 20.21875 43.015625 
L 29.109375 43.015625 
Q 36.375 43.015625 40.234375 45.921875 
Q 44.09375 48.828125 44.09375 54.296875 
Q 44.09375 59.90625 40.109375 62.90625 
Q 36.140625 65.921875 28.71875 65.921875 
Q 24.65625 65.921875 20.015625 65.03125 
Q 15.375 64.15625 9.8125 62.3125 
L 9.8125 71.09375 
Q 15.4375 72.65625 20.34375 73.4375 
Q 25.25 74.21875 29.59375 74.21875 
Q 40.828125 74.21875 47.359375 69.109375 
Q 53.90625 64.015625 53.90625 55.328125 
Q 53.90625 49.265625 50.4375 45.09375 
Q 46.96875 40.921875 40.578125 39.3125 
z
" id="DejaVuSans-51"/>
      </defs>
      <g transform="translate(34.696875 222.629465)scale(0.1 -0.1)">
       <use xlink:href="#DejaVuSans-48"/>
       <use x="63.623047" xlink:href="#DejaVuSans-46"/>
       <use x="95.410156" xlink:href="#DejaVuSans-51"/>
      </g>
     </g>
    </g>
    <g id="ytick_4">
     <g id="line2d_11">
      <g>
       <use style="stroke:#000000;stroke-width:0.8;" x="57.6" xlink:href="#m702ea5af86" y="178.619286"/>
      </g>
     </g>
     <g id="text_12">
      <!-- 0.4 -->
      <g transform="translate(34.696875 182.418505)scale(0.1 -0.1)">
       <use xlink:href="#DejaVuSans-48"/>
       <use x="63.623047" xlink:href="#DejaVuSans-46"/>
       <use x="95.410156" xlink:href="#DejaVuSans-52"/>
      </g>
     </g>
    </g>
    <g id="ytick_5">
     <g id="line2d_12">
      <g>
       <use style="stroke:#000000;stroke-width:0.8;" x="57.6" xlink:href="#m702ea5af86" y="138.408325"/>
      </g>
     </g>
     <g id="text_13">
      <!-- 0.5 -->
      <defs>
       <path d="M 10.796875 72.90625 
L 49.515625 72.90625 
L 49.515625 64.59375 
L 19.828125 64.59375 
L 19.828125 46.734375 
Q 21.96875 47.46875 24.109375 47.828125 
Q 26.265625 48.1875 28.421875 48.1875 
Q 40.625 48.1875 47.75 41.5 
Q 54.890625 34.8125 54.890625 23.390625 
Q 54.890625 11.625 47.5625 5.09375 
Q 40.234375 -1.421875 26.90625 -1.421875 
Q 22.3125 -1.421875 17.546875 -0.640625 
Q 12.796875 0.140625 7.71875 1.703125 
L 7.71875 11.625 
Q 12.109375 9.234375 16.796875 8.0625 
Q 21.484375 6.890625 26.703125 6.890625 
Q 35.15625 6.890625 40.078125 11.328125 
Q 45.015625 15.765625 45.015625 23.390625 
Q 45.015625 31 40.078125 35.4375 
Q 35.15625 39.890625 26.703125 39.890625 
Q 22.75 39.890625 18.8125 39.015625 
Q 14.890625 38.140625 10.796875 36.28125 
z
" id="DejaVuSans-53"/>
      </defs>
      <g transform="translate(34.696875 142.207544)scale(0.1 -0.1)">
       <use xlink:href="#DejaVuSans-48"/>
       <use x="63.623047" xlink:href="#DejaVuSans-46"/>
       <use x="95.410156" xlink:href="#DejaVuSans-53"/>
      </g>
     </g>
    </g>
    <g id="ytick_6">
     <g id="line2d_13">
      <g>
       <use style="stroke:#000000;stroke-width:0.8;" x="57.6" xlink:href="#m702ea5af86" y="98.197364"/>
      </g>
     </g>
     <g id="text_14">
      <!-- 0.6 -->
      <g transform="translate(34.696875 101.996583)scale(0.1 -0.1)">
       <use xlink:href="#DejaVuSans-48"/>
       <use x="63.623047" xlink:href="#DejaVuSans-46"/>
       <use x="95.410156" xlink:href="#DejaVuSans-54"/>
      </g>
     </g>
    </g>
    <g id="ytick_7">
     <g id="line2d_14">
      <g>
       <use style="stroke:#000000;stroke-width:0.8;" x="57.6" xlink:href="#m702ea5af86" y="57.986404"/>
      </g>
     </g>
     <g id="text_15">
      <!-- 0.7 -->
      <defs>
       <path d="M 8.203125 72.90625 
L 55.078125 72.90625 
L 55.078125 68.703125 
L 28.609375 0 
L 18.3125 0 
L 43.21875 64.59375 
L 8.203125 64.59375 
z
" id="DejaVuSans-55"/>
      </defs>
      <g transform="translate(34.696875 61.785623)scale(0.1 -0.1)">
       <use xlink:href="#DejaVuSans-48"/>
       <use x="63.623047" xlink:href="#DejaVuSans-46"/>
       <use x="95.410156" xlink:href="#DejaVuSans-55"/>
      </g>
     </g>
    </g>
    <g id="text_16">
     <!-- connectance -->
     <defs>
      <path d="M 48.78125 52.59375 
L 48.78125 44.1875 
Q 44.96875 46.296875 41.140625 47.34375 
Q 37.3125 48.390625 33.40625 48.390625 
Q 24.65625 48.390625 19.8125 42.84375 
Q 14.984375 37.3125 14.984375 27.296875 
Q 14.984375 17.28125 19.8125 11.734375 
Q 24.65625 6.203125 33.40625 6.203125 
Q 37.3125 6.203125 41.140625 7.25 
Q 44.96875 8.296875 48.78125 10.40625 
L 48.78125 2.09375 
Q 45.015625 0.34375 40.984375 -0.53125 
Q 36.96875 -1.421875 32.421875 -1.421875 
Q 20.0625 -1.421875 12.78125 6.34375 
Q 5.515625 14.109375 5.515625 27.296875 
Q 5.515625 40.671875 12.859375 48.328125 
Q 20.21875 56 33.015625 56 
Q 37.15625 56 41.109375 55.140625 
Q 45.0625 54.296875 48.78125 52.59375 
z
" id="DejaVuSans-99"/>
      <path d="M 30.609375 48.390625 
Q 23.390625 48.390625 19.1875 42.75 
Q 14.984375 37.109375 14.984375 27.296875 
Q 14.984375 17.484375 19.15625 11.84375 
Q 23.34375 6.203125 30.609375 6.203125 
Q 37.796875 6.203125 41.984375 11.859375 
Q 46.1875 17.53125 46.1875 27.296875 
Q 46.1875 37.015625 41.984375 42.703125 
Q 37.796875 48.390625 30.609375 48.390625 
z
M 30.609375 56 
Q 42.328125 56 49.015625 48.375 
Q 55.71875 40.765625 55.71875 27.296875 
Q 55.71875 13.875 49.015625 6.21875 
Q 42.328125 -1.421875 30.609375 -1.421875 
Q 18.84375 -1.421875 12.171875 6.21875 
Q 5.515625 13.875 5.515625 27.296875 
Q 5.515625 40.765625 12.171875 48.375 
Q 18.84375 56 30.609375 56 
z
" id="DejaVuSans-111"/>
      <path d="M 54.890625 33.015625 
L 54.890625 0 
L 45.90625 0 
L 45.90625 32.71875 
Q 45.90625 40.484375 42.875 44.328125 
Q 39.84375 48.1875 33.796875 48.1875 
Q 26.515625 48.1875 22.3125 43.546875 
Q 18.109375 38.921875 18.109375 30.90625 
L 18.109375 0 
L 9.078125 0 
L 9.078125 54.6875 
L 18.109375 54.6875 
L 18.109375 46.1875 
Q 21.34375 51.125 25.703125 53.5625 
Q 30.078125 56 35.796875 56 
Q 45.21875 56 50.046875 50.171875 
Q 54.890625 44.34375 54.890625 33.015625 
z
" id="DejaVuSans-110"/>
      <path d="M 18.3125 70.21875 
L 18.3125 54.6875 
L 36.8125 54.6875 
L 36.8125 47.703125 
L 18.3125 47.703125 
L 18.3125 18.015625 
Q 18.3125 11.328125 20.140625 9.421875 
Q 21.96875 7.515625 27.59375 7.515625 
L 36.8125 7.515625 
L 36.8125 0 
L 27.59375 0 
Q 17.1875 0 13.234375 3.875 
Q 9.28125 7.765625 9.28125 18.015625 
L 9.28125 47.703125 
L 2.6875 47.703125 
L 2.6875 54.6875 
L 9.28125 54.6875 
L 9.28125 70.21875 
z
" id="DejaVuSans-116"/>
      <path d="M 34.28125 27.484375 
Q 23.390625 27.484375 19.1875 25 
Q 14.984375 22.515625 14.984375 16.5 
Q 14.984375 11.71875 18.140625 8.90625 
Q 21.296875 6.109375 26.703125 6.109375 
Q 34.1875 6.109375 38.703125 11.40625 
Q 43.21875 16.703125 43.21875 25.484375 
L 43.21875 27.484375 
z
M 52.203125 31.203125 
L 52.203125 0 
L 43.21875 0 
L 43.21875 8.296875 
Q 40.140625 3.328125 35.546875 0.953125 
Q 30.953125 -1.421875 24.3125 -1.421875 
Q 15.921875 -1.421875 10.953125 3.296875 
Q 6 8.015625 6 15.921875 
Q 6 25.140625 12.171875 29.828125 
Q 18.359375 34.515625 30.609375 34.515625 
L 43.21875 34.515625 
L 43.21875 35.40625 
Q 43.21875 41.609375 39.140625 45 
Q 35.0625 48.390625 27.6875 48.390625 
Q 23 48.390625 18.546875 47.265625 
Q 14.109375 46.140625 10.015625 43.890625 
L 10.015625 52.203125 
Q 14.9375 54.109375 19.578125 55.046875 
Q 24.21875 56 28.609375 56 
Q 40.484375 56 46.34375 49.84375 
Q 52.203125 43.703125 52.203125 31.203125 
z
" id="DejaVuSans-97"/>
     </defs>
     <g transform="translate(28.20125 210.73515)rotate(-90)scale(0.12 -0.12)">
      <use xlink:href="#DejaVuSans-99"/>
      <use x="54.980469" xlink:href="#DejaVuSans-111"/>
      <use x="116.162109" xlink:href="#DejaVuSans-110"/>
      <use x="179.541016" xlink:href="#DejaVuSans-110"/>
      <use x="242.919922" xlink:href="#DejaVuSans-101"/>
      <use x="304.443359" xlink:href="#DejaVuSans-99"/>
      <use x="359.423828" xlink:href="#DejaVuSans-116"/>
      <use x="398.632812" xlink:href="#DejaVuSans-97"/>
      <use x="459.912109" xlink:href="#DejaVuSans-110"/>
      <use x="523.291016" xlink:href="#DejaVuSans-99"/>
      <use x="578.271484" xlink:href="#DejaVuSans-101"/>
     </g>
    </g>
   </g>
   <g id="patch_3">
    <path d="M 57.6 303.7392 
L 57.6 40.9536 
" style="fill:none;stroke:#000000;stroke-linecap:square;stroke-linejoin:miter;stroke-width:0.8;"/>
   </g>
   <g id="patch_4">
    <path d="M 343.296 303.7392 
L 343.296 40.9536 
" style="fill:none;stroke:#000000;stroke-linecap:square;stroke-linejoin:miter;stroke-width:0.8;"/>
   </g>
   <g id="patch_5">
    <path d="M 57.6 303.7392 
L 343.296 303.7392 
" style="fill:none;stroke:#000000;stroke-linecap:square;stroke-linejoin:miter;stroke-width:0.8;"/>
   </g>
   <g id="patch_6">
    <path d="M 57.6 40.9536 
L 343.296 40.9536 
" style="fill:none;stroke:#000000;stroke-linecap:square;stroke-linejoin:miter;stroke-width:0.8;"/>
   </g>
  </g>
  <g id="axes_2">
   <g id="patch_7">
    <path clip-path="url(#p53ef01de97)" d="M 361.152 303.7392 
L 361.152 289.908379 
L 361.152 54.784421 
L 361.152 40.9536 
L 374.29128 40.9536 
L 374.29128 54.784421 
L 374.29128 289.908379 
L 374.29128 303.7392 
z
" style="fill:#ffffff;stroke:#ffffff;stroke-linejoin:miter;stroke-width:0.01;"/>
   </g>
   <g id="QuadMesh_1">
    <path clip-path="url(#p53ef01de97)" d="M 361.152 303.7392 
L 374.29128 303.7392 
L 374.29128 289.908379 
L 361.152 289.908379 
L 361.152 303.7392 
" style="fill:#460a5d;"/>
    <path clip-path="url(#p53ef01de97)" d="M 361.152 289.908379 
L 374.29128 289.908379 
L 374.29128 276.077558 
L 361.152 276.077558 
L 361.152 289.908379 
" style="fill:#481d6f;"/>
    <path clip-path="url(#p53ef01de97)" d="M 361.152 276.077558 
L 374.29128 276.077558 
L 374.29128 262.246737 
L 361.152 262.246737 
L 361.152 276.077558 
" style="fill:#472e7c;"/>
    <path clip-path="url(#p53ef01de97)" d="M 361.152 262.246737 
L 374.29128 262.246737 
L 374.29128 248.415916 
L 361.152 248.415916 
L 361.152 262.246737 
" style="fill:#423f85;"/>
    <path clip-path="url(#p53ef01de97)" d="M 361.152 248.415916 
L 374.29128 248.415916 
L 374.29128 234.585095 
L 361.152 234.585095 
L 361.152 248.415916 
" style="fill:#3d4e8a;"/>
    <path clip-path="url(#p53ef01de97)" d="M 361.152 234.585095 
L 374.29128 234.585095 
L 374.29128 220.754274 
L 361.152 220.754274 
L 361.152 234.585095 
" style="fill:#365d8d;"/>
    <path clip-path="url(#p53ef01de97)" d="M 361.152 220.754274 
L 374.29128 220.754274 
L 374.29128 206.923453 
L 361.152 206.923453 
L 361.152 220.754274 
" style="fill:#306a8e;"/>
    <path clip-path="url(#p53ef01de97)" d="M 361.152 206.923453 
L 374.29128 206.923453 
L 374.29128 193.092632 
L 361.152 193.092632 
L 361.152 206.923453 
" style="fill:#2a778e;"/>
    <path clip-path="url(#p53ef01de97)" d="M 361.152 193.092632 
L 374.29128 193.092632 
L 374.29128 179.261811 
L 361.152 179.261811 
L 361.152 193.092632 
" style="fill:#25838e;"/>
    <path clip-path="url(#p53ef01de97)" d="M 361.152 179.261811 
L 374.29128 179.261811 
L 374.29128 165.430989 
L 361.152 165.430989 
L 361.152 179.261811 
" style="fill:#21918c;"/>
    <path clip-path="url(#p53ef01de97)" d="M 361.152 165.430989 
L 374.29128 165.430989 
L 374.29128 151.600168 
L 361.152 151.600168 
L 361.152 165.430989 
" style="fill:#1e9d89;"/>
    <path clip-path="url(#p53ef01de97)" d="M 361.152 151.600168 
L 374.29128 151.600168 
L 374.29128 137.769347 
L 361.152 137.769347 
L 361.152 151.600168 
" style="fill:#23a983;"/>
    <path clip-path="url(#p53ef01de97)" d="M 361.152 137.769347 
L 374.29128 137.769347 
L 374.29128 123.938526 
L 361.152 123.938526 
L 361.152 137.769347 
" style="fill:#32b67a;"/>
    <path clip-path="url(#p53ef01de97)" d="M 361.152 123.938526 
L 374.29128 123.938526 
L 374.29128 110.107705 
L 361.152 110.107705 
L 361.152 123.938526 
" style="fill:#48c16e;"/>
    <path clip-path="url(#p53ef01de97)" d="M 361.152 110.107705 
L 374.29128 110.107705 
L 374.29128 96.276884 
L 361.152 96.276884 
L 361.152 110.107705 
" style="fill:#65cb5e;"/>
    <path clip-path="url(#p53ef01de97)" d="M 361.152 96.276884 
L 374.29128 96.276884 
L 374.29128 82.446063 
L 361.152 82.446063 
L 361.152 96.276884 
" style="fill:#84d44b;"/>
    <path clip-path="url(#p53ef01de97)" d="M 361.152 82.446063 
L 374.29128 82.446063 
L 374.29128 68.615242 
L 361.152 68.615242 
L 361.152 82.446063 
" style="fill:#a8db34;"/>
    <path clip-path="url(#p53ef01de97)" d="M 361.152 68.615242 
L 374.29128 68.615242 
L 374.29128 54.784421 
L 361.152 54.784421 
L 361.152 68.615242 
" style="fill:#cae11f;"/>
    <path clip-path="url(#p53ef01de97)" d="M 361.152 54.784421 
L 374.29128 54.784421 
L 374.29128 40.9536 
L 361.152 40.9536 
L 361.152 54.784421 
" style="fill:#efe51c;"/>
   </g>
   <g id="matplotlib.axis_3"/>
   <g id="matplotlib.axis_4">
    <g id="ytick_8">
     <g id="line2d_15">
      <defs>
       <path d="M 0 0 
L 3.5 0 
" id="m42a509e790" style="stroke:#000000;stroke-width:0.8;"/>
      </defs>
      <g>
       <use style="stroke:#000000;stroke-width:0.8;" x="374.29128" xlink:href="#m42a509e790" y="303.7392"/>
      </g>
     </g>
     <g id="text_17">
      <!-- 0.0486 -->
      <g transform="translate(381.29128 307.538419)scale(0.1 -0.1)">
       <use xlink:href="#DejaVuSans-48"/>
       <use x="63.623047" xlink:href="#DejaVuSans-46"/>
       <use x="95.410156" xlink:href="#DejaVuSans-48"/>
       <use x="159.033203" xlink:href="#DejaVuSans-52"/>
       <use x="222.65625" xlink:href="#DejaVuSans-56"/>
       <use x="286.279297" xlink:href="#DejaVuSans-54"/>
      </g>
     </g>
    </g>
    <g id="ytick_9">
     <g id="line2d_16">
      <g>
       <use style="stroke:#000000;stroke-width:0.8;" x="374.29128" xlink:href="#m42a509e790" y="276.077558"/>
      </g>
     </g>
     <g id="text_18">
      <!-- 0.1288 -->
      <g transform="translate(381.29128 279.876777)scale(0.1 -0.1)">
       <use xlink:href="#DejaVuSans-48"/>
       <use x="63.623047" xlink:href="#DejaVuSans-46"/>
       <use x="95.410156" xlink:href="#DejaVuSans-49"/>
       <use x="159.033203" xlink:href="#DejaVuSans-50"/>
       <use x="222.65625" xlink:href="#DejaVuSans-56"/>
       <use x="286.279297" xlink:href="#DejaVuSans-56"/>
      </g>
     </g>
    </g>
    <g id="ytick_10">
     <g id="line2d_17">
      <g>
       <use style="stroke:#000000;stroke-width:0.8;" x="374.29128" xlink:href="#m42a509e790" y="248.415916"/>
      </g>
     </g>
     <g id="text_19">
      <!-- 0.2089 -->
      <defs>
       <path d="M 10.984375 1.515625 
L 10.984375 10.5 
Q 14.703125 8.734375 18.5 7.8125 
Q 22.3125 6.890625 25.984375 6.890625 
Q 35.75 6.890625 40.890625 13.453125 
Q 46.046875 20.015625 46.78125 33.40625 
Q 43.953125 29.203125 39.59375 26.953125 
Q 35.25 24.703125 29.984375 24.703125 
Q 19.046875 24.703125 12.671875 31.3125 
Q 6.296875 37.9375 6.296875 49.421875 
Q 6.296875 60.640625 12.9375 67.421875 
Q 19.578125 74.21875 30.609375 74.21875 
Q 43.265625 74.21875 49.921875 64.515625 
Q 56.59375 54.828125 56.59375 36.375 
Q 56.59375 19.140625 48.40625 8.859375 
Q 40.234375 -1.421875 26.421875 -1.421875 
Q 22.703125 -1.421875 18.890625 -0.6875 
Q 15.09375 0.046875 10.984375 1.515625 
z
M 30.609375 32.421875 
Q 37.25 32.421875 41.125 36.953125 
Q 45.015625 41.5 45.015625 49.421875 
Q 45.015625 57.28125 41.125 61.84375 
Q 37.25 66.40625 30.609375 66.40625 
Q 23.96875 66.40625 20.09375 61.84375 
Q 16.21875 57.28125 16.21875 49.421875 
Q 16.21875 41.5 20.09375 36.953125 
Q 23.96875 32.421875 30.609375 32.421875 
z
" id="DejaVuSans-57"/>
      </defs>
      <g transform="translate(381.29128 252.215135)scale(0.1 -0.1)">
       <use xlink:href="#DejaVuSans-48"/>
       <use x="63.623047" xlink:href="#DejaVuSans-46"/>
       <use x="95.410156" xlink:href="#DejaVuSans-50"/>
       <use x="159.033203" xlink:href="#DejaVuSans-48"/>
       <use x="222.65625" xlink:href="#DejaVuSans-56"/>
       <use x="286.279297" xlink:href="#DejaVuSans-57"/>
      </g>
     </g>
    </g>
    <g id="ytick_11">
     <g id="line2d_18">
      <g>
       <use style="stroke:#000000;stroke-width:0.8;" x="374.29128" xlink:href="#m42a509e790" y="220.754274"/>
      </g>
     </g>
     <g id="text_20">
      <!-- 0.2890 -->
      <g transform="translate(381.29128 224.553492)scale(0.1 -0.1)">
       <use xlink:href="#DejaVuSans-48"/>
       <use x="63.623047" xlink:href="#DejaVuSans-46"/>
       <use x="95.410156" xlink:href="#DejaVuSans-50"/>
       <use x="159.033203" xlink:href="#DejaVuSans-56"/>
       <use x="222.65625" xlink:href="#DejaVuSans-57"/>
       <use x="286.279297" xlink:href="#DejaVuSans-48"/>
      </g>
     </g>
    </g>
    <g id="ytick_12">
     <g id="line2d_19">
      <g>
       <use style="stroke:#000000;stroke-width:0.8;" x="374.29128" xlink:href="#m42a509e790" y="193.092632"/>
      </g>
     </g>
     <g id="text_21">
      <!-- 0.3691 -->
      <g transform="translate(381.29128 196.89185)scale(0.1 -0.1)">
       <use xlink:href="#DejaVuSans-48"/>
       <use x="63.623047" xlink:href="#DejaVuSans-46"/>
       <use x="95.410156" xlink:href="#DejaVuSans-51"/>
       <use x="159.033203" xlink:href="#DejaVuSans-54"/>
       <use x="222.65625" xlink:href="#DejaVuSans-57"/>
       <use x="286.279297" xlink:href="#DejaVuSans-49"/>
      </g>
     </g>
    </g>
    <g id="ytick_13">
     <g id="line2d_20">
      <g>
       <use style="stroke:#000000;stroke-width:0.8;" x="374.29128" xlink:href="#m42a509e790" y="165.430989"/>
      </g>
     </g>
     <g id="text_22">
      <!-- 0.4493 -->
      <g transform="translate(381.29128 169.230208)scale(0.1 -0.1)">
       <use xlink:href="#DejaVuSans-48"/>
       <use x="63.623047" xlink:href="#DejaVuSans-46"/>
       <use x="95.410156" xlink:href="#DejaVuSans-52"/>
       <use x="159.033203" xlink:href="#DejaVuSans-52"/>
       <use x="222.65625" xlink:href="#DejaVuSans-57"/>
       <use x="286.279297" xlink:href="#DejaVuSans-51"/>
      </g>
     </g>
    </g>
    <g id="ytick_14">
     <g id="line2d_21">
      <g>
       <use style="stroke:#000000;stroke-width:0.8;" x="374.29128" xlink:href="#m42a509e790" y="137.769347"/>
      </g>
     </g>
     <g id="text_23">
      <!-- 0.5294 -->
      <g transform="translate(381.29128 141.568566)scale(0.1 -0.1)">
       <use xlink:href="#DejaVuSans-48"/>
       <use x="63.623047" xlink:href="#DejaVuSans-46"/>
       <use x="95.410156" xlink:href="#DejaVuSans-53"/>
       <use x="159.033203" xlink:href="#DejaVuSans-50"/>
       <use x="222.65625" xlink:href="#DejaVuSans-57"/>
       <use x="286.279297" xlink:href="#DejaVuSans-52"/>
      </g>
     </g>
    </g>
    <g id="ytick_15">
     <g id="line2d_22">
      <g>
       <use style="stroke:#000000;stroke-width:0.8;" x="374.29128" xlink:href="#m42a509e790" y="110.107705"/>
      </g>
     </g>
     <g id="text_24">
      <!-- 0.6095 -->
      <g transform="translate(381.29128 113.906924)scale(0.1 -0.1)">
       <use xlink:href="#DejaVuSans-48"/>
       <use x="63.623047" xlink:href="#DejaVuSans-46"/>
       <use x="95.410156" xlink:href="#DejaVuSans-54"/>
       <use x="159.033203" xlink:href="#DejaVuSans-48"/>
       <use x="222.65625" xlink:href="#DejaVuSans-57"/>
       <use x="286.279297" xlink:href="#DejaVuSans-53"/>
      </g>
     </g>
    </g>
    <g id="ytick_16">
     <g id="line2d_23">
      <g>
       <use style="stroke:#000000;stroke-width:0.8;" x="374.29128" xlink:href="#m42a509e790" y="82.446063"/>
      </g>
     </g>
     <g id="text_25">
      <!-- 0.6896 -->
      <g transform="translate(381.29128 86.245282)scale(0.1 -0.1)">
       <use xlink:href="#DejaVuSans-48"/>
       <use x="63.623047" xlink:href="#DejaVuSans-46"/>
       <use x="95.410156" xlink:href="#DejaVuSans-54"/>
       <use x="159.033203" xlink:href="#DejaVuSans-56"/>
       <use x="222.65625" xlink:href="#DejaVuSans-57"/>
       <use x="286.279297" xlink:href="#DejaVuSans-54"/>
      </g>
     </g>
    </g>
    <g id="ytick_17">
     <g id="line2d_24">
      <g>
       <use style="stroke:#000000;stroke-width:0.8;" x="374.29128" xlink:href="#m42a509e790" y="54.784421"/>
      </g>
     </g>
     <g id="text_26">
      <!-- 0.7698 -->
      <g transform="translate(381.29128 58.58364)scale(0.1 -0.1)">
       <use xlink:href="#DejaVuSans-48"/>
       <use x="63.623047" xlink:href="#DejaVuSans-46"/>
       <use x="95.410156" xlink:href="#DejaVuSans-55"/>
       <use x="159.033203" xlink:href="#DejaVuSans-54"/>
       <use x="222.65625" xlink:href="#DejaVuSans-57"/>
       <use x="286.279297" xlink:href="#DejaVuSans-56"/>
      </g>
     </g>
    </g>
   </g>
   <g id="patch_8">
    <path d="M 361.152 303.7392 
L 361.152 289.908379 
L 361.152 54.784421 
L 361.152 40.9536 
L 374.29128 40.9536 
L 374.29128 54.784421 
L 374.29128 289.908379 
L 374.29128 303.7392 
z
" style="fill:none;stroke:#000000;stroke-linejoin:miter;stroke-width:0.8;"/>
   </g>
  </g>
 </g>
 <defs>
  <clipPath id="p96141c8c83">
   <rect height="262.7856" width="285.696" x="57.6" y="40.9536"/>
  </clipPath>
  <clipPath id="p53ef01de97">
   <rect height="262.7856" width="13.13928" x="361.152" y="40.9536"/>
  </clipPath>
 </defs>
</svg>
