<?xml version="1.0" encoding="utf-8" standalone="no"?>
<!DOCTYPE svg PUBLIC "-//W3C//DTD SVG 1.1//EN"
  "http://www.w3.org/Graphics/SVG/1.1/DTD/svg11.dtd">
<svg height="288pt" version="1.1" viewBox="0 0 432 288" width="432pt" xmlns="http://www.w3.org/2000/svg" xmlns:xlink="http://www.w3.org/1999/xlink">
 <metadata>
  <rdf:RDF xmlns:cc="http://creativecommons.org/ns#" xmlns:dc="http://purl.org/dc/elements/1.1/" xmlns:rdf="http://www.w3.org/1999/02/22-rdf-syntax-ns#">
   <cc:Work>
    <dc:type rdf:resource="http://purl.org/dc/dcmitype/StillImage"/>
    <dc:date>2021-07-11T15:27:46.171400</dc:date>
    <dc:format>image/svg+xml</dc:format>
    <dc:creator>
     <cc:Agent>
      <dc:title>Matplotlib v3.4.2, https://matplotlib.org/</dc:title>
     </cc:Agent>
    </dc:creator>
   </cc:Work>
  </rdf:RDF>
 </metadata>
 <defs>
  <style type="text/css">*{stroke-linecap:butt;stroke-linejoin:round;}</style>
 </defs>
 <g id="figure_1">
  <g id="patch_1">
   <path d="M 0 288 
L 432 288 
L 432 0 
L 0 0 
z
" style="fill:none;"/>
  </g>
  <g id="axes_1">
   <g id="patch_2">
    <path d="M 54 252 
L 321.84 252 
L 321.84 34.56 
L 54 34.56 
z
" style="fill:#ffffff;"/>
   </g>
   <g id="PathCollection_1">
    <path clip-path="url(#pd5eeb0d9a5)" d="M 253.876915 34.56 
L 254.657934 43.41584 
L 268.683327 41.607342 
L 291.131612 34.56 
L 268.619803 34.56 
M 160.389895 34.56 
L 169.864794 37.039653 
L 171.635322 49.056 
L 171.987287 49.294392 
L 172.389938 49.527917 
L 172.461655 49.056 
L 184.594906 44.298816 
L 193.689434 49.056 
L 197.661003 63.435698 
L 197.671274 63.552 
L 197.672271 63.655016 
L 197.76772 63.614421 
L 197.804776 63.591909 
L 197.828525 63.552 
L 198.088555 63.225143 
L 206.141482 49.056 
L 207.64868 44.391865 
L 212.15875 38.651566 
L 216.747477 38.891061 
L 227.550274 36.814645 
L 229.125446 34.56 
L 227.570591 34.56 
L 212.191639 34.56 
L 198.317876 34.56 
L 184.399778 34.56 
L 172.08377 34.56 
M 141.119665 34.56 
L 141.291461 39.836571 
L 143.478801 49.056 
L 146.191684 52.567001 
L 150.044066 53.327074 
L 148.875782 49.056 
L 157.904946 35.813752 
L 158.465014 34.56 
L 146.021159 34.56 
M 84.988617 34.56 
L 88.214115 44.586196 
L 93.453982 49.056 
L 99.402712 51.090264 
L 102.118225 50.351378 
L 106.390184 52.815134 
L 107.936468 49.056 
L 118.605831 44.643041 
L 125.004147 40.951896 
L 125.122867 34.56 
L 118.675902 34.56 
L 101.71144 34.56 
M 56.69936 50.148176 
L 57.636686 55.968695 
L 58.249502 62.907246 
L 58.217816 61.184568 
L 69.052208 49.056 
L 74.045783 39.308652 
L 80.568828 34.56 
L 56.965065 34.56 
" style="fill:#460a5d;"/>
   </g>
   <g id="PathCollection_2">
    <path clip-path="url(#pd5eeb0d9a5)" d="M 291.131612 34.56 
L 268.683327 41.607342 
L 254.657934 43.41584 
L 253.876915 34.56 
L 244.916795 34.56 
L 229.125446 34.56 
L 227.550274 36.814645 
L 216.747477 38.891061 
L 212.15875 38.651566 
L 207.64868 44.391865 
L 206.141482 49.056 
L 198.088555 63.225143 
L 197.828525 63.552 
L 197.804776 63.591909 
L 197.76772 63.614421 
L 197.672271 63.655016 
L 197.671274 63.552 
L 197.661003 63.435698 
L 193.689434 49.056 
L 184.594906 44.298816 
L 172.461655 49.056 
L 172.389938 49.527917 
L 171.987287 49.294392 
L 171.635322 49.056 
L 169.864794 37.039653 
L 160.389895 34.56 
L 159.009204 34.56 
L 158.465014 34.56 
L 157.904946 35.813752 
L 148.875782 49.056 
L 150.044066 53.327074 
L 146.191684 52.567001 
L 143.478801 49.056 
L 141.291461 39.836571 
L 141.119665 34.56 
L 132.934826 34.56 
L 125.122867 34.56 
L 125.004147 40.951896 
L 118.605831 44.643041 
L 107.936468 49.056 
L 106.390184 52.815134 
L 102.118225 50.351378 
L 99.402712 51.090264 
L 93.453982 49.056 
L 88.214115 44.586196 
L 84.988617 34.56 
L 81.908752 34.56 
L 80.568828 34.56 
L 74.045783 39.308652 
L 69.052208 49.056 
L 58.217816 61.184568 
L 58.249502 62.907246 
L 57.636686 55.968695 
L 56.69936 50.148176 
L 56.433655 65.736353 
L 58.308307 77.37739 
L 58.571709 80.359732 
L 58.800373 85.831677 
L 77.677231 89.505321 
L 80.163566 78.048 
L 82.753656 74.825641 
L 98.434244 63.552 
L 102.000166 62.581719 
L 103.682557 63.552 
L 104.287188 65.578502 
L 107.480575 78.048 
L 102.255604 86.669771 
L 93.873988 92.544 
L 102.412907 94.34078 
L 106.329695 92.544 
L 118.402842 85.111975 
L 125.296885 85.636046 
L 132.948479 85.31073 
L 137.993184 78.048 
L 146.144371 68.87738 
L 153.873667 69.517154 
L 159.312112 70.645184 
L 171.436403 63.99073 
L 168.306975 78.048 
L 171.906204 81.515372 
L 179.839883 83.431726 
L 184.743985 85.209133 
L 197.016132 92.544 
L 197.518165 92.847781 
L 197.800628 92.772259 
L 198.327616 92.544 
L 200.805737 80.803737 
L 204.453035 78.048 
L 209.121124 75.212035 
L 212.162305 70.101588 
L 215.768171 66.747997 
L 227.512297 69.819809 
L 238.244603 69.555966 
L 240.968495 78.048 
L 245.224531 82.172411 
L 252.745995 82.602894 
L 258.122728 78.048 
L 262.290162 73.890772 
L 268.965429 69.789977 
L 277.118026 74.999382 
L 309.733737 71.569724 
L 310.858236 55.627585 
L 311.014662 57.910213 
L 310.909877 52.081852 
L 310.716384 49.056 
L 309.606434 34.56 
" style="fill:#481d6f;"/>
   </g>
   <g id="PathCollection_3">
    <path clip-path="url(#pd5eeb0d9a5)" d="M 310.909877 52.081852 
L 311.014662 57.910213 
L 310.858236 55.627585 
L 309.733737 71.569724 
L 277.118026 74.999382 
L 268.965429 69.789977 
L 262.290162 73.890772 
L 258.122728 78.048 
L 252.745995 82.602894 
L 245.224531 82.172411 
L 240.968495 78.048 
L 238.244603 69.555966 
L 227.512297 69.819809 
L 215.768171 66.747997 
L 212.162305 70.101588 
L 209.121124 75.212035 
L 204.453035 78.048 
L 200.805737 80.803737 
L 198.327616 92.544 
L 197.800628 92.772259 
L 197.518165 92.847781 
L 197.016132 92.544 
L 184.743985 85.209133 
L 179.839883 83.431726 
L 171.906204 81.515372 
L 168.306975 78.048 
L 171.436403 63.99073 
L 159.312112 70.645184 
L 153.873667 69.517154 
L 146.144371 68.87738 
L 137.993184 78.048 
L 132.948479 85.31073 
L 125.296885 85.636046 
L 118.402842 85.111975 
L 106.329695 92.544 
L 102.412907 94.34078 
L 93.873988 92.544 
L 102.255604 86.669771 
L 107.480575 78.048 
L 104.287188 65.578502 
L 103.682557 63.552 
L 102.000166 62.581719 
L 98.434244 63.552 
L 82.753656 74.825641 
L 80.163566 78.048 
L 77.677231 89.505321 
L 58.800373 85.831677 
L 58.571709 80.359732 
L 58.308307 77.37739 
L 56.433655 65.736353 
L 56.16795 81.324529 
L 58.619045 96.545107 
L 58.672123 95.793175 
L 58.6856 97.673909 
L 58.749774 118.944288 
L 59.018607 124.916593 
L 59.425584 124.654337 
L 62.251924 123.253023 
L 65.555573 121.536 
L 82.246046 112.601558 
L 94.789582 107.04 
L 98.727908 104.377613 
L 102.34984 105.139749 
L 106.602276 103.188994 
L 118.515113 98.793877 
L 128.855171 107.04 
L 129.988712 109.772745 
L 132.781259 110.12918 
L 136.391625 107.04 
L 138.387353 98.474803 
L 146.193783 101.152392 
L 152.143043 100.279011 
L 159.16056 106.182776 
L 162.651045 103.045709 
L 171.812546 96.219598 
L 173.925627 94.952867 
L 184.764076 98.888888 
L 189.437123 101.716554 
L 197.965979 99.436199 
L 210.620656 93.95497 
L 211.981271 96.126277 
L 218.426595 100.903935 
L 227.355504 100.607241 
L 236.207107 99.75259 
L 234.343521 107.04 
L 245.357523 113.600995 
L 255.323051 113.025765 
L 255.586075 107.04 
L 268.899918 97.532296 
L 286.628564 92.544 
L 291.988763 85.999158 
L 311.194179 83.419148 
L 312.663698 106.98937 
L 312.560855 107.04 
L 312.666729 107.059558 
L 312.667904 107.074624 
L 312.67101 107.083687 
L 312.671692 107.072264 
L 312.672034 107.069142 
L 311.985995 68.910272 
M 157.122019 121.536 
L 158.059291 122.487758 
L 158.928693 122.894288 
L 160.833588 121.536 
L 159.104061 110.508051 
L 156.520866 118.838277 
" style="fill:#472e7c;"/>
   </g>
   <g id="PathCollection_4">
    <path clip-path="url(#pd5eeb0d9a5)" d="M 311.985995 68.910272 
L 312.672034 107.069142 
L 312.671692 107.072264 
L 312.67101 107.083687 
L 312.667904 107.074624 
L 312.666729 107.059558 
L 312.560855 107.04 
L 312.663698 106.98937 
L 311.194179 83.419148 
L 291.988763 85.999158 
L 286.628564 92.544 
L 268.899918 97.532296 
L 255.586075 107.04 
L 255.323051 113.025765 
L 245.357523 113.600995 
L 234.343521 107.04 
L 236.207107 99.75259 
L 227.355504 100.607241 
L 218.426595 100.903935 
L 211.981271 96.126277 
L 210.620656 93.95497 
L 197.965979 99.436199 
L 189.437123 101.716554 
L 184.764076 98.888888 
L 173.925627 94.952867 
L 171.812546 96.219598 
L 162.651045 103.045709 
L 159.16056 106.182776 
L 152.143043 100.279011 
L 146.193783 101.152392 
L 138.387353 98.474803 
L 136.391625 107.04 
L 132.781259 110.12918 
L 129.988712 109.772745 
L 128.855171 107.04 
L 118.515113 98.793877 
L 106.602276 103.188994 
L 102.34984 105.139749 
L 98.727908 104.377613 
L 94.789582 107.04 
L 82.246046 112.601558 
L 65.555573 121.536 
L 62.251924 123.253023 
L 59.425584 124.654337 
L 59.018607 124.916593 
L 58.749774 118.944288 
L 58.6856 97.673909 
L 58.672123 95.793175 
L 58.619045 96.545107 
L 56.16795 81.324529 
L 55.902244 96.912705 
L 58.052932 110.267839 
L 58.288057 106.936981 
L 58.347756 115.268135 
L 58.395166 130.981939 
L 58.778899 139.506843 
L 59.665207 151.177871 
L 62.21701 152.142054 
L 61.459238 150.528 
L 67.516551 145.556304 
L 73.05294 136.032 
L 78.278033 133.441371 
L 82.403887 131.297019 
L 93.175181 136.032 
L 102.185815 138.87875 
L 107.283242 136.032 
L 110.729855 129.200545 
L 117.330124 121.536 
L 117.732585 120.909234 
L 118.452273 120.171003 
L 118.843293 121.113675 
L 122.152067 121.536 
L 133.15737 123.03663 
L 134.405567 122.902869 
L 146.399628 123.067643 
L 152.306824 129.066133 
L 159.18537 132.282528 
L 167.296779 126.498677 
L 171.455965 122.969164 
L 173.140065 123.363041 
L 174.325712 121.536 
L 184.721253 111.974006 
L 194.616116 107.04 
L 198.131331 106.100139 
L 199.6955 105.422637 
L 200.708995 107.04 
L 211.993223 115.763627 
L 218.364583 115.5767 
L 227.60968 121.536 
L 227.970893 121.58559 
L 243.942173 122.428895 
L 245.26163 126.365484 
L 266.797902 122.95995 
L 269.110102 122.514505 
L 271.313411 121.536 
L 273.406608 108.54513 
L 311.362971 115.556684 
L 311.874646 122.117572 
L 313.227452 126.063968 
L 313.524413 121.089788 
L 313.673232 119.730379 
L 313.062113 85.738693 
M 156.520866 118.838277 
L 159.104061 110.508051 
L 160.833588 121.536 
L 158.928693 122.894288 
L 158.059291 122.487758 
L 157.122019 121.536 
" style="fill:#423f85;"/>
   </g>
   <g id="PathCollection_5">
    <path clip-path="url(#pd5eeb0d9a5)" d="M 313.062113 85.738693 
L 313.673232 119.730379 
L 313.524413 121.089788 
L 313.227452 126.063968 
L 311.874646 122.117572 
L 311.362971 115.556684 
L 273.406608 108.54513 
L 271.313411 121.536 
L 269.110102 122.514505 
L 266.797902 122.95995 
L 245.26163 126.365484 
L 243.942173 122.428895 
L 227.970893 121.58559 
L 227.60968 121.536 
L 218.364583 115.5767 
L 211.993223 115.763627 
L 200.708995 107.04 
L 199.6955 105.422637 
L 198.131331 106.100139 
L 194.616116 107.04 
L 184.721253 111.974006 
L 174.325712 121.536 
L 173.140065 123.363041 
L 171.455965 122.969164 
L 167.296779 126.498677 
L 159.18537 132.282528 
L 152.306824 129.066133 
L 146.399628 123.067643 
L 134.405567 122.902869 
L 133.15737 123.03663 
L 122.152067 121.536 
L 118.843293 121.113675 
L 118.452273 120.171003 
L 117.732585 120.909234 
L 117.330124 121.536 
L 110.729855 129.200545 
L 107.283242 136.032 
L 102.185815 138.87875 
L 93.175181 136.032 
L 82.403887 131.297019 
L 78.278033 133.441371 
L 73.05294 136.032 
L 67.516551 145.556304 
L 61.459238 150.528 
L 62.21701 152.142054 
L 59.665207 151.177871 
L 58.778899 139.506843 
L 58.395166 130.981939 
L 58.347756 115.268135 
L 58.288057 106.936981 
L 58.052932 110.267839 
L 55.902244 96.912705 
L 55.636539 112.500882 
L 57.486819 123.990572 
L 57.90399 118.080787 
L 58.009912 132.862361 
L 58.040557 143.019589 
L 58.288598 148.529993 
L 58.861497 156.074016 
L 80.638659 164.302382 
L 74.171814 150.528 
L 82.215899 143.92561 
L 98.658733 150.528 
L 102.224946 151.980204 
L 105.280032 153.236448 
L 105.115077 150.528 
L 118.460502 142.723183 
L 132.029371 137.002573 
L 133.010183 136.808623 
L 138.743405 136.032 
L 145.55856 135.301663 
L 146.225757 135.310829 
L 146.554358 135.644508 
L 147.383043 136.032 
L 159.106422 142.894586 
L 164.138194 136.032 
L 171.408181 129.86264 
L 181.192752 132.151054 
L 184.903533 126.432871 
L 190.881409 136.032 
L 198.252862 140.203206 
L 205.243993 143.285945 
L 205.870741 136.032 
L 212.120252 129.757413 
L 215.814402 125.10788 
L 227.830185 126.757495 
L 238.083647 127.298891 
L 241.010791 136.032 
L 245.417526 149.419738 
L 249.509213 150.528 
L 269.250507 153.11122 
L 274.165631 152.152625 
L 290.046226 150.528 
L 311.718847 139.020111 
L 313.783894 145.044249 
L 314.377134 135.107313 
L 314.674431 132.391616 
L 314.138231 102.567113 
" style="fill:#3d4e8a;"/>
   </g>
   <g id="PathCollection_6">
    <path clip-path="url(#pd5eeb0d9a5)" d="M 314.138231 102.567113 
L 314.674431 132.391616 
L 314.377134 135.107313 
L 313.783894 145.044249 
L 311.718847 139.020111 
L 290.046226 150.528 
L 274.165631 152.152625 
L 269.250507 153.11122 
L 249.509213 150.528 
L 245.417526 149.419738 
L 241.010791 136.032 
L 238.083647 127.298891 
L 227.830185 126.757495 
L 215.814402 125.10788 
L 212.120252 129.757413 
L 205.870741 136.032 
L 205.243993 143.285945 
L 198.252862 140.203206 
L 190.881409 136.032 
L 184.903533 126.432871 
L 181.192752 132.151054 
L 171.408181 129.86264 
L 164.138194 136.032 
L 159.106422 142.894586 
L 147.383043 136.032 
L 146.554358 135.644508 
L 146.225757 135.310829 
L 145.55856 135.301663 
L 138.743405 136.032 
L 133.010183 136.808623 
L 132.029371 137.002573 
L 118.460502 142.723183 
L 105.115077 150.528 
L 105.280032 153.236448 
L 102.224946 151.980204 
L 98.658733 150.528 
L 82.215899 143.92561 
L 74.171814 150.528 
L 80.638659 164.302382 
L 58.861497 156.074016 
L 58.288598 148.529993 
L 58.040557 143.019589 
L 58.009912 132.862361 
L 57.90399 118.080787 
L 57.486819 123.990572 
L 55.636539 112.500882 
L 55.370834 128.089058 
L 56.920706 137.713305 
L 57.519923 129.224593 
L 57.672068 150.456587 
L 57.685948 155.05724 
L 57.798297 157.553143 
L 58.057788 160.970161 
L 68.786663 165.024 
L 72.065305 171.016747 
L 82.450638 173.136906 
L 98.336666 165.024 
L 94.878123 159.798139 
L 102.106086 162.741452 
L 107.657064 165.024 
L 114.2582 168.738989 
L 118.573228 167.508076 
L 122.177664 165.024 
L 121.92008 153.906084 
L 133.223914 152.575993 
L 135.169496 152.677236 
L 146.253347 155.526798 
L 156.031138 153.782407 
L 158.962775 154.11767 
L 165.952097 150.528 
L 171.513894 139.980249 
L 176.204647 145.679487 
L 184.504091 148.577197 
L 193.283109 145.24872 
L 198.191152 148.025982 
L 203.865307 150.528 
L 202.711063 155.314328 
L 206.852138 165.024 
L 211.949408 168.222204 
L 216.125061 168.960012 
L 226.892069 165.024 
L 220.192953 157.239994 
L 219.082087 150.528 
L 219.734043 143.234567 
L 218.534896 136.032 
L 222.374266 131.199689 
L 227.689477 131.9294 
L 232.225121 132.168888 
L 233.51995 136.032 
L 235.694185 142.637364 
L 234.032047 150.528 
L 228.360648 164.49658 
L 245.262439 157.576554 
L 265.78162 162.943846 
L 269.205257 163.391841 
L 293.681444 158.618257 
L 313.556836 156.584954 
L 314.428687 157.872237 
L 314.674357 158.429585 
L 315.229855 149.124838 
L 315.675629 145.052853 
L 315.214349 119.395533 
M 169.214502 168.053617 
L 171.905077 166.960063 
L 174.647246 165.024 
L 181.966117 153.404599 
L 171.891785 156.971195 
L 168.583733 165.024 
" style="fill:#365d8d;"/>
   </g>
   <g id="PathCollection_7">
    <path clip-path="url(#pd5eeb0d9a5)" d="M 315.214349 119.395533 
L 315.675629 145.052853 
L 315.229855 149.124838 
L 314.674357 158.429585 
L 314.428687 157.872237 
L 313.556836 156.584954 
L 293.681444 158.618257 
L 269.205257 163.391841 
L 265.78162 162.943846 
L 245.262439 157.576554 
L 228.360648 164.49658 
L 234.032047 150.528 
L 235.694185 142.637364 
L 233.51995 136.032 
L 232.225121 132.168888 
L 227.689477 131.9294 
L 222.374266 131.199689 
L 218.534896 136.032 
L 219.734043 143.234567 
L 219.082087 150.528 
L 220.192953 157.239994 
L 226.892069 165.024 
L 216.125061 168.960012 
L 211.949408 168.222204 
L 206.852138 165.024 
L 202.711063 155.314328 
L 203.865307 150.528 
L 198.191152 148.025982 
L 193.283109 145.24872 
L 184.504091 148.577197 
L 176.204647 145.679487 
L 171.513894 139.980249 
L 165.952097 150.528 
L 158.962775 154.11767 
L 156.031138 153.782407 
L 146.253347 155.526798 
L 135.169496 152.677236 
L 133.223914 152.575993 
L 121.92008 153.906084 
L 122.177664 165.024 
L 118.573228 167.508076 
L 114.2582 168.738989 
L 107.657064 165.024 
L 102.106086 162.741452 
L 94.878123 159.798139 
L 98.336666 165.024 
L 82.450638 173.136906 
L 72.065305 171.016747 
L 68.786663 165.024 
L 58.057788 160.970161 
L 57.798297 157.553143 
L 57.685948 155.05724 
L 57.672068 150.456587 
L 57.519923 129.224593 
L 56.920706 137.713305 
L 55.370834 128.089058 
L 55.105129 143.677234 
L 56.354593 151.436038 
L 57.135857 140.368398 
L 57.319702 166.024295 
L 57.71719 169.945123 
L 61.788954 177.387551 
L 72.234488 179.52 
L 78.231914 191.141383 
L 82.678912 194.016 
L 83.130587 194.66381 
L 83.663366 194.417542 
L 84.256775 194.016 
L 88.694628 189.736148 
L 93.760059 179.52 
L 101.960104 176.613003 
L 103.964258 177.740902 
L 118.73517 173.527323 
L 131.073633 165.024 
L 131.028389 163.071175 
L 133.01387 162.837549 
L 144.707872 163.446078 
L 146.124394 163.810253 
L 147.374 163.587319 
L 159.138105 164.932669 
L 159.287767 164.855804 
L 159.218673 165.024 
L 161.647893 176.691677 
L 172.00985 172.480177 
L 182.570507 165.024 
L 184.603737 161.796055 
L 188.400966 160.997402 
L 198.183333 163.013246 
L 199.040899 165.024 
L 211.994249 173.151381 
L 222.605557 175.026325 
L 227.541434 173.221954 
L 234.674336 170.73609 
L 245.105819 165.024 
L 245.128051 165.014897 
L 245.162851 165.024 
L 260.57356 170.271261 
L 269.171903 172.014395 
L 312.571144 165.171147 
L 313.04028 165.145487 
L 315.109378 168.200498 
L 315.700535 169.541648 
L 316.082575 163.142362 
L 316.676827 157.71409 
L 316.290467 136.223954 
M 168.583733 165.024 
L 171.891785 156.971195 
L 181.966117 153.404599 
L 174.647246 165.024 
L 171.905077 166.960063 
L 169.214502 168.053617 
M 133.205344 179.74066 
L 133.178414 179.52 
L 134.072986 178.338734 
L 133.003386 178.686446 
L 132.823625 179.52 
L 133.004228 179.588404 
M 192.961315 179.52 
L 197.069618 180.387987 
L 197.884213 182.510491 
L 200.268288 179.52 
L 198.087391 169.262609 
L 191.203094 172.223944 
" style="fill:#306a8e;"/>
   </g>
   <g id="PathCollection_8">
    <path clip-path="url(#pd5eeb0d9a5)" d="M 316.290467 136.223954 
L 316.676827 157.71409 
L 316.082575 163.142362 
L 315.700535 169.541648 
L 315.109378 168.200498 
L 313.04028 165.145487 
L 312.571144 165.171147 
L 269.171903 172.014395 
L 260.57356 170.271261 
L 245.162851 165.024 
L 245.128051 165.014897 
L 245.105819 165.024 
L 234.674336 170.73609 
L 227.541434 173.221954 
L 222.605557 175.026325 
L 211.994249 173.151381 
L 199.040899 165.024 
L 198.183333 163.013246 
L 188.400966 160.997402 
L 184.603737 161.796055 
L 182.570507 165.024 
L 172.00985 172.480177 
L 161.647893 176.691677 
L 159.218673 165.024 
L 159.287767 164.855804 
L 159.138105 164.932669 
L 147.374 163.587319 
L 146.124394 163.810253 
L 144.707872 163.446078 
L 133.01387 162.837549 
L 131.028389 163.071175 
L 131.073633 165.024 
L 118.73517 173.527323 
L 103.964258 177.740902 
L 101.960104 176.613003 
L 93.760059 179.52 
L 88.694628 189.736148 
L 84.256775 194.016 
L 83.663366 194.417542 
L 83.130587 194.66381 
L 82.678912 194.016 
L 78.231914 191.141383 
L 72.234488 179.52 
L 61.788954 177.387551 
L 57.71719 169.945123 
L 57.319702 166.024295 
L 57.135857 140.368398 
L 56.354593 151.436038 
L 55.105129 143.677234 
L 54.839423 159.265411 
L 55.78848 165.158771 
L 56.75179 151.512204 
L 56.897446 171.838798 
L 57.894418 181.672939 
L 76.988982 194.016 
L 82.895967 202.488034 
L 89.863624 199.267353 
L 97.624204 194.016 
L 101.88546 189.906458 
L 107.350326 184.363735 
L 118.894348 179.559909 
L 118.931393 179.556642 
L 132.908166 184.850362 
L 145.015047 194.016 
L 144.68302 195.725292 
L 146.129821 194.671232 
L 146.897154 194.897488 
L 147.806443 194.016 
L 146.664175 181.015856 
L 146.481619 179.52 
L 146.712008 179.215775 
L 146.949927 179.257373 
L 147.054589 179.52 
L 159.015422 185.200619 
L 163.560034 184.434276 
L 168.375536 179.52 
L 172.114622 178.000291 
L 175.538152 175.583164 
L 176.308741 179.52 
L 180.876761 183.750986 
L 184.533509 181.636179 
L 194.123604 183.66234 
L 198.011138 193.791669 
L 209.388777 179.52 
L 208.627626 175.940089 
L 212.039089 178.080559 
L 220.185658 179.52 
L 225.530052 181.359419 
L 227.358408 181.543358 
L 231.258169 182.614361 
L 233.683091 179.52 
L 241.889143 176.660136 
L 245.292543 174.796496 
L 250.321408 176.508797 
L 265.17474 179.52 
L 269.119891 180.361434 
L 292.594795 179.52 
L 315.608879 178.261233 
L 315.790069 178.528759 
L 316.726713 180.653712 
L 316.935296 177.159887 
L 317.678026 170.375327 
L 317.366585 153.052374 
M 133.004228 179.588404 
L 132.823625 179.52 
L 133.003386 178.686446 
L 134.072986 178.338734 
L 133.178414 179.52 
L 133.205344 179.74066 
M 191.203094 172.223944 
L 198.087391 169.262609 
L 200.268288 179.52 
L 197.884213 182.510491 
L 197.069618 180.387987 
L 192.961315 179.52 
" style="fill:#2a778e;"/>
   </g>
   <g id="PathCollection_9">
    <path clip-path="url(#pd5eeb0d9a5)" d="M 317.366585 153.052374 
L 317.678026 170.375327 
L 316.935296 177.159887 
L 316.726713 180.653712 
L 315.790069 178.528759 
L 315.608879 178.261233 
L 292.594795 179.52 
L 269.119891 180.361434 
L 265.17474 179.52 
L 250.321408 176.508797 
L 245.292543 174.796496 
L 241.889143 176.660136 
L 233.683091 179.52 
L 231.258169 182.614361 
L 227.358408 181.543358 
L 225.530052 181.359419 
L 220.185658 179.52 
L 212.039089 178.080559 
L 208.627626 175.940089 
L 209.388777 179.52 
L 198.011138 193.791669 
L 194.123604 183.66234 
L 184.533509 181.636179 
L 180.876761 183.750986 
L 176.308741 179.52 
L 175.538152 175.583164 
L 172.114622 178.000291 
L 168.375536 179.52 
L 163.560034 184.434276 
L 159.015422 185.200619 
L 147.054589 179.52 
L 146.949927 179.257373 
L 146.712008 179.215775 
L 146.481619 179.52 
L 146.664175 181.015856 
L 147.806443 194.016 
L 146.897154 194.897488 
L 146.129821 194.671232 
L 144.68302 195.725292 
L 145.015047 194.016 
L 132.908166 184.850362 
L 118.931393 179.556642 
L 118.894348 179.559909 
L 107.350326 184.363735 
L 101.88546 189.906458 
L 97.624204 194.016 
L 89.863624 199.267353 
L 82.895967 202.488034 
L 76.988982 194.016 
L 57.894418 181.672939 
L 56.897446 171.838798 
L 56.75179 151.512204 
L 55.78848 165.158771 
L 54.839423 159.265411 
L 54.573718 174.853587 
L 55.222367 178.881503 
L 56.367723 162.65601 
L 56.475191 177.653301 
L 57.210773 184.90909 
L 71.299051 194.016 
L 80.642232 207.416361 
L 79.950084 208.512 
L 81.283567 209.302077 
L 82.73472 210.288038 
L 86.556044 208.512 
L 96.063882 204.117163 
L 101.788247 200.243656 
L 110.541351 194.016 
L 114.106004 190.400562 
L 118.430036 188.601198 
L 126.859346 187.857706 
L 132.812105 190.112321 
L 137.96847 194.016 
L 135.548263 206.475326 
L 146.094245 198.792101 
L 151.687468 200.441318 
L 158.315438 194.016 
L 158.261128 193.397892 
L 158.78501 193.646702 
L 170.086663 191.740941 
L 172.126243 189.659525 
L 174.1983 191.578703 
L 184.62037 185.551306 
L 191.177591 186.936692 
L 193.894557 194.016 
L 193.180314 199.584025 
L 197.982635 199.001696 
L 201.56901 197.710808 
L 206.13078 194.016 
L 212.322535 186.399723 
L 218.293578 188.454821 
L 227.174661 189.348288 
L 244.170838 194.016 
L 245.450755 194.183795 
L 246.127963 194.437062 
L 247.14736 194.016 
L 256.483383 186.415148 
L 268.872761 189.057592 
L 286.957938 188.409348 
L 317.575411 191.363127 
L 317.752891 191.765775 
L 317.788017 191.177411 
L 318.679224 183.036564 
L 318.442703 169.880795 
M 227.045851 208.730782 
L 227.424982 208.808184 
L 227.340521 208.512 
L 227.056216 207.179239 
L 226.020236 207.472406 
L 226.742989 208.512 
" style="fill:#25838e;"/>
   </g>
   <g id="PathCollection_10">
    <path clip-path="url(#pd5eeb0d9a5)" d="M 318.442703 169.880795 
L 318.679224 183.036564 
L 317.788017 191.177411 
L 317.752891 191.765775 
L 317.575411 191.363127 
L 286.957938 188.409348 
L 268.872761 189.057592 
L 256.483383 186.415148 
L 247.14736 194.016 
L 246.127963 194.437062 
L 245.450755 194.183795 
L 244.170838 194.016 
L 227.174661 189.348288 
L 218.293578 188.454821 
L 212.322535 186.399723 
L 206.13078 194.016 
L 201.56901 197.710808 
L 197.982635 199.001696 
L 193.180314 199.584025 
L 193.894557 194.016 
L 191.177591 186.936692 
L 184.62037 185.551306 
L 174.1983 191.578703 
L 172.126243 189.659525 
L 170.086663 191.740941 
L 158.78501 193.646702 
L 158.261128 193.397892 
L 158.315438 194.016 
L 151.687468 200.441318 
L 146.094245 198.792101 
L 135.548263 206.475326 
L 137.96847 194.016 
L 132.812105 190.112321 
L 126.859346 187.857706 
L 118.430036 188.601198 
L 114.106004 190.400562 
L 110.541351 194.016 
L 101.788247 200.243656 
L 96.063882 204.117163 
L 86.556044 208.512 
L 82.73472 210.288038 
L 81.283567 209.302077 
L 79.950084 208.512 
L 80.642232 207.416361 
L 71.299051 194.016 
L 57.210773 184.90909 
L 56.475191 177.653301 
L 56.367723 162.65601 
L 55.222367 178.881503 
L 54.573718 174.853587 
L 54.308013 190.441764 
L 54.656254 192.604236 
L 55.983657 173.799816 
L 56.052936 183.467803 
L 56.527128 188.14524 
L 65.609121 194.016 
L 71.632192 202.654528 
L 67.931856 208.512 
L 75.060881 212.735885 
L 82.818992 218.006999 
L 99.303462 210.345506 
L 101.724645 210.928258 
L 102.269949 209.051848 
L 119.103313 210.914517 
L 121.454096 210.529674 
L 133.850244 211.611946 
L 138.37345 208.512 
L 146.058669 202.91297 
L 156.477782 205.985148 
L 158.697902 203.832909 
L 167.991695 204.325505 
L 171.873051 203.285086 
L 176.840501 194.016 
L 184.707231 189.466433 
L 188.231577 190.211045 
L 189.691881 194.016 
L 188.248904 205.265019 
L 197.950979 204.088546 
L 205.196492 201.480579 
L 212.553337 195.521899 
L 221.584391 208.512 
L 226.888981 212.343936 
L 233.529426 213.699624 
L 232.050103 208.512 
L 229.343047 195.821932 
L 245.424989 197.930242 
L 261.222608 203.83835 
L 268.729412 200.737668 
L 287.632197 202.945621 
L 318.213865 197.882118 
L 319.007825 201.841728 
L 319.680422 195.697801 
L 319.518821 186.709215 
M 226.742989 208.512 
L 226.020236 207.472406 
L 227.056216 207.179239 
L 227.340521 208.512 
L 227.424982 208.808184 
L 227.045851 208.730782 
" style="fill:#21918c;"/>
   </g>
   <g id="PathCollection_11">
    <path clip-path="url(#pd5eeb0d9a5)" d="M 319.518821 186.709215 
L 319.680422 195.697801 
L 319.007825 201.841728 
L 318.213865 197.882118 
L 287.632197 202.945621 
L 268.729412 200.737668 
L 261.222608 203.83835 
L 245.424989 197.930242 
L 229.343047 195.821932 
L 232.050103 208.512 
L 233.529426 213.699624 
L 226.888981 212.343936 
L 221.584391 208.512 
L 212.553337 195.521899 
L 205.196492 201.480579 
L 197.950979 204.088546 
L 188.248904 205.265019 
L 189.691881 194.016 
L 188.231577 190.211045 
L 184.707231 189.466433 
L 176.840501 194.016 
L 171.873051 203.285086 
L 167.991695 204.325505 
L 158.697902 203.832909 
L 156.477782 205.985148 
L 146.058669 202.91297 
L 138.37345 208.512 
L 133.850244 211.611946 
L 121.454096 210.529674 
L 119.103313 210.914517 
L 102.269949 209.051848 
L 101.724645 210.928258 
L 99.303462 210.345506 
L 82.818992 218.006999 
L 75.060881 212.735885 
L 67.931856 208.512 
L 71.632192 202.654528 
L 65.609121 194.016 
L 56.527128 188.14524 
L 56.052936 183.467803 
L 55.983657 173.799816 
L 54.656254 192.604236 
L 54.308013 190.441764 
L 54.042307 206.02994 
L 54.090141 206.326969 
L 55.59959 184.943622 
L 55.63068 189.282306 
L 55.843482 191.38139 
L 59.919191 194.016 
L 62.622153 197.892696 
L 55.913628 208.512 
L 68.838195 216.169693 
L 78.902926 223.008 
L 81.409917 223.967393 
L 82.695643 225.2588 
L 84.907555 224.622006 
L 101.809269 225.311653 
L 106.14866 223.008 
L 108.532137 214.806379 
L 118.424611 215.901015 
L 125.654517 214.717419 
L 133.8905 215.436479 
L 143.994171 208.512 
L 146.023093 207.033838 
L 151.036192 208.512 
L 148.944362 219.548965 
L 158.807986 210.838856 
L 169.583602 211.076306 
L 171.676795 212.051493 
L 176.177962 213.534386 
L 185.194578 212.437323 
L 191.291322 215.801354 
L 197.726264 211.924413 
L 198.751003 209.365608 
L 199.762385 208.512 
L 208.823974 205.25035 
L 212.236577 202.48631 
L 216.425793 208.512 
L 226.732111 215.95709 
L 239.63387 218.591065 
L 236.759685 208.512 
L 235.011056 200.314821 
L 245.399223 201.676689 
L 263.67608 208.512 
L 260.291968 213.697154 
L 269.077932 212.009284 
L 283.609791 208.512 
L 318.53132 202.729932 
L 320.320845 211.654589 
L 320.681621 208.359038 
L 320.594939 203.537636 
M 182.070011 197.052038 
L 183.697072 194.016 
L 184.794092 193.38156 
L 185.285564 193.485397 
L 185.489204 194.016 
L 184.978911 197.994095 
" style="fill:#1e9d89;"/>
   </g>
   <g id="PathCollection_12">
    <path clip-path="url(#pd5eeb0d9a5)" d="M 320.594939 203.537636 
L 320.681621 208.359038 
L 320.320845 211.654589 
L 318.53132 202.729932 
L 283.609791 208.512 
L 269.077932 212.009284 
L 260.291968 213.697154 
L 263.67608 208.512 
L 245.399223 201.676689 
L 235.011056 200.314821 
L 236.759685 208.512 
L 239.63387 218.591065 
L 226.732111 215.95709 
L 216.425793 208.512 
L 212.236577 202.48631 
L 208.823974 205.25035 
L 199.762385 208.512 
L 198.751003 209.365608 
L 197.726264 211.924413 
L 191.291322 215.801354 
L 185.194578 212.437323 
L 176.177962 213.534386 
L 171.676795 212.051493 
L 169.583602 211.076306 
L 158.807986 210.838856 
L 148.944362 219.548965 
L 151.036192 208.512 
L 146.023093 207.033838 
L 143.994171 208.512 
L 133.8905 215.436479 
L 125.654517 214.717419 
L 118.424611 215.901015 
L 108.532137 214.806379 
L 106.14866 223.008 
L 101.809269 225.311653 
L 84.907555 224.622006 
L 82.695643 225.2588 
L 81.409917 223.967393 
L 78.902926 223.008 
L 68.838195 216.169693 
L 55.913628 208.512 
L 62.622153 197.892696 
L 59.919191 194.016 
L 55.843482 191.38139 
L 55.63068 189.282306 
L 55.59959 184.943622 
L 54.090141 206.326969 
L 54.042307 206.02994 
L 54 208.512 
L 55.122387 215.163892 
L 62.615509 219.603502 
L 67.626305 223.008 
L 77.253111 226.692055 
L 82.190276 231.651034 
L 90.683982 229.205755 
L 101.571625 229.650008 
L 114.083175 223.008 
L 114.794325 220.56091 
L 117.745908 220.887513 
L 129.854938 218.905164 
L 133.930755 219.261011 
L 141.247092 214.246812 
L 140.430072 223.008 
L 145.800408 227.1132 
L 149.593522 227.010464 
L 150.138935 223.008 
L 159.077739 215.114558 
L 166.067277 215.268578 
L 171.582542 217.838057 
L 183.44247 221.745265 
L 184.644291 221.599038 
L 187.197799 223.008 
L 195.001996 225.352514 
L 197.173702 225.193148 
L 200.164012 226.192993 
L 202.2544 223.008 
L 205.096583 215.910983 
L 211.964111 210.114774 
L 213.757236 210.310759 
L 226.575241 219.570243 
L 243.414088 223.008 
L 226.593195 235.973698 
L 225.239361 236.143566 
L 225.805955 237.504 
L 226.280714 237.879103 
L 226.687025 238.016222 
L 227.030846 237.848797 
L 227.905392 237.504 
L 245.280119 223.783844 
L 248.725703 223.008 
L 269.776603 218.963913 
L 313.206234 208.512 
L 318.848775 207.577747 
L 321.633865 221.46745 
L 321.682819 221.020275 
L 321.671057 220.366056 
M 184.978911 197.994095 
L 185.489204 194.016 
L 185.285564 193.485397 
L 184.794092 193.38156 
L 183.697072 194.016 
L 182.070011 197.052038 
M 245.167832 221.481967 
L 241.469266 208.512 
L 240.679064 204.80771 
L 245.373458 205.423136 
L 253.632735 208.512 
" style="fill:#23a983;"/>
   </g>
   <g id="PathCollection_13">
    <path clip-path="url(#pd5eeb0d9a5)" d="M 56.463279 223.073165 
L 56.458303 223.049567 
L 73.096304 229.416716 
L 81.148013 237.504 
L 81.344932 237.819727 
L 81.711768 237.740407 
L 83.527766 238.853816 
L 83.558064 237.504 
L 96.460408 233.789504 
L 101.333982 233.988362 
L 110.687012 229.023118 
L 115.666104 237.504 
L 119.468709 238.584786 
L 120.625112 237.504 
L 133.957474 223.125229 
L 134.179891 223.27049 
L 145.681465 232.062542 
L 154.04766 231.835944 
L 155.250638 223.008 
L 159.347492 219.390259 
L 162.550953 219.46085 
L 170.164741 223.008 
L 171.491229 224.54758 
L 172.14477 223.745655 
L 184.452793 227.336818 
L 191.386881 229.419936 
L 197.326208 228.984091 
L 205.504309 231.718534 
L 211.221244 223.008 
L 211.442163 222.456358 
L 211.975967 222.005826 
L 221.145195 223.008 
L 213.007836 224.029011 
L 218.619903 237.504 
L 223.322347 241.219369 
L 227.346834 242.577522 
L 230.752348 240.919188 
L 239.414658 237.504 
L 246.66126 231.781636 
L 261.866866 228.357782 
L 269.829041 229.550083 
L 291.792619 229.274844 
L 320.828393 231.783395 
L 321.731255 228.285343 
L 321.84 223.008 
L 321.671057 220.366056 
L 321.682819 221.020275 
L 321.633865 221.46745 
L 318.848775 207.577747 
L 313.206234 208.512 
L 269.776603 218.963913 
L 248.725703 223.008 
L 245.280119 223.783844 
L 227.905392 237.504 
L 227.030846 237.848797 
L 226.687025 238.016222 
L 226.280714 237.879103 
L 225.805955 237.504 
L 225.239361 236.143566 
L 226.593195 235.973698 
L 243.414088 223.008 
L 226.575241 219.570243 
L 213.757236 210.310759 
L 211.964111 210.114774 
L 205.096583 215.910983 
L 202.2544 223.008 
L 200.164012 226.192993 
L 197.173702 225.193148 
L 195.001996 225.352514 
L 187.197799 223.008 
L 184.644291 221.599038 
L 183.44247 221.745265 
L 171.582542 217.838057 
L 166.067277 215.268578 
L 159.077739 215.114558 
L 150.138935 223.008 
L 149.593522 227.010464 
L 145.800408 227.1132 
L 140.430072 223.008 
L 141.247092 214.246812 
L 133.930755 219.261011 
L 129.854938 218.905164 
L 117.745908 220.887513 
L 114.794325 220.56091 
L 114.083175 223.008 
L 101.571625 229.650008 
L 90.683982 229.205755 
L 82.190276 231.651034 
L 77.253111 226.692055 
L 67.626305 223.008 
L 62.615509 219.603502 
L 55.122387 215.163892 
L 56.445938 223.008 
M 253.632735 208.512 
L 245.373458 205.423136 
L 240.679064 204.80771 
L 241.469266 208.512 
L 245.167832 221.481967 
" style="fill:#32b67a;"/>
   </g>
   <g id="PathCollection_14">
    <path clip-path="url(#pd5eeb0d9a5)" d="M 58.494786 230.70758 
L 57.906953 227.919364 
L 68.939498 232.141377 
L 74.278531 237.504 
L 76.809636 241.562206 
L 81.524779 240.542666 
L 100.211973 252 
L 101.060564 252 
L 102.652578 252 
L 102.815963 238.946025 
L 118.918872 243.522832 
L 125.358815 237.504 
L 133.330131 228.907043 
L 144.522337 236.216743 
L 145.562522 237.011883 
L 158.501799 236.661423 
L 159.436979 229.798688 
L 166.916427 237.504 
L 170.945517 238.232207 
L 171.567664 238.119384 
L 172.640076 237.504 
L 178.211145 230.668039 
L 184.326499 232.452342 
L 187.771765 233.487358 
L 197.478714 232.775034 
L 210.844605 237.244076 
L 211.138869 236.795725 
L 211.433852 237.504 
L 220.36398 244.559635 
L 228.006643 247.138822 
L 234.47385 243.98958 
L 247.308602 238.929371 
L 264.820104 252 
L 268.129427 252 
L 275.059123 252 
L 277.163904 239.675184 
L 320.318265 239.520192 
L 321.602258 234.545485 
L 321.731255 228.285343 
L 320.828393 231.783395 
L 291.792619 229.274844 
L 269.829041 229.550083 
L 261.866866 228.357782 
L 246.66126 231.781636 
L 239.414658 237.504 
L 230.752348 240.919188 
L 227.346834 242.577522 
L 223.322347 241.219369 
L 218.619903 237.504 
L 213.007836 224.029011 
L 221.145195 223.008 
L 211.975967 222.005826 
L 211.442163 222.456358 
L 211.221244 223.008 
L 205.504309 231.718534 
L 197.326208 228.984091 
L 191.386881 229.419936 
L 184.452793 227.336818 
L 172.14477 223.745655 
L 171.491229 224.54758 
L 170.164741 223.008 
L 162.550953 219.46085 
L 159.347492 219.390259 
L 155.250638 223.008 
L 154.04766 231.835944 
L 145.681465 232.062542 
L 134.179891 223.27049 
L 133.957474 223.125229 
L 120.625112 237.504 
L 119.468709 238.584786 
L 115.666104 237.504 
L 110.687012 229.023118 
L 101.333982 233.988362 
L 96.460408 233.789504 
L 83.558064 237.504 
L 83.527766 238.853816 
L 81.711768 237.740407 
L 81.344932 237.819727 
L 81.148013 237.504 
L 73.096304 229.416716 
L 56.458303 223.049567 
L 56.463279 223.073165 
" style="fill:#48c16e;"/>
   </g>
   <g id="PathCollection_15">
    <path clip-path="url(#pd5eeb0d9a5)" d="M 60.526294 238.341994 
L 59.355603 232.789161 
L 64.782691 234.866038 
L 67.409049 237.504 
L 72.274339 245.304686 
L 81.337789 243.344925 
L 95.45443 252 
L 100.211973 252 
L 81.524779 240.542666 
L 76.809636 241.562206 
L 74.278531 237.504 
L 68.939498 232.141377 
L 57.906953 227.919364 
L 58.494786 230.70758 
M 111.578042 252 
L 111.646254 246.550114 
L 118.369035 248.460879 
L 130.092517 237.504 
L 132.702789 234.688857 
L 137.013178 237.504 
L 140.726807 244.381765 
L 146.207701 240.167905 
L 157.542738 239.983562 
L 160.430744 244.236685 
L 166.23826 245.286321 
L 172.887123 244.080585 
L 184.112762 237.638959 
L 184.225605 237.649759 
L 184.848638 237.504 
L 197.63122 236.565977 
L 200.436635 237.504 
L 203.065818 247.86734 
L 212.266442 243.839476 
L 217.405614 247.899901 
L 228.666452 251.700122 
L 238.195352 247.059971 
L 246.110548 243.939339 
L 256.909897 252 
L 264.820104 252 
L 247.308602 238.929371 
L 234.47385 243.98958 
L 228.006643 247.138822 
L 220.36398 244.559635 
L 211.433852 237.504 
L 211.138869 236.795725 
L 210.844605 237.244076 
L 197.478714 232.775034 
L 187.771765 233.487358 
L 184.326499 232.452342 
L 178.211145 230.668039 
L 172.640076 237.504 
L 171.567664 238.119384 
L 170.945517 238.232207 
L 166.916427 237.504 
L 159.436979 229.798688 
L 158.501799 236.661423 
L 145.562522 237.011883 
L 144.522337 236.216743 
L 133.330131 228.907043 
L 125.358815 237.504 
L 118.918872 243.522832 
L 102.815963 238.946025 
L 102.652578 252 
M 291.623035 252 
L 292.972927 244.095536 
L 320.649778 243.996132 
L 321.473261 240.805627 
L 321.602258 234.545485 
L 320.318265 239.520192 
L 277.163904 239.675184 
L 275.059123 252 
" style="fill:#65cb5e;"/>
   </g>
   <g id="PathCollection_16">
    <path clip-path="url(#pd5eeb0d9a5)" d="M 62.557802 245.976409 
L 60.890058 238.065956 
L 67.739043 249.047165 
L 81.150799 246.147184 
L 90.696887 252 
L 95.45443 252 
L 81.337789 243.344925 
L 72.274339 245.304686 
L 67.409049 237.504 
L 64.782691 234.866038 
L 59.355603 232.789161 
L 60.526294 238.341994 
M 135.394898 252 
L 146.937247 243.125929 
L 155.438524 242.987672 
L 161.558183 252 
L 161.758178 252 
L 163.408281 252 
L 174.206582 250.041786 
L 176.982318 248.44898 
L 186.133723 249.324898 
L 189.161224 248.61661 
L 190.157899 252 
L 199.863641 252 
L 210.040362 252 
L 213.494853 250.487687 
L 214.447247 251.240168 
L 216.698788 252 
L 228.709831 252 
L 238.077413 252 
L 241.916854 250.130363 
L 244.912494 248.949306 
L 248.99969 252 
L 256.909897 252 
L 246.110548 243.939339 
L 238.195352 247.059971 
L 228.666452 251.700122 
L 217.405614 247.899901 
L 212.266442 243.839476 
L 203.065818 247.86734 
L 200.436635 237.504 
L 197.63122 236.565977 
L 184.848638 237.504 
L 184.225605 237.649759 
L 184.112762 237.638959 
L 172.887123 244.080585 
L 166.23826 245.286321 
L 160.430744 244.236685 
L 157.542738 239.983562 
L 146.207701 240.167905 
L 140.726807 244.381765 
L 137.013178 237.504 
L 132.702789 234.688857 
L 130.092517 237.504 
L 118.369035 248.460879 
L 111.646254 246.550114 
L 111.578042 252 
L 117.974964 252 
L 135.383573 252 
M 308.186948 252 
L 308.78195 248.515888 
L 320.981291 248.472073 
L 321.344264 247.065769 
L 321.473261 240.805627 
L 320.649778 243.996132 
L 292.972927 244.095536 
L 291.623035 252 
" style="fill:#84d44b;"/>
   </g>
   <g id="PathCollection_17">
    <path clip-path="url(#pd5eeb0d9a5)" d="M 66.855674 252 
L 80.96381 248.949442 
L 85.939344 252 
L 90.696887 252 
L 81.150799 246.147184 
L 67.739043 249.047165 
L 60.890058 238.065956 
L 62.557802 245.976409 
L 64.160672 252 
M 139.971893 252 
L 147.666792 246.083952 
L 153.33431 245.991781 
L 157.414083 252 
L 161.558183 252 
L 155.438524 242.987672 
L 146.937247 243.125929 
L 135.394898 252 
M 190.157899 252 
L 189.161224 248.61661 
L 186.133723 249.324898 
L 176.982318 248.44898 
L 174.206582 250.041786 
L 163.408281 252 
L 174.640015 252 
L 186.570927 252 
M 216.698788 252 
L 214.447247 251.240168 
L 213.494853 250.487687 
L 210.040362 252 
L 213.774288 252 
M 248.99969 252 
L 244.912494 248.949306 
L 241.916854 250.130363 
L 238.077413 252 
L 244.182969 252 
M 321.344264 247.065769 
L 320.981291 248.472073 
L 308.78195 248.515888 
L 308.186948 252 
L 321.242589 252 
" style="fill:#a8db34;"/>
   </g>
   <g id="PathCollection_18">
    <path clip-path="url(#pd5eeb0d9a5)" d="M 79.628494 252 
L 80.77682 251.751701 
L 81.181802 252 
L 85.939344 252 
L 80.96381 248.949442 
L 66.855674 252 
M 144.548888 252 
L 148.396337 249.041976 
L 151.230097 248.995891 
L 153.269983 252 
L 157.414083 252 
L 153.33431 245.991781 
L 147.666792 246.083952 
L 139.971893 252 
" style="fill:#cae11f;"/>
   </g>
   <g id="PathCollection_19">
    <path clip-path="url(#pd5eeb0d9a5)" d="M 81.181802 252 
L 80.77682 251.751701 
L 79.628494 252 
L 80.760252 252 
M 149.125883 252 
L 153.269983 252 
L 151.230097 248.995891 
L 148.396337 249.041976 
L 144.548888 252 
" style="fill:#efe51c;"/>
   </g>
   <g id="matplotlib.axis_1">
    <g id="xtick_1">
     <g id="line2d_1">
      <defs>
       <path d="M 0 0 
L 0 3.5 
" id="me5bf248437" style="stroke:#000000;stroke-width:0.8;"/>
      </defs>
      <g>
       <use style="stroke:#000000;stroke-width:0.8;" x="66.282232" xlink:href="#me5bf248437" y="252"/>
      </g>
     </g>
     <g id="text_1">
      <!-- 0.1 -->
      <g transform="translate(58.330669 266.598437)scale(0.1 -0.1)">
       <defs>
        <path d="M 2034 4250 
Q 1547 4250 1301 3770 
Q 1056 3291 1056 2328 
Q 1056 1369 1301 889 
Q 1547 409 2034 409 
Q 2525 409 2770 889 
Q 3016 1369 3016 2328 
Q 3016 3291 2770 3770 
Q 2525 4250 2034 4250 
z
M 2034 4750 
Q 2819 4750 3233 4129 
Q 3647 3509 3647 2328 
Q 3647 1150 3233 529 
Q 2819 -91 2034 -91 
Q 1250 -91 836 529 
Q 422 1150 422 2328 
Q 422 3509 836 4129 
Q 1250 4750 2034 4750 
z
" id="DejaVuSans-30" transform="scale(0.015625)"/>
        <path d="M 684 794 
L 1344 794 
L 1344 0 
L 684 0 
L 684 794 
z
" id="DejaVuSans-2e" transform="scale(0.015625)"/>
        <path d="M 794 531 
L 1825 531 
L 1825 4091 
L 703 3866 
L 703 4441 
L 1819 4666 
L 2450 4666 
L 2450 531 
L 3481 531 
L 3481 0 
L 794 0 
L 794 531 
z
" id="DejaVuSans-31" transform="scale(0.015625)"/>
       </defs>
       <use xlink:href="#DejaVuSans-30"/>
       <use x="63.623047" xlink:href="#DejaVuSans-2e"/>
       <use x="95.410156" xlink:href="#DejaVuSans-31"/>
      </g>
     </g>
    </g>
    <g id="xtick_2">
     <g id="line2d_2">
      <g>
       <use style="stroke:#000000;stroke-width:0.8;" x="105.75977" xlink:href="#me5bf248437" y="252"/>
      </g>
     </g>
     <g id="text_2">
      <!-- 0.2 -->
      <g transform="translate(97.808208 266.598437)scale(0.1 -0.1)">
       <defs>
        <path d="M 1228 531 
L 3431 531 
L 3431 0 
L 469 0 
L 469 531 
Q 828 903 1448 1529 
Q 2069 2156 2228 2338 
Q 2531 2678 2651 2914 
Q 2772 3150 2772 3378 
Q 2772 3750 2511 3984 
Q 2250 4219 1831 4219 
Q 1534 4219 1204 4116 
Q 875 4013 500 3803 
L 500 4441 
Q 881 4594 1212 4672 
Q 1544 4750 1819 4750 
Q 2544 4750 2975 4387 
Q 3406 4025 3406 3419 
Q 3406 3131 3298 2873 
Q 3191 2616 2906 2266 
Q 2828 2175 2409 1742 
Q 1991 1309 1228 531 
z
" id="DejaVuSans-32" transform="scale(0.015625)"/>
       </defs>
       <use xlink:href="#DejaVuSans-30"/>
       <use x="63.623047" xlink:href="#DejaVuSans-2e"/>
       <use x="95.410156" xlink:href="#DejaVuSans-32"/>
      </g>
     </g>
    </g>
    <g id="xtick_3">
     <g id="line2d_3">
      <g>
       <use style="stroke:#000000;stroke-width:0.8;" x="145.237308" xlink:href="#me5bf248437" y="252"/>
      </g>
     </g>
     <g id="text_3">
      <!-- 0.3 -->
      <g transform="translate(137.285746 266.598437)scale(0.1 -0.1)">
       <defs>
        <path d="M 2597 2516 
Q 3050 2419 3304 2112 
Q 3559 1806 3559 1356 
Q 3559 666 3084 287 
Q 2609 -91 1734 -91 
Q 1441 -91 1130 -33 
Q 819 25 488 141 
L 488 750 
Q 750 597 1062 519 
Q 1375 441 1716 441 
Q 2309 441 2620 675 
Q 2931 909 2931 1356 
Q 2931 1769 2642 2001 
Q 2353 2234 1838 2234 
L 1294 2234 
L 1294 2753 
L 1863 2753 
Q 2328 2753 2575 2939 
Q 2822 3125 2822 3475 
Q 2822 3834 2567 4026 
Q 2313 4219 1838 4219 
Q 1578 4219 1281 4162 
Q 984 4106 628 3988 
L 628 4550 
Q 988 4650 1302 4700 
Q 1616 4750 1894 4750 
Q 2613 4750 3031 4423 
Q 3450 4097 3450 3541 
Q 3450 3153 3228 2886 
Q 3006 2619 2597 2516 
z
" id="DejaVuSans-33" transform="scale(0.015625)"/>
       </defs>
       <use xlink:href="#DejaVuSans-30"/>
       <use x="63.623047" xlink:href="#DejaVuSans-2e"/>
       <use x="95.410156" xlink:href="#DejaVuSans-33"/>
      </g>
     </g>
    </g>
    <g id="xtick_4">
     <g id="line2d_4">
      <g>
       <use style="stroke:#000000;stroke-width:0.8;" x="184.714847" xlink:href="#me5bf248437" y="252"/>
      </g>
     </g>
     <g id="text_4">
      <!-- 0.4 -->
      <g transform="translate(176.763284 266.598437)scale(0.1 -0.1)">
       <defs>
        <path d="M 2419 4116 
L 825 1625 
L 2419 1625 
L 2419 4116 
z
M 2253 4666 
L 3047 4666 
L 3047 1625 
L 3713 1625 
L 3713 1100 
L 3047 1100 
L 3047 0 
L 2419 0 
L 2419 1100 
L 313 1100 
L 313 1709 
L 2253 4666 
z
" id="DejaVuSans-34" transform="scale(0.015625)"/>
       </defs>
       <use xlink:href="#DejaVuSans-30"/>
       <use x="63.623047" xlink:href="#DejaVuSans-2e"/>
       <use x="95.410156" xlink:href="#DejaVuSans-34"/>
      </g>
     </g>
    </g>
    <g id="xtick_5">
     <g id="line2d_5">
      <g>
       <use style="stroke:#000000;stroke-width:0.8;" x="224.192385" xlink:href="#me5bf248437" y="252"/>
      </g>
     </g>
     <g id="text_5">
      <!-- 0.5 -->
      <g transform="translate(216.240822 266.598437)scale(0.1 -0.1)">
       <defs>
        <path d="M 691 4666 
L 3169 4666 
L 3169 4134 
L 1269 4134 
L 1269 2991 
Q 1406 3038 1543 3061 
Q 1681 3084 1819 3084 
Q 2600 3084 3056 2656 
Q 3513 2228 3513 1497 
Q 3513 744 3044 326 
Q 2575 -91 1722 -91 
Q 1428 -91 1123 -41 
Q 819 9 494 109 
L 494 744 
Q 775 591 1075 516 
Q 1375 441 1709 441 
Q 2250 441 2565 725 
Q 2881 1009 2881 1497 
Q 2881 1984 2565 2268 
Q 2250 2553 1709 2553 
Q 1456 2553 1204 2497 
Q 953 2441 691 2322 
L 691 4666 
z
" id="DejaVuSans-35" transform="scale(0.015625)"/>
       </defs>
       <use xlink:href="#DejaVuSans-30"/>
       <use x="63.623047" xlink:href="#DejaVuSans-2e"/>
       <use x="95.410156" xlink:href="#DejaVuSans-35"/>
      </g>
     </g>
    </g>
    <g id="xtick_6">
     <g id="line2d_6">
      <g>
       <use style="stroke:#000000;stroke-width:0.8;" x="263.669923" xlink:href="#me5bf248437" y="252"/>
      </g>
     </g>
     <g id="text_6">
      <!-- 0.6 -->
      <g transform="translate(255.718361 266.598437)scale(0.1 -0.1)">
       <defs>
        <path d="M 2113 2584 
Q 1688 2584 1439 2293 
Q 1191 2003 1191 1497 
Q 1191 994 1439 701 
Q 1688 409 2113 409 
Q 2538 409 2786 701 
Q 3034 994 3034 1497 
Q 3034 2003 2786 2293 
Q 2538 2584 2113 2584 
z
M 3366 4563 
L 3366 3988 
Q 3128 4100 2886 4159 
Q 2644 4219 2406 4219 
Q 1781 4219 1451 3797 
Q 1122 3375 1075 2522 
Q 1259 2794 1537 2939 
Q 1816 3084 2150 3084 
Q 2853 3084 3261 2657 
Q 3669 2231 3669 1497 
Q 3669 778 3244 343 
Q 2819 -91 2113 -91 
Q 1303 -91 875 529 
Q 447 1150 447 2328 
Q 447 3434 972 4092 
Q 1497 4750 2381 4750 
Q 2619 4750 2861 4703 
Q 3103 4656 3366 4563 
z
" id="DejaVuSans-36" transform="scale(0.015625)"/>
       </defs>
       <use xlink:href="#DejaVuSans-30"/>
       <use x="63.623047" xlink:href="#DejaVuSans-2e"/>
       <use x="95.410156" xlink:href="#DejaVuSans-36"/>
      </g>
     </g>
    </g>
    <g id="xtick_7">
     <g id="line2d_7">
      <g>
       <use style="stroke:#000000;stroke-width:0.8;" x="303.147462" xlink:href="#me5bf248437" y="252"/>
      </g>
     </g>
     <g id="text_7">
      <!-- 0.7 -->
      <g transform="translate(295.195899 266.598437)scale(0.1 -0.1)">
       <defs>
        <path d="M 525 4666 
L 3525 4666 
L 3525 4397 
L 1831 0 
L 1172 0 
L 2766 4134 
L 525 4134 
L 525 4666 
z
" id="DejaVuSans-37" transform="scale(0.015625)"/>
       </defs>
       <use xlink:href="#DejaVuSans-30"/>
       <use x="63.623047" xlink:href="#DejaVuSans-2e"/>
       <use x="95.410156" xlink:href="#DejaVuSans-37"/>
      </g>
     </g>
    </g>
    <g id="text_8">
     <!-- Total Connectance -->
     <g transform="translate(132.721875 281.79625)scale(0.12 -0.12)">
      <defs>
       <path d="M -19 4666 
L 3928 4666 
L 3928 4134 
L 2272 4134 
L 2272 0 
L 1638 0 
L 1638 4134 
L -19 4134 
L -19 4666 
z
" id="DejaVuSans-54" transform="scale(0.015625)"/>
       <path d="M 1959 3097 
Q 1497 3097 1228 2736 
Q 959 2375 959 1747 
Q 959 1119 1226 758 
Q 1494 397 1959 397 
Q 2419 397 2687 759 
Q 2956 1122 2956 1747 
Q 2956 2369 2687 2733 
Q 2419 3097 1959 3097 
z
M 1959 3584 
Q 2709 3584 3137 3096 
Q 3566 2609 3566 1747 
Q 3566 888 3137 398 
Q 2709 -91 1959 -91 
Q 1206 -91 779 398 
Q 353 888 353 1747 
Q 353 2609 779 3096 
Q 1206 3584 1959 3584 
z
" id="DejaVuSans-6f" transform="scale(0.015625)"/>
       <path d="M 1172 4494 
L 1172 3500 
L 2356 3500 
L 2356 3053 
L 1172 3053 
L 1172 1153 
Q 1172 725 1289 603 
Q 1406 481 1766 481 
L 2356 481 
L 2356 0 
L 1766 0 
Q 1100 0 847 248 
Q 594 497 594 1153 
L 594 3053 
L 172 3053 
L 172 3500 
L 594 3500 
L 594 4494 
L 1172 4494 
z
" id="DejaVuSans-74" transform="scale(0.015625)"/>
       <path d="M 2194 1759 
Q 1497 1759 1228 1600 
Q 959 1441 959 1056 
Q 959 750 1161 570 
Q 1363 391 1709 391 
Q 2188 391 2477 730 
Q 2766 1069 2766 1631 
L 2766 1759 
L 2194 1759 
z
M 3341 1997 
L 3341 0 
L 2766 0 
L 2766 531 
Q 2569 213 2275 61 
Q 1981 -91 1556 -91 
Q 1019 -91 701 211 
Q 384 513 384 1019 
Q 384 1609 779 1909 
Q 1175 2209 1959 2209 
L 2766 2209 
L 2766 2266 
Q 2766 2663 2505 2880 
Q 2244 3097 1772 3097 
Q 1472 3097 1187 3025 
Q 903 2953 641 2809 
L 641 3341 
Q 956 3463 1253 3523 
Q 1550 3584 1831 3584 
Q 2591 3584 2966 3190 
Q 3341 2797 3341 1997 
z
" id="DejaVuSans-61" transform="scale(0.015625)"/>
       <path d="M 603 4863 
L 1178 4863 
L 1178 0 
L 603 0 
L 603 4863 
z
" id="DejaVuSans-6c" transform="scale(0.015625)"/>
       <path id="DejaVuSans-20" transform="scale(0.015625)"/>
       <path d="M 4122 4306 
L 4122 3641 
Q 3803 3938 3442 4084 
Q 3081 4231 2675 4231 
Q 1875 4231 1450 3742 
Q 1025 3253 1025 2328 
Q 1025 1406 1450 917 
Q 1875 428 2675 428 
Q 3081 428 3442 575 
Q 3803 722 4122 1019 
L 4122 359 
Q 3791 134 3420 21 
Q 3050 -91 2638 -91 
Q 1578 -91 968 557 
Q 359 1206 359 2328 
Q 359 3453 968 4101 
Q 1578 4750 2638 4750 
Q 3056 4750 3426 4639 
Q 3797 4528 4122 4306 
z
" id="DejaVuSans-43" transform="scale(0.015625)"/>
       <path d="M 3513 2113 
L 3513 0 
L 2938 0 
L 2938 2094 
Q 2938 2591 2744 2837 
Q 2550 3084 2163 3084 
Q 1697 3084 1428 2787 
Q 1159 2491 1159 1978 
L 1159 0 
L 581 0 
L 581 3500 
L 1159 3500 
L 1159 2956 
Q 1366 3272 1645 3428 
Q 1925 3584 2291 3584 
Q 2894 3584 3203 3211 
Q 3513 2838 3513 2113 
z
" id="DejaVuSans-6e" transform="scale(0.015625)"/>
       <path d="M 3597 1894 
L 3597 1613 
L 953 1613 
Q 991 1019 1311 708 
Q 1631 397 2203 397 
Q 2534 397 2845 478 
Q 3156 559 3463 722 
L 3463 178 
Q 3153 47 2828 -22 
Q 2503 -91 2169 -91 
Q 1331 -91 842 396 
Q 353 884 353 1716 
Q 353 2575 817 3079 
Q 1281 3584 2069 3584 
Q 2775 3584 3186 3129 
Q 3597 2675 3597 1894 
z
M 3022 2063 
Q 3016 2534 2758 2815 
Q 2500 3097 2075 3097 
Q 1594 3097 1305 2825 
Q 1016 2553 972 2059 
L 3022 2063 
z
" id="DejaVuSans-65" transform="scale(0.015625)"/>
       <path d="M 3122 3366 
L 3122 2828 
Q 2878 2963 2633 3030 
Q 2388 3097 2138 3097 
Q 1578 3097 1268 2742 
Q 959 2388 959 1747 
Q 959 1106 1268 751 
Q 1578 397 2138 397 
Q 2388 397 2633 464 
Q 2878 531 3122 666 
L 3122 134 
Q 2881 22 2623 -34 
Q 2366 -91 2075 -91 
Q 1284 -91 818 406 
Q 353 903 353 1747 
Q 353 2603 823 3093 
Q 1294 3584 2113 3584 
Q 2378 3584 2631 3529 
Q 2884 3475 3122 3366 
z
" id="DejaVuSans-63" transform="scale(0.015625)"/>
      </defs>
      <use xlink:href="#DejaVuSans-54"/>
      <use x="44.083984" xlink:href="#DejaVuSans-6f"/>
      <use x="105.265625" xlink:href="#DejaVuSans-74"/>
      <use x="144.474609" xlink:href="#DejaVuSans-61"/>
      <use x="205.753906" xlink:href="#DejaVuSans-6c"/>
      <use x="233.537109" xlink:href="#DejaVuSans-20"/>
      <use x="265.324219" xlink:href="#DejaVuSans-43"/>
      <use x="335.148438" xlink:href="#DejaVuSans-6f"/>
      <use x="396.330078" xlink:href="#DejaVuSans-6e"/>
      <use x="459.708984" xlink:href="#DejaVuSans-6e"/>
      <use x="523.087891" xlink:href="#DejaVuSans-65"/>
      <use x="584.611328" xlink:href="#DejaVuSans-63"/>
      <use x="639.591797" xlink:href="#DejaVuSans-74"/>
      <use x="678.800781" xlink:href="#DejaVuSans-61"/>
      <use x="740.080078" xlink:href="#DejaVuSans-6e"/>
      <use x="803.458984" xlink:href="#DejaVuSans-63"/>
      <use x="858.439453" xlink:href="#DejaVuSans-65"/>
     </g>
    </g>
   </g>
   <g id="matplotlib.axis_2">
    <g id="ytick_1">
     <g id="line2d_8">
      <defs>
       <path d="M 0 0 
L -3.5 0 
" id="m5fffce59ad" style="stroke:#000000;stroke-width:0.8;"/>
      </defs>
      <g>
       <use style="stroke:#000000;stroke-width:0.8;" x="54" xlink:href="#m5fffce59ad" y="237.504"/>
      </g>
     </g>
     <g id="text_9">
      <!-- 6 -->
      <g transform="translate(40.6375 241.303219)scale(0.1 -0.1)">
       <use xlink:href="#DejaVuSans-36"/>
      </g>
     </g>
    </g>
    <g id="ytick_2">
     <g id="line2d_9">
      <g>
       <use style="stroke:#000000;stroke-width:0.8;" x="54" xlink:href="#m5fffce59ad" y="208.512"/>
      </g>
     </g>
     <g id="text_10">
      <!-- 8 -->
      <g transform="translate(40.6375 212.311219)scale(0.1 -0.1)">
       <defs>
        <path d="M 2034 2216 
Q 1584 2216 1326 1975 
Q 1069 1734 1069 1313 
Q 1069 891 1326 650 
Q 1584 409 2034 409 
Q 2484 409 2743 651 
Q 3003 894 3003 1313 
Q 3003 1734 2745 1975 
Q 2488 2216 2034 2216 
z
M 1403 2484 
Q 997 2584 770 2862 
Q 544 3141 544 3541 
Q 544 4100 942 4425 
Q 1341 4750 2034 4750 
Q 2731 4750 3128 4425 
Q 3525 4100 3525 3541 
Q 3525 3141 3298 2862 
Q 3072 2584 2669 2484 
Q 3125 2378 3379 2068 
Q 3634 1759 3634 1313 
Q 3634 634 3220 271 
Q 2806 -91 2034 -91 
Q 1263 -91 848 271 
Q 434 634 434 1313 
Q 434 1759 690 2068 
Q 947 2378 1403 2484 
z
M 1172 3481 
Q 1172 3119 1398 2916 
Q 1625 2713 2034 2713 
Q 2441 2713 2670 2916 
Q 2900 3119 2900 3481 
Q 2900 3844 2670 4047 
Q 2441 4250 2034 4250 
Q 1625 4250 1398 4047 
Q 1172 3844 1172 3481 
z
" id="DejaVuSans-38" transform="scale(0.015625)"/>
       </defs>
       <use xlink:href="#DejaVuSans-38"/>
      </g>
     </g>
    </g>
    <g id="ytick_3">
     <g id="line2d_10">
      <g>
       <use style="stroke:#000000;stroke-width:0.8;" x="54" xlink:href="#m5fffce59ad" y="179.52"/>
      </g>
     </g>
     <g id="text_11">
      <!-- 10 -->
      <g transform="translate(34.275 183.319219)scale(0.1 -0.1)">
       <use xlink:href="#DejaVuSans-31"/>
       <use x="63.623047" xlink:href="#DejaVuSans-30"/>
      </g>
     </g>
    </g>
    <g id="ytick_4">
     <g id="line2d_11">
      <g>
       <use style="stroke:#000000;stroke-width:0.8;" x="54" xlink:href="#m5fffce59ad" y="150.528"/>
      </g>
     </g>
     <g id="text_12">
      <!-- 12 -->
      <g transform="translate(34.275 154.327219)scale(0.1 -0.1)">
       <use xlink:href="#DejaVuSans-31"/>
       <use x="63.623047" xlink:href="#DejaVuSans-32"/>
      </g>
     </g>
    </g>
    <g id="ytick_5">
     <g id="line2d_12">
      <g>
       <use style="stroke:#000000;stroke-width:0.8;" x="54" xlink:href="#m5fffce59ad" y="121.536"/>
      </g>
     </g>
     <g id="text_13">
      <!-- 14 -->
      <g transform="translate(34.275 125.335219)scale(0.1 -0.1)">
       <use xlink:href="#DejaVuSans-31"/>
       <use x="63.623047" xlink:href="#DejaVuSans-34"/>
      </g>
     </g>
    </g>
    <g id="ytick_6">
     <g id="line2d_13">
      <g>
       <use style="stroke:#000000;stroke-width:0.8;" x="54" xlink:href="#m5fffce59ad" y="92.544"/>
      </g>
     </g>
     <g id="text_14">
      <!-- 16 -->
      <g transform="translate(34.275 96.343219)scale(0.1 -0.1)">
       <use xlink:href="#DejaVuSans-31"/>
       <use x="63.623047" xlink:href="#DejaVuSans-36"/>
      </g>
     </g>
    </g>
    <g id="ytick_7">
     <g id="line2d_14">
      <g>
       <use style="stroke:#000000;stroke-width:0.8;" x="54" xlink:href="#m5fffce59ad" y="63.552"/>
      </g>
     </g>
     <g id="text_15">
      <!-- 18 -->
      <g transform="translate(34.275 67.351219)scale(0.1 -0.1)">
       <use xlink:href="#DejaVuSans-31"/>
       <use x="63.623047" xlink:href="#DejaVuSans-38"/>
      </g>
     </g>
    </g>
    <g id="ytick_8">
     <g id="line2d_15">
      <g>
       <use style="stroke:#000000;stroke-width:0.8;" x="54" xlink:href="#m5fffce59ad" y="34.56"/>
      </g>
     </g>
     <g id="text_16">
      <!-- 20 -->
      <g transform="translate(34.275 38.359219)scale(0.1 -0.1)">
       <use xlink:href="#DejaVuSans-32"/>
       <use x="63.623047" xlink:href="#DejaVuSans-30"/>
      </g>
     </g>
    </g>
    <g id="text_17">
     <!-- Total Size -->
     <g transform="translate(27.779375 171.515625)rotate(-90)scale(0.12 -0.12)">
      <defs>
       <path d="M 3425 4513 
L 3425 3897 
Q 3066 4069 2747 4153 
Q 2428 4238 2131 4238 
Q 1616 4238 1336 4038 
Q 1056 3838 1056 3469 
Q 1056 3159 1242 3001 
Q 1428 2844 1947 2747 
L 2328 2669 
Q 3034 2534 3370 2195 
Q 3706 1856 3706 1288 
Q 3706 609 3251 259 
Q 2797 -91 1919 -91 
Q 1588 -91 1214 -16 
Q 841 59 441 206 
L 441 856 
Q 825 641 1194 531 
Q 1563 422 1919 422 
Q 2459 422 2753 634 
Q 3047 847 3047 1241 
Q 3047 1584 2836 1778 
Q 2625 1972 2144 2069 
L 1759 2144 
Q 1053 2284 737 2584 
Q 422 2884 422 3419 
Q 422 4038 858 4394 
Q 1294 4750 2059 4750 
Q 2388 4750 2728 4690 
Q 3069 4631 3425 4513 
z
" id="DejaVuSans-53" transform="scale(0.015625)"/>
       <path d="M 603 3500 
L 1178 3500 
L 1178 0 
L 603 0 
L 603 3500 
z
M 603 4863 
L 1178 4863 
L 1178 4134 
L 603 4134 
L 603 4863 
z
" id="DejaVuSans-69" transform="scale(0.015625)"/>
       <path d="M 353 3500 
L 3084 3500 
L 3084 2975 
L 922 459 
L 3084 459 
L 3084 0 
L 275 0 
L 275 525 
L 2438 3041 
L 353 3041 
L 353 3500 
z
" id="DejaVuSans-7a" transform="scale(0.015625)"/>
      </defs>
      <use xlink:href="#DejaVuSans-54"/>
      <use x="44.083984" xlink:href="#DejaVuSans-6f"/>
      <use x="105.265625" xlink:href="#DejaVuSans-74"/>
      <use x="144.474609" xlink:href="#DejaVuSans-61"/>
      <use x="205.753906" xlink:href="#DejaVuSans-6c"/>
      <use x="233.537109" xlink:href="#DejaVuSans-20"/>
      <use x="265.324219" xlink:href="#DejaVuSans-53"/>
      <use x="328.800781" xlink:href="#DejaVuSans-69"/>
      <use x="356.583984" xlink:href="#DejaVuSans-7a"/>
      <use x="409.074219" xlink:href="#DejaVuSans-65"/>
     </g>
    </g>
   </g>
   <g id="patch_3">
    <path d="M 54 252 
L 54 34.56 
" style="fill:none;stroke:#000000;stroke-linecap:square;stroke-linejoin:miter;stroke-width:0.8;"/>
   </g>
   <g id="patch_4">
    <path d="M 321.84 252 
L 321.84 34.56 
" style="fill:none;stroke:#000000;stroke-linecap:square;stroke-linejoin:miter;stroke-width:0.8;"/>
   </g>
   <g id="patch_5">
    <path d="M 54 252 
L 321.84 252 
" style="fill:none;stroke:#000000;stroke-linecap:square;stroke-linejoin:miter;stroke-width:0.8;"/>
   </g>
   <g id="patch_6">
    <path d="M 54 34.56 
L 321.84 34.56 
" style="fill:none;stroke:#000000;stroke-linecap:square;stroke-linejoin:miter;stroke-width:0.8;"/>
   </g>
  </g>
  <g id="axes_2">
   <g id="patch_7">
    <path d="M 338.58 252 
L 349.452 252 
L 349.452 34.56 
L 338.58 34.56 
z
" style="fill:#ffffff;"/>
   </g>
   <g id="patch_8">
    <path clip-path="url(#p6cfcb8bed8)" d="M 338.58 252 
L 338.58 240.555789 
L 338.58 46.004211 
L 338.58 34.56 
L 349.452 34.56 
L 349.452 46.004211 
L 349.452 240.555789 
L 349.452 252 
L 349.452 252 
z
" style="fill:#ffffff;stroke:#ffffff;stroke-linejoin:miter;stroke-width:0.01;"/>
   </g>
   <g id="QuadMesh_1">
    <path clip-path="url(#p6cfcb8bed8)" d="M 338.58 252 
L 349.452 252 
L 349.452 240.555789 
L 338.58 240.555789 
L 338.58 252 
" style="fill:#460a5d;"/>
    <path clip-path="url(#p6cfcb8bed8)" d="M 338.58 240.555789 
L 349.452 240.555789 
L 349.452 229.111579 
L 338.58 229.111579 
L 338.58 240.555789 
" style="fill:#481d6f;"/>
    <path clip-path="url(#p6cfcb8bed8)" d="M 338.58 229.111579 
L 349.452 229.111579 
L 349.452 217.667368 
L 338.58 217.667368 
L 338.58 229.111579 
" style="fill:#472e7c;"/>
    <path clip-path="url(#p6cfcb8bed8)" d="M 338.58 217.667368 
L 349.452 217.667368 
L 349.452 206.223158 
L 338.58 206.223158 
L 338.58 217.667368 
" style="fill:#423f85;"/>
    <path clip-path="url(#p6cfcb8bed8)" d="M 338.58 206.223158 
L 349.452 206.223158 
L 349.452 194.778947 
L 338.58 194.778947 
L 338.58 206.223158 
" style="fill:#3d4e8a;"/>
    <path clip-path="url(#p6cfcb8bed8)" d="M 338.58 194.778947 
L 349.452 194.778947 
L 349.452 183.334737 
L 338.58 183.334737 
L 338.58 194.778947 
" style="fill:#365d8d;"/>
    <path clip-path="url(#p6cfcb8bed8)" d="M 338.58 183.334737 
L 349.452 183.334737 
L 349.452 171.890526 
L 338.58 171.890526 
L 338.58 183.334737 
" style="fill:#306a8e;"/>
    <path clip-path="url(#p6cfcb8bed8)" d="M 338.58 171.890526 
L 349.452 171.890526 
L 349.452 160.446316 
L 338.58 160.446316 
L 338.58 171.890526 
" style="fill:#2a778e;"/>
    <path clip-path="url(#p6cfcb8bed8)" d="M 338.58 160.446316 
L 349.452 160.446316 
L 349.452 149.002105 
L 338.58 149.002105 
L 338.58 160.446316 
" style="fill:#25838e;"/>
    <path clip-path="url(#p6cfcb8bed8)" d="M 338.58 149.002105 
L 349.452 149.002105 
L 349.452 137.557895 
L 338.58 137.557895 
L 338.58 149.002105 
" style="fill:#21918c;"/>
    <path clip-path="url(#p6cfcb8bed8)" d="M 338.58 137.557895 
L 349.452 137.557895 
L 349.452 126.113684 
L 338.58 126.113684 
L 338.58 137.557895 
" style="fill:#1e9d89;"/>
    <path clip-path="url(#p6cfcb8bed8)" d="M 338.58 126.113684 
L 349.452 126.113684 
L 349.452 114.669474 
L 338.58 114.669474 
L 338.58 126.113684 
" style="fill:#23a983;"/>
    <path clip-path="url(#p6cfcb8bed8)" d="M 338.58 114.669474 
L 349.452 114.669474 
L 349.452 103.225263 
L 338.58 103.225263 
L 338.58 114.669474 
" style="fill:#32b67a;"/>
    <path clip-path="url(#p6cfcb8bed8)" d="M 338.58 103.225263 
L 349.452 103.225263 
L 349.452 91.781053 
L 338.58 91.781053 
L 338.58 103.225263 
" style="fill:#48c16e;"/>
    <path clip-path="url(#p6cfcb8bed8)" d="M 338.58 91.781053 
L 349.452 91.781053 
L 349.452 80.336842 
L 338.58 80.336842 
L 338.58 91.781053 
" style="fill:#65cb5e;"/>
    <path clip-path="url(#p6cfcb8bed8)" d="M 338.58 80.336842 
L 349.452 80.336842 
L 349.452 68.892632 
L 338.58 68.892632 
L 338.58 80.336842 
" style="fill:#84d44b;"/>
    <path clip-path="url(#p6cfcb8bed8)" d="M 338.58 68.892632 
L 349.452 68.892632 
L 349.452 57.448421 
L 338.58 57.448421 
L 338.58 68.892632 
" style="fill:#a8db34;"/>
    <path clip-path="url(#p6cfcb8bed8)" d="M 338.58 57.448421 
L 349.452 57.448421 
L 349.452 46.004211 
L 338.58 46.004211 
L 338.58 57.448421 
" style="fill:#cae11f;"/>
    <path clip-path="url(#p6cfcb8bed8)" d="M 338.58 46.004211 
L 349.452 46.004211 
L 349.452 34.56 
L 338.58 34.56 
L 338.58 46.004211 
" style="fill:#efe51c;"/>
   </g>
   <g id="matplotlib.axis_3"/>
   <g id="matplotlib.axis_4">
    <g id="ytick_9">
     <g id="line2d_16">
      <defs>
       <path d="M 0 0 
L 3.5 0 
" id="m91d14bcfca" style="stroke:#000000;stroke-width:0.8;"/>
      </defs>
      <g>
       <use style="stroke:#000000;stroke-width:0.8;" x="349.452" xlink:href="#m91d14bcfca" y="252"/>
      </g>
     </g>
     <g id="text_18">
      <!-- 0.0629 -->
      <g transform="translate(356.452 255.799219)scale(0.1 -0.1)">
       <defs>
        <path d="M 703 97 
L 703 672 
Q 941 559 1184 500 
Q 1428 441 1663 441 
Q 2288 441 2617 861 
Q 2947 1281 2994 2138 
Q 2813 1869 2534 1725 
Q 2256 1581 1919 1581 
Q 1219 1581 811 2004 
Q 403 2428 403 3163 
Q 403 3881 828 4315 
Q 1253 4750 1959 4750 
Q 2769 4750 3195 4129 
Q 3622 3509 3622 2328 
Q 3622 1225 3098 567 
Q 2575 -91 1691 -91 
Q 1453 -91 1209 -44 
Q 966 3 703 97 
z
M 1959 2075 
Q 2384 2075 2632 2365 
Q 2881 2656 2881 3163 
Q 2881 3666 2632 3958 
Q 2384 4250 1959 4250 
Q 1534 4250 1286 3958 
Q 1038 3666 1038 3163 
Q 1038 2656 1286 2365 
Q 1534 2075 1959 2075 
z
" id="DejaVuSans-39" transform="scale(0.015625)"/>
       </defs>
       <use xlink:href="#DejaVuSans-30"/>
       <use x="63.623047" xlink:href="#DejaVuSans-2e"/>
       <use x="95.410156" xlink:href="#DejaVuSans-30"/>
       <use x="159.033203" xlink:href="#DejaVuSans-36"/>
       <use x="222.65625" xlink:href="#DejaVuSans-32"/>
       <use x="286.279297" xlink:href="#DejaVuSans-39"/>
      </g>
     </g>
    </g>
    <g id="ytick_10">
     <g id="line2d_17">
      <g>
       <use style="stroke:#000000;stroke-width:0.8;" x="349.452" xlink:href="#m91d14bcfca" y="229.111579"/>
      </g>
     </g>
     <g id="text_19">
      <!-- 0.1477 -->
      <g transform="translate(356.452 232.910798)scale(0.1 -0.1)">
       <use xlink:href="#DejaVuSans-30"/>
       <use x="63.623047" xlink:href="#DejaVuSans-2e"/>
       <use x="95.410156" xlink:href="#DejaVuSans-31"/>
       <use x="159.033203" xlink:href="#DejaVuSans-34"/>
       <use x="222.65625" xlink:href="#DejaVuSans-37"/>
       <use x="286.279297" xlink:href="#DejaVuSans-37"/>
      </g>
     </g>
    </g>
    <g id="ytick_11">
     <g id="line2d_18">
      <g>
       <use style="stroke:#000000;stroke-width:0.8;" x="349.452" xlink:href="#m91d14bcfca" y="206.223158"/>
      </g>
     </g>
     <g id="text_20">
      <!-- 0.2325 -->
      <g transform="translate(356.452 210.022377)scale(0.1 -0.1)">
       <use xlink:href="#DejaVuSans-30"/>
       <use x="63.623047" xlink:href="#DejaVuSans-2e"/>
       <use x="95.410156" xlink:href="#DejaVuSans-32"/>
       <use x="159.033203" xlink:href="#DejaVuSans-33"/>
       <use x="222.65625" xlink:href="#DejaVuSans-32"/>
       <use x="286.279297" xlink:href="#DejaVuSans-35"/>
      </g>
     </g>
    </g>
    <g id="ytick_12">
     <g id="line2d_19">
      <g>
       <use style="stroke:#000000;stroke-width:0.8;" x="349.452" xlink:href="#m91d14bcfca" y="183.334737"/>
      </g>
     </g>
     <g id="text_21">
      <!-- 0.3172 -->
      <g transform="translate(356.452 187.133956)scale(0.1 -0.1)">
       <use xlink:href="#DejaVuSans-30"/>
       <use x="63.623047" xlink:href="#DejaVuSans-2e"/>
       <use x="95.410156" xlink:href="#DejaVuSans-33"/>
       <use x="159.033203" xlink:href="#DejaVuSans-31"/>
       <use x="222.65625" xlink:href="#DejaVuSans-37"/>
       <use x="286.279297" xlink:href="#DejaVuSans-32"/>
      </g>
     </g>
    </g>
    <g id="ytick_13">
     <g id="line2d_20">
      <g>
       <use style="stroke:#000000;stroke-width:0.8;" x="349.452" xlink:href="#m91d14bcfca" y="160.446316"/>
      </g>
     </g>
     <g id="text_22">
      <!-- 0.4020 -->
      <g transform="translate(356.452 164.245535)scale(0.1 -0.1)">
       <use xlink:href="#DejaVuSans-30"/>
       <use x="63.623047" xlink:href="#DejaVuSans-2e"/>
       <use x="95.410156" xlink:href="#DejaVuSans-34"/>
       <use x="159.033203" xlink:href="#DejaVuSans-30"/>
       <use x="222.65625" xlink:href="#DejaVuSans-32"/>
       <use x="286.279297" xlink:href="#DejaVuSans-30"/>
      </g>
     </g>
    </g>
    <g id="ytick_14">
     <g id="line2d_21">
      <g>
       <use style="stroke:#000000;stroke-width:0.8;" x="349.452" xlink:href="#m91d14bcfca" y="137.557895"/>
      </g>
     </g>
     <g id="text_23">
      <!-- 0.4868 -->
      <g transform="translate(356.452 141.357113)scale(0.1 -0.1)">
       <use xlink:href="#DejaVuSans-30"/>
       <use x="63.623047" xlink:href="#DejaVuSans-2e"/>
       <use x="95.410156" xlink:href="#DejaVuSans-34"/>
       <use x="159.033203" xlink:href="#DejaVuSans-38"/>
       <use x="222.65625" xlink:href="#DejaVuSans-36"/>
       <use x="286.279297" xlink:href="#DejaVuSans-38"/>
      </g>
     </g>
    </g>
    <g id="ytick_15">
     <g id="line2d_22">
      <g>
       <use style="stroke:#000000;stroke-width:0.8;" x="349.452" xlink:href="#m91d14bcfca" y="114.669474"/>
      </g>
     </g>
     <g id="text_24">
      <!-- 0.5716 -->
      <g transform="translate(356.452 118.468692)scale(0.1 -0.1)">
       <use xlink:href="#DejaVuSans-30"/>
       <use x="63.623047" xlink:href="#DejaVuSans-2e"/>
       <use x="95.410156" xlink:href="#DejaVuSans-35"/>
       <use x="159.033203" xlink:href="#DejaVuSans-37"/>
       <use x="222.65625" xlink:href="#DejaVuSans-31"/>
       <use x="286.279297" xlink:href="#DejaVuSans-36"/>
      </g>
     </g>
    </g>
    <g id="ytick_16">
     <g id="line2d_23">
      <g>
       <use style="stroke:#000000;stroke-width:0.8;" x="349.452" xlink:href="#m91d14bcfca" y="91.781053"/>
      </g>
     </g>
     <g id="text_25">
      <!-- 0.6564 -->
      <g transform="translate(356.452 95.580271)scale(0.1 -0.1)">
       <use xlink:href="#DejaVuSans-30"/>
       <use x="63.623047" xlink:href="#DejaVuSans-2e"/>
       <use x="95.410156" xlink:href="#DejaVuSans-36"/>
       <use x="159.033203" xlink:href="#DejaVuSans-35"/>
       <use x="222.65625" xlink:href="#DejaVuSans-36"/>
       <use x="286.279297" xlink:href="#DejaVuSans-34"/>
      </g>
     </g>
    </g>
    <g id="ytick_17">
     <g id="line2d_24">
      <g>
       <use style="stroke:#000000;stroke-width:0.8;" x="349.452" xlink:href="#m91d14bcfca" y="68.892632"/>
      </g>
     </g>
     <g id="text_26">
      <!-- 0.7412 -->
      <g transform="translate(356.452 72.69185)scale(0.1 -0.1)">
       <use xlink:href="#DejaVuSans-30"/>
       <use x="63.623047" xlink:href="#DejaVuSans-2e"/>
       <use x="95.410156" xlink:href="#DejaVuSans-37"/>
       <use x="159.033203" xlink:href="#DejaVuSans-34"/>
       <use x="222.65625" xlink:href="#DejaVuSans-31"/>
       <use x="286.279297" xlink:href="#DejaVuSans-32"/>
      </g>
     </g>
    </g>
    <g id="ytick_18">
     <g id="line2d_25">
      <g>
       <use style="stroke:#000000;stroke-width:0.8;" x="349.452" xlink:href="#m91d14bcfca" y="46.004211"/>
      </g>
     </g>
     <g id="text_27">
      <!-- 0.8260 -->
      <g transform="translate(356.452 49.803429)scale(0.1 -0.1)">
       <use xlink:href="#DejaVuSans-30"/>
       <use x="63.623047" xlink:href="#DejaVuSans-2e"/>
       <use x="95.410156" xlink:href="#DejaVuSans-38"/>
       <use x="159.033203" xlink:href="#DejaVuSans-32"/>
       <use x="222.65625" xlink:href="#DejaVuSans-36"/>
       <use x="286.279297" xlink:href="#DejaVuSans-30"/>
      </g>
     </g>
    </g>
   </g>
   <g id="LineCollection_1"/>
   <g id="patch_9">
    <path d="M 338.58 252 
L 338.58 240.555789 
L 338.58 46.004211 
L 338.58 34.56 
L 349.452 34.56 
L 349.452 46.004211 
L 349.452 240.555789 
L 349.452 252 
z
" style="fill:none;stroke:#000000;stroke-linecap:square;stroke-linejoin:miter;stroke-width:0.8;"/>
   </g>
  </g>
 </g>
 <defs>
  <clipPath id="pd5eeb0d9a5">
   <rect height="217.44" width="267.84" x="54" y="34.56"/>
  </clipPath>
  <clipPath id="p6cfcb8bed8">
   <rect height="217.44" width="10.872" x="338.58" y="34.56"/>
  </clipPath>
 </defs>
</svg>
